<svg width="20" height="20" viewBox="0 0 20 20" fill="none" xmlns="http://www.w3.org/2000/svg">
<path d="M10 18.6671C10.1841 18.6671 10.3334 18.5179 10.3334 18.3338C10.3334 18.1498 10.1841 18.0006 10 18.0006C9.81593 18.0006 9.66669 18.1498 9.66669 18.3338C9.66669 18.5179 9.81593 18.6671 10 18.6671Z" fill="#59B9B4"/>
<path d="M13.5443 14.4606C15.0659 13.6676 16.2773 12.3872 16.9848 10.8243C17.6922 9.26144 17.8548 7.50651 17.4464 5.84036C17.038 4.17422 16.0823 2.6932 14.7323 1.63434C13.3823 0.575483 11.7159 0 10 0C8.28407 0 6.61774 0.575483 5.2677 1.63434C3.91767 2.6932 2.96199 4.17422 2.55362 5.84036C2.14524 7.50651 2.30778 9.26144 3.01522 10.8243C3.72267 12.3872 4.93411 13.6676 6.45567 14.4606C2.17067 14.7829 0 15.6923 0 17.1675C0 19.5085 5.438 20 10 20C14.562 20 20 19.5085 20 17.1675C20 15.6923 17.8293 14.7829 13.5443 14.4606ZM3 7.67028C2.99976 6.41352 3.33807 5.17989 3.9794 4.09896C4.62072 3.01804 5.54139 2.12972 6.64469 1.52732C7.74799 0.924915 8.9932 0.630658 10.2495 0.675458C11.5059 0.720258 12.7269 1.10246 13.7845 1.78192C14.8421 2.46138 15.6971 3.41302 16.2597 4.53687C16.8224 5.66073 17.0719 6.91533 16.9821 8.16888C16.8923 9.42243 16.4665 10.6287 15.7494 11.6609C15.0322 12.6931 14.0503 13.5132 12.9067 14.0351C12.8706 14.0515 12.8377 14.074 12.8093 14.1017L11.14 15.7769L11.129 15.7879L10.2193 16.701C10.1618 16.7523 10.0881 16.7818 10.0111 16.7846C9.93405 16.7874 9.85845 16.7633 9.79733 16.7163L7.19067 14.1051C7.16235 14.0774 7.12941 14.0548 7.09333 14.0384C5.8736 13.479 4.83978 12.5819 4.11432 11.4533C3.38886 10.3247 3.00215 9.01184 3 7.67028ZM10 19.3335C4.243 19.3335 0.666667 18.5034 0.666667 17.1675C0.666667 16.0755 3.05533 15.317 7.22233 15.0791L7.87 15.7276C5.77633 15.8452 3 16.1861 3 17.1675C3 18.2765 6.53933 18.5671 8.64933 18.6434H8.66133C8.74974 18.6449 8.83514 18.6113 8.89874 18.5499C8.96235 18.4885 8.99895 18.4044 9.0005 18.316C9.00205 18.2276 8.96841 18.1422 8.90699 18.0787C8.84558 18.0151 8.76141 17.9785 8.673 17.9769C5.48167 17.8633 4 17.4054 3.70233 17.1675C3.99533 16.9342 5.43233 16.489 8.50667 16.3651L9.34 17.2015C9.52053 17.3592 9.75226 17.4459 9.992 17.4454C10.243 17.4447 10.4852 17.3524 10.673 17.1858L11.4923 16.3651C14.5667 16.489 16.0047 16.9342 16.2977 17.1675C15.9977 17.4054 14.5187 17.8633 11.3277 17.9773C11.2393 17.9788 11.1551 18.0154 11.0937 18.079C11.0323 18.1426 10.9986 18.2279 11.0002 18.3163C11.0017 18.4047 11.0383 18.4889 11.1019 18.5503C11.1655 18.6117 11.2509 18.6453 11.3393 18.6437H11.3513C13.461 18.5671 17 18.2765 17 17.1675C17 16.1865 14.224 15.8452 12.1303 15.7276L12.7777 15.0791C16.9447 15.317 19.3333 16.0755 19.3333 17.1675C19.3333 18.5034 15.757 19.3335 10 19.3335Z" fill="#59B9B4"/>
<path d="M16.3334 7.67023C16.3334 6.41798 15.9619 5.19385 15.266 4.15264C14.5701 3.11144 13.5809 2.29992 12.4237 1.8207C11.2664 1.34149 9.993 1.2161 8.76445 1.46041C7.5359 1.70471 6.40741 2.30772 5.52168 3.19319C4.63595 4.07867 4.03276 5.20683 3.78838 6.43502C3.54401 7.6632 3.66943 8.93625 4.14879 10.0932C4.62814 11.2501 5.4399 12.2389 6.48141 12.9347C7.52292 13.6304 8.74741 14.0017 10 14.0017C11.6792 13.9999 13.289 13.3322 14.4763 12.1452C15.6636 10.9582 16.3315 9.34887 16.3334 7.67023ZM4.33336 7.67023C4.33336 6.54979 4.6657 5.45452 5.28836 4.52292C5.91102 3.59131 6.79604 2.86521 7.83148 2.43644C8.86693 2.00767 10.0063 1.89549 11.1055 2.11407C12.2048 2.33266 13.2145 2.8722 14.007 3.66446C14.7995 4.45673 15.3392 5.46613 15.5578 6.56504C15.7765 7.66394 15.6642 8.80298 15.2353 9.83813C14.8064 10.8733 14.0801 11.758 13.1483 12.3805C12.2164 13.003 11.1208 13.3352 10 13.3352C8.49764 13.3336 7.05728 12.7362 5.99494 11.6741C4.93259 10.6121 4.33503 9.17216 4.33336 7.67023Z" fill="#59B9B4"/>
<path d="M13 10.3128C13.0507 10.2835 13.0929 10.2413 13.1221 10.1906C13.1514 10.1398 13.1668 10.0822 13.1666 10.0236V7.14275L14 6.82218V8.66997C14 8.75835 14.0351 8.84311 14.0976 8.9056C14.1601 8.9681 14.2449 9.00321 14.3333 9.00321C14.4217 9.00321 14.5065 8.9681 14.569 8.9056C14.6315 8.84311 14.6666 8.75835 14.6666 8.66997V6.33732C14.6629 6.27064 14.6407 6.20632 14.6025 6.15154C14.5643 6.09675 14.5116 6.05366 14.4503 6.02708L10.117 4.3609C10.0398 4.3312 9.95443 4.3312 9.87731 4.3609L5.54864 6.02708C5.48583 6.0513 5.43183 6.09397 5.39374 6.14946C5.35565 6.20496 5.33527 6.27069 5.33527 6.33799C5.33527 6.40529 5.35565 6.47102 5.39374 6.52651C5.43183 6.58201 5.48583 6.62468 5.54864 6.6489L6.83331 7.14142V10.0236C6.83319 10.0822 6.84854 10.1398 6.8778 10.1906C6.90706 10.2413 6.9492 10.2835 6.99997 10.3128C7.90675 10.8582 8.94186 11.1537 9.99997 11.1692C11.0582 11.1543 12.0934 10.8588 13 10.3128ZM6.59764 6.33732L9.99764 5.02871L13.4023 6.33732L10.0023 7.64594L6.59764 6.33732ZM7.49997 9.82763V7.39801L9.88197 8.31441C9.9591 8.34411 10.0445 8.34411 10.1216 8.31441L12.5 7.39968V9.82797C11.7418 10.2724 10.8788 10.5066 9.99993 10.5066C9.12105 10.5065 8.25808 10.2722 7.49997 9.82763Z" fill="#59B9B4"/>
</svg>
