<svg width="30" height="30" viewBox="0 0 30 30" fill="none" xmlns="http://www.w3.org/2000/svg">
<path d="M29.8589 0.967469H29.3485C28.7175 0.967469 28.123 1.44165 27.7394 2.24873L22.5156 13.2585L17.2918 2.24873C16.9094 1.44165 16.3143 0.967469 15.6839 0.967469H15.1735L21.7609 14.8504L15.0324 29.0314H15.5428C16.1738 29.0314 16.7683 28.5572 17.1513 27.7501L22.5162 16.4433L27.8811 27.7501C28.2641 28.5572 28.8586 29.0314 29.4896 29.0314H30L23.2716 14.8504L29.8589 0.967469ZM12.7826 23.4592C11.2491 27.215 8.23013 29.1398 5.34385 27.4424C2.80462 25.9492 1.20086 21.8809 1.20086 17.5242V16.451H8.40605H15.0108V12.4504C15.0108 6.15542 12.1179 0.644251 8.22892 0.0549084C3.76651 -0.621529 0 5.04158 0 12.0963V17.4894C0 22.687 1.93039 27.5188 4.96497 29.2791C8.92963 31.5784 13.0996 28.1469 14.5094 22.2573H14.1264C13.5794 22.2573 13.0828 22.7228 12.7826 23.4592ZM1.20086 12.0963C1.20086 6.49316 4.0289 1.93519 7.5054 1.93519C10.9819 1.93519 13.8099 6.49316 13.8099 12.0963V14.5156H1.20086V12.0963Z" fill="#F6F8FF"/>
</svg>
