<svg width="30" height="30" viewBox="0 0 30 30" fill="none" xmlns="http://www.w3.org/2000/svg">
<path d="M5.21586 28.8466C3.82585 28.0403 2.64337 26.4993 1.80635 24.4817C0.972236 22.471 0.5 20.0296 0.5 17.4894V12.0963C0.5 8.65067 1.42108 5.57324 2.85499 3.45687C4.29173 1.33635 6.18211 0.250353 8.15399 0.549261L8.15401 0.549264C9.88107 0.810984 11.4675 2.18367 12.6383 4.35072C13.803 6.50632 14.5108 9.37411 14.5108 12.4504V15.951H8.40605H1.20086H0.700865V16.451V17.5242C0.700865 19.7606 1.11196 21.9322 1.85766 23.7471C2.60045 25.5549 3.6942 27.0524 5.09038 27.8734C6.69342 28.8161 8.3602 28.7538 9.81645 27.9311C11.2497 27.1214 12.4502 25.596 13.2455 23.6483L13.2456 23.648C13.4224 23.2144 13.6399 22.9681 13.8367 22.8489C13.1088 25.3737 11.8555 27.326 10.3922 28.4414C8.81896 29.6405 7.00311 29.8831 5.21586 28.8466ZM5.21586 28.8466L4.9661 29.2772L5.21586 28.8466ZM16.6996 27.5357C16.4521 28.0573 16.1427 28.3469 15.8541 28.4661L22.2126 15.0647L22.3143 14.8504L22.2126 14.6361L15.9953 1.53293C16.2837 1.65216 16.5931 1.94179 16.84 2.46286L16.8401 2.46306L22.0639 13.4728L22.5156 14.4249L22.9673 13.4728L28.1909 2.4634C28.439 1.94167 28.7485 1.65194 29.0372 1.53278L22.8198 14.6361L22.7181 14.8504L22.8198 15.0647L29.1783 28.4661C28.8897 28.3469 28.5803 28.0573 28.3328 27.5357L22.9679 16.2289L22.5162 15.2769L22.0645 16.2289L16.6996 27.5357ZM13.8099 15.0156H14.3099V14.5156V12.0963C14.3099 9.21636 13.5842 6.58169 12.3862 4.65095C11.1932 2.7281 9.48052 1.43519 7.5054 1.43519C5.53028 1.43519 3.81763 2.7281 2.62458 4.65095C1.42664 6.58169 0.700865 9.21636 0.700865 12.0963V14.5156V15.0156H1.20086H13.8099Z" fill="#F6F8FF" stroke="#F8F9FF"/>
</svg>
