<svg width="30" height="30" viewBox="0 0 30 30" fill="none" xmlns="http://www.w3.org/2000/svg">
<path d="M28.575 6.5671L16.432 0.325196C15.9959 0.112077 15.5025 0 15.0004 0C14.4983 0 14.0049 0.112077 13.5688 0.325196L1.42504 6.56643C0.987411 6.79628 0.626347 7.11897 0.376725 7.50335C0.127104 7.88772 -0.00263547 8.32077 4.05737e-05 8.76067V21.2264C-0.00258493 21.6665 0.127156 22.0999 0.376754 22.4846C0.626351 22.8692 0.987383 23.1923 1.42504 23.4226L4.6094 25.0524L4.62737 25.0611C6.23518 25.7662 6.85081 25.7662 7.56408 25.7662C10.075 25.7662 11.6352 24.3735 11.6352 22.131V10.0443C11.6366 9.89337 11.5682 9.74814 11.4449 9.64043C11.3215 9.53273 11.1534 9.47135 10.9774 9.46976H9.22892C9.05287 9.47135 8.88473 9.53273 8.76141 9.64043C8.63809 9.74814 8.56966 9.89337 8.57111 10.0443V22.131C8.57748 22.304 8.53154 22.4755 8.43778 22.6289C8.34401 22.7822 8.2056 22.9122 8.03596 23.0062C7.57502 23.2472 6.90549 23.1963 6.15003 22.8622L3.09847 21.288C3.08679 21.2812 3.07725 21.272 3.07071 21.2612C3.06417 21.2505 3.06082 21.2385 3.06097 21.2264V8.93677C3.06147 8.92264 3.06592 8.90882 3.07394 8.89647C3.08196 8.88412 3.09332 8.8736 3.10706 8.86579L14.9695 2.63862C14.9784 2.63485 14.9882 2.63288 14.9981 2.63288C15.0079 2.63288 15.0177 2.63485 15.0266 2.63862L26.8961 8.86579C26.9096 8.87424 26.9205 8.88533 26.928 8.89814C26.9355 8.91096 26.9393 8.92512 26.939 8.93945V21.2264C26.9393 21.2391 26.9363 21.2517 26.9302 21.2633C26.9242 21.2748 26.9152 21.2851 26.9039 21.2933L15.0242 27.3632C15.004 27.3692 14.982 27.3692 14.9617 27.3632L11.9281 25.8191C11.8381 25.7686 11.734 25.7395 11.6266 25.7347C11.5192 25.7299 11.4121 25.7495 11.3164 25.7916L11.2899 25.805C10.4524 26.2302 10.2274 26.3407 9.4508 26.5831C9.32424 26.6226 9.02658 26.717 9.0008 26.9694C8.97502 27.2219 9.25783 27.4013 9.50939 27.5265L13.5641 29.6605C13.9961 29.8823 14.4902 29.9996 14.9938 30H15.0391C15.5301 29.9934 16.0104 29.8763 16.432 29.6605L28.575 23.4246C29.0124 23.1936 29.3732 22.8701 29.6227 22.4852C29.8723 22.1002 30.0022 21.6668 30 21.2264V8.76067C30.0024 8.3209 29.8726 7.888 29.623 7.50377C29.3734 7.11954 29.0124 6.79694 28.575 6.5671Z" fill="#F6F8FF"/>
<path d="M19.0531 19.154C16.1398 19.154 15.5187 18.4563 15.3343 17.33C15.3136 17.1959 15.2373 17.0727 15.1195 16.9827C15.0016 16.8928 14.85 16.8421 14.6922 16.8399H13.1453C12.9709 16.843 12.8052 16.9053 12.6842 17.0129C12.5633 17.1206 12.497 17.265 12.5 17.4144C12.5 18.3907 12.9 21.5772 19.0562 21.5772C20.9609 21.5772 22.5453 21.1956 23.6367 20.4731C24.7281 19.7506 25.3124 18.6993 25.3124 17.4465C25.3124 14.9322 23.3984 14.2439 19.6289 13.7939C15.7968 13.3373 15.7968 13.1049 15.7968 12.596C15.7968 12.2298 15.7968 11.372 18.5671 11.372C20.5382 11.372 21.5937 11.5856 21.9312 12.7112C21.9611 12.836 22.0398 12.9483 22.1543 13.0295C22.2688 13.1107 22.4123 13.156 22.5609 13.1578H24.1132C24.2047 13.157 24.295 13.1396 24.3779 13.1065C24.4609 13.0735 24.5347 13.0257 24.5945 12.9663C24.7138 12.8469 24.7733 12.6919 24.7601 12.5351C24.5593 10.1547 22.5289 8.94745 18.5695 8.94745C14.9711 8.94745 12.8234 10.3368 12.8234 12.6637C12.8234 15.2148 15.0492 15.9359 18.3929 16.2346C22.2992 16.5808 22.2992 17.0856 22.2992 17.5316C22.3015 18.2266 21.9648 19.154 19.0531 19.154Z" fill="#F6F8FF"/>
</svg>
