<svg width="30" height="30" viewBox="0 0 30 30" fill="none" xmlns="http://www.w3.org/2000/svg">
<path d="M15 11.9942C14.6489 11.9942 14.3012 12.0719 13.9768 12.223C13.6524 12.374 13.3577 12.5953 13.1094 12.8744C12.8611 13.1534 12.6641 13.4847 12.5298 13.8493C12.3954 14.2139 12.3263 14.6047 12.3263 14.9993C12.3263 15.394 12.3954 15.7847 12.5298 16.1493C12.6641 16.5139 12.8611 16.8452 13.1094 17.1243C13.3577 17.4033 13.6524 17.6247 13.9768 17.7757C14.3012 17.9267 14.6489 18.0044 15 18.0044C15.3511 18.0044 15.6988 17.9267 16.0232 17.7757C16.3476 17.6247 16.6423 17.4033 16.8906 17.1243C17.1389 16.8452 17.3359 16.5139 17.4702 16.1493C17.6046 15.7847 17.6737 15.394 17.6737 14.9993C17.6737 14.6047 17.6046 14.2139 17.4702 13.8493C17.3359 13.4847 17.1389 13.1534 16.8906 12.8744C16.6423 12.5953 16.3476 12.374 16.0232 12.223C15.6988 12.0719 15.3511 11.9942 15 11.9942ZM7.51 20.9773L6.92 20.8087C2.5225 19.5597 0 17.4397 0 14.9937C0 12.5477 2.5225 10.4277 6.92 9.17874L7.51 9.01155L7.67625 9.66906C8.12173 11.3939 8.69153 13.0751 9.38 14.6959L9.50625 14.9951L9.38 15.2944C8.69038 16.9146 8.12054 18.5959 7.67625 20.3212L7.51 20.9773ZM6.64625 10.7143C3.30375 11.7694 1.2525 13.3837 1.2525 14.9937C1.2525 16.6023 3.30375 18.2166 6.64625 19.2731C7.05503 17.8119 7.54859 16.3823 8.12375 14.9937C7.54793 13.6054 7.05436 12.1758 6.64625 10.7143ZM22.49 20.9773L22.3237 20.3183C21.8787 18.5936 21.3085 16.9128 20.6188 15.2929L20.4925 14.9937L20.6188 14.6945C21.3082 13.074 21.8784 11.3928 22.3237 9.66765L22.49 9.01015L23.0813 9.17733C27.4775 10.4263 30 12.5463 30 14.9937C30 17.4411 27.4775 19.5597 23.0813 20.8087L22.49 20.9773ZM21.8762 14.9937C22.4762 16.4534 22.9725 17.8878 23.3538 19.2731C26.6975 18.2166 28.7475 16.6023 28.7475 14.9937C28.7475 13.3837 26.6963 11.7708 23.3538 10.7143C22.9455 12.1757 22.4519 13.6053 21.8762 14.9937ZM6.6375 10.7073L6.47125 10.0512C5.235 5.15364 5.61 1.64416 7.5 0.419067C9.35375 -0.783544 12.33 0.636829 15.4488 4.23483L15.8738 4.72515L15.4488 5.21546C14.3406 6.51025 13.3281 7.90432 12.4213 9.38386L12.2525 9.65501L11.9588 9.68311C10.3636 9.82444 8.78136 10.111 7.2275 10.5401L6.6375 10.7073ZM9.0075 1.39268C8.6725 1.39268 8.37625 1.47416 8.12625 1.63573C6.88375 2.44075 6.66375 5.23935 7.52 9.01577C8.85205 8.68271 10.202 8.44759 11.5612 8.3119C12.3455 7.05855 13.2024 5.8646 14.1262 4.73779C12.1762 2.60372 10.33 1.39268 9.0075 1.39268ZM20.9938 29.9996C20.9925 29.9996 20.9925 29.9996 20.9938 29.9996C19.2125 29.9996 16.925 28.4922 14.5512 25.7526L14.1262 25.2623L14.5512 24.7719C15.6591 23.4767 16.6712 22.0822 17.5775 20.6021L17.7462 20.331L18.0387 20.3029C19.6347 20.1623 21.2178 19.8762 22.7725 19.4473L23.3625 19.2801L23.53 19.9376C24.7637 24.8324 24.39 28.3432 22.5 29.5669C22.0409 29.8587 21.5211 30.008 20.9938 29.9996ZM15.8738 25.2496C17.8238 27.3837 19.67 28.5947 20.9925 28.5947C21.3263 28.5947 21.625 28.5132 21.8738 28.3517C23.1163 27.5467 23.3375 24.7467 22.48 20.9702C21.1476 21.3038 19.7972 21.5389 18.4375 21.6741C17.6542 22.9283 16.7977 24.1228 15.8738 25.2496ZM23.3625 10.7073L22.7725 10.5401C21.218 10.1098 19.6348 9.82318 18.0387 9.68311L17.7462 9.65501L17.5775 9.38386C16.6717 7.90385 15.6596 6.50973 14.5512 5.21546L14.1262 4.72515L14.5512 4.23483C17.6687 0.638234 20.6437 -0.782139 22.5 0.419067C24.39 1.64416 24.765 5.15365 23.53 10.0498L23.3625 10.7073ZM18.4375 8.3119C19.865 8.45802 21.2212 8.69545 22.48 9.01577C23.3375 5.23935 23.1163 2.44075 21.8738 1.63573C20.6388 0.833518 18.3175 2.06282 15.8738 4.73779C16.7972 5.86465 17.6536 7.0586 18.4375 8.3119ZM9.0075 29.9996C8.47974 30.0083 7.95945 29.8589 7.5 29.5669C5.61 28.3432 5.235 24.8338 6.47125 19.9376L6.63625 19.2801L7.22625 19.4473C8.67 19.8561 10.2625 20.1441 11.9575 20.3029L12.2512 20.331L12.4188 20.6021C13.3257 22.082 14.3382 23.4765 15.4463 24.7719L15.8712 25.2623L15.4463 25.7526C13.0738 28.4922 10.7862 29.9996 9.0075 29.9996ZM7.52 20.9702C6.6625 24.7467 6.88375 27.5467 8.12625 28.3517C9.36 29.1426 11.68 27.9232 14.1262 25.2496C13.2028 24.122 12.3459 22.9276 11.5612 21.6741C10.2019 21.539 8.85195 21.3039 7.52 20.9702ZM15 21.8525C13.9712 21.8525 12.9138 21.8019 11.855 21.7036L11.5612 21.6755L11.3925 21.4044C10.7936 20.4372 10.2307 19.4426 9.705 18.4231C9.1809 17.4028 8.69465 16.3585 8.2475 15.2929L8.12375 14.9937L8.2475 14.6945C8.69459 13.6288 9.18084 12.5846 9.705 11.5643C10.2225 10.5584 10.7913 9.55526 11.3925 8.58305L11.5612 8.3119L11.855 8.28381C13.9483 8.08431 16.0529 8.08431 18.1463 8.28381L18.4388 8.3119L18.6063 8.58305C19.8052 10.5177 20.8577 12.562 21.7525 14.6945L21.8788 14.9937L21.7525 15.2929C20.8598 17.4266 19.8073 19.4711 18.6063 21.4044L18.4388 21.6755L18.1463 21.7036C17.0875 21.8019 16.0288 21.8525 15 21.8525ZM12.2538 20.3296C14.1038 20.4855 15.8963 20.4855 17.7475 20.3296C18.781 18.6314 19.6987 16.8477 20.4925 14.9937C19.7001 13.1386 18.7819 11.3547 17.7462 9.65782C15.918 9.50187 14.082 9.50187 12.2538 9.65782C11.2176 11.3544 10.2995 13.1383 9.5075 14.9937C10.3022 16.8474 11.2202 18.6311 12.2538 20.3296Z" fill="#F6F8FF"/>
</svg>
