<svg width="30" height="30" viewBox="0 0 30 30" fill="none" xmlns="http://www.w3.org/2000/svg">
<path d="M10 26.75C12.0429 26.75 13.8648 25.6419 15.2399 23.8944L16.4219 25.6675C14.6978 28.0868 12.4311 29.5 10 29.5C7.45777 29.5 5.095 27.9543 3.34496 25.3293C1.59724 22.7077 0.5 19.0572 0.5 15C0.5 10.9428 1.59724 7.29233 3.34496 4.67075C5.09501 2.04567 7.45777 0.5 10 0.5C12.4741 0.5 14.7784 1.96414 16.5132 4.46215L15.3353 6.22889C13.9493 4.41001 12.0906 3.25 10 3.25C7.70974 3.25 5.6975 4.64246 4.28067 6.7677C2.86152 8.89643 2 11.8085 2 15C2 18.1915 2.86152 21.1036 4.28067 23.2323C5.6975 25.3575 7.70974 26.75 10 26.75Z" fill="#F6F8FF" stroke="#F8F9FF"/>
<path d="M16.25 13.625H16.75V13.125V9.875H18.25V13.125V13.625H18.75H20.75V16.375H18.75H18.25V16.875V20.125H16.75V16.875V16.375H16.25H14.25V13.625H16.25Z" fill="#F6F8FF" stroke="#F8F9FF"/>
<path d="M25.5 13.125V9.875H27V13.125V13.625H27.5H29.5V16.375H27.5H27V16.875V20.125H25.5V16.875V16.375H25H23V13.625H25H25.5V13.125Z" fill="#F6F8FF" stroke="#F8F9FF"/>
</svg>
