<svg width="30" height="30" viewBox="0 0 30 30" fill="none" xmlns="http://www.w3.org/2000/svg">
<path d="M15.2587 23.0212C13.9051 25.0181 12.0485 26.25 10 26.25C5.85786 26.25 2.5 21.2132 2.5 15C2.5 8.78679 5.85786 3.75 10 3.75C12.0936 3.75 13.987 5.03681 15.3475 7.11193L17.1154 4.46021C15.3022 1.70651 12.784 0 10 0C4.47715 0 0 6.71572 0 15C0 23.2843 4.47715 30 10 30C12.7389 30 15.2205 28.3485 17.0265 25.6731L15.2587 23.0212Z" fill="#F6F8FF"/>
<path d="M18.75 9.375H16.25V13.125H13.75V16.875H16.25V20.625H18.75V16.875H21.25V13.125H18.75V9.375Z" fill="#F6F8FF"/>
<path d="M25 9.375H27.5V13.125H30V16.875H27.5V20.625H25V16.875H22.5V13.125H25V9.375Z" fill="#F6F8FF"/>
</svg>
