<svg width="30" height="30" viewBox="0 0 30 30" fill="none" xmlns="http://www.w3.org/2000/svg">
<path d="M27.5697 21.9333C29.3248 21.9333 30 23.2438 30 24.0798C30 25.6325 24.7674 30 17.1451 30C6.43136 30 0 22.0957 0 14.9698C0 8.00492 6.24147 0 17.1451 0C24.9182 0 30 4.43659 30 5.92015C30 6.74346 29.2555 8.06799 27.4986 8.06799C25.0511 8.06799 23.9195 4.29367 17.1443 4.29367C9.48685 4.29367 5.00052 9.96958 5.00052 14.9691C5.00052 19.9365 9.40948 25.705 17.1443 25.705C24.0141 25.7043 25.1081 21.9333 27.5697 21.9333Z" fill="#F6F8FF"/>
</svg>
