<svg width="30" height="30" viewBox="0 0 30 30" fill="none" xmlns="http://www.w3.org/2000/svg">
<path d="M29.0299 11.9225L29.0311 11.9236L29.4242 12.2993C29.318 12.6128 29.1852 13.0031 29.1406 13.1092L29.1361 13.1199L29.1321 13.1309C28.6166 14.5383 27.8815 15.1928 27.2078 15.5112C26.5152 15.8386 25.8246 15.8422 25.3355 15.8291L24.9494 15.8188L24.8419 16.1898C23.5835 20.5334 21.621 23.8598 19.1024 26.0971C16.5905 28.3286 13.5003 29.5 9.92949 29.5C6.69968 29.5 4.25674 28.1012 2.60728 25.3135C0.958211 22.52 0.274287 18.4623 0.56495 15.2155H20.4836C21.6818 15.2439 22.5902 14.7604 23.0638 14.395L23.378 14.1525L23.2131 13.7914C22.794 12.8737 22.626 11.6861 22.6749 10.4845C22.7238 9.28472 22.987 8.11975 23.3854 7.25998L23.5278 6.95372L23.6661 7.08489C24.7327 8.26373 25.3092 9.55876 25.4526 11.0477L25.5092 11.6361L26.0801 11.4826C26.6021 11.3423 27.2182 11.3209 27.7796 11.4107C28.3528 11.5023 28.7961 11.6975 29.0299 11.9225ZM15.9025 13.1777H13.8043V10.201H15.9025V13.1777ZM13.8043 0.5H15.9025V3.56382H13.8043V0.5ZM17.4696 13.1711V10.1943H19.5679V13.1711H17.4696ZM10.1436 8.39087V5.36722H12.2418V8.39087H10.1436ZM13.8043 5.36722H15.9025V8.39087H13.8043V5.36722ZM2.82688 13.1711V10.1943H4.92511V13.1711H2.82688ZM6.48289 13.1711V10.1943H8.58111V13.1711H6.48289ZM10.1436 13.1711V10.1943H12.2418V13.1711H10.1436ZM6.48289 8.39087V5.36722H8.58111V8.39087H6.48289Z" fill="#F6F8FF" stroke="#F8F9FF"/>
</svg>
