<svg width="30" height="30" viewBox="0 0 30 30" fill="none" xmlns="http://www.w3.org/2000/svg">
<path d="M16.4025 13.6777H13.3043V9.70096H16.4025V13.6777ZM16.4025 0H13.3043V4.06382H16.4025V0ZM20.0679 9.69426H16.9696V13.6711H20.0679V9.69426ZM12.7418 4.86722H9.64357V8.89087H12.7418V4.86722ZM16.4025 4.86722H13.3043V8.89087H16.4025V4.86722ZM29.3766 11.5622C28.7017 10.9127 27.1455 10.6784 25.9503 10.9998C25.7956 9.39299 25.1675 7.99375 24.0238 6.7351L23.3676 6.11247L22.9317 7.04977C22.0693 8.91096 21.8349 11.9772 22.7583 13.9991C22.3505 14.3138 21.549 14.7422 20.4897 14.7155H0.114535C-0.293249 18.1165 0.386392 22.5351 2.1769 25.568C3.91584 28.507 6.52191 30 9.92949 30C17.3071 30 22.7677 25.1462 25.3222 16.3289C26.3253 16.3557 28.4907 16.3356 29.6016 13.3028C29.6719 13.1355 29.9109 12.4191 30 12.158L29.3766 11.5622ZM5.42042 9.69426H2.32688V13.6711H5.42511V9.69426H5.42042ZM9.08111 9.69426H5.98289V13.6711H9.08111V9.69426ZM12.7418 9.69426H9.64357V13.6711H12.7418V9.69426ZM9.08111 4.86722H5.98289V8.89087H9.08111V4.86722Z" fill="#F6F8FF"/>
</svg>
