<svg width="32" height="32" viewBox="0 0 32 32" fill="none" xmlns="http://www.w3.org/2000/svg">
<path d="M23.4999 20.9998C27.642 20.9998 30.9999 18.7612 30.9999 15.9998C30.9999 13.2383 27.642 10.9998 23.4999 10.9998C19.3578 10.9998 16 13.2383 16 15.9998C16 18.7612 19.3578 20.9998 23.4999 20.9998Z" stroke="#F6F8FF" stroke-width="2" stroke-linecap="round" stroke-linejoin="round"/>
<path fill-rule="evenodd" clip-rule="evenodd" d="M15.9999 10.9999V1H8.49995C4.35784 1 1 3.23858 1 6C1 8.76142 4.35784 11 8.49995 11L15.9999 10.9999Z" stroke="#F6F8FF" stroke-width="2" stroke-linecap="round" stroke-linejoin="round"/>
<path fill-rule="evenodd" clip-rule="evenodd" d="M15.9999 20.9996V10.9998H8.49995C4.35784 10.9998 1 13.2383 1 15.9998C1 18.7612 4.35784 20.9998 8.49995 20.9998L15.9999 20.9996Z" stroke="#F6F8FF" stroke-width="2" stroke-linecap="round" stroke-linejoin="round"/>
<path fill-rule="evenodd" clip-rule="evenodd" d="M16 10.9999V1H23.4999C27.642 1 30.9999 3.23858 30.9999 6C30.9999 8.76142 27.642 11 23.4999 11L16 10.9999Z" stroke="#F6F8FF" stroke-width="2" stroke-linecap="round" stroke-linejoin="round"/>
<path fill-rule="evenodd" clip-rule="evenodd" d="M16.0001 20.9998V25.9998C16.0001 28.0221 14.1729 29.8453 11.3703 30.6193C8.5678 31.3932 5.34193 30.9654 3.19694 29.5354C1.05195 28.1055 0.410266 25.9549 1.57111 24.0865C2.73195 22.2181 5.46671 20.9999 8.50016 20.9999L16.0001 20.9998Z" stroke="#F6F8FF" stroke-width="2" stroke-linecap="round" stroke-linejoin="round"/>
</svg>
