<svg width="30" height="30" viewBox="0 0 30 30" fill="none" xmlns="http://www.w3.org/2000/svg">
<mask id="path-1-inside-1_101_71" fill="white">
<path d="M29.4329 13.6631L16.3336 0.565998C16.1542 0.38656 15.9413 0.244217 15.7069 0.147102C15.4725 0.0499858 15.2213 0 14.9676 0C14.7139 0 14.4626 0.0499858 14.2283 0.147102C13.9939 0.244217 13.7809 0.38656 13.6016 0.565998L10.8827 3.2848L14.3329 6.73486C14.7398 6.59593 15.1775 6.5742 15.5962 6.67213C16.0148 6.77007 16.3975 6.98373 16.7006 7.28873C17.0036 7.59373 17.2148 7.97778 17.3101 8.39705C17.4053 8.81632 17.3808 9.25392 17.2392 9.65991L20.5638 12.9862C21.0556 12.813 21.5918 12.8125 22.084 12.9847C22.5762 13.1569 22.995 13.4916 23.2716 13.9337C23.5482 14.3757 23.666 14.8988 23.6057 15.4167C23.5453 15.9346 23.3103 16.4166 22.9395 16.7832C22.5641 17.1609 22.0691 17.3965 21.5393 17.4499C21.0094 17.5032 20.4774 17.371 20.0343 17.0757C19.5911 16.7804 19.2642 16.3403 19.1094 15.8308C18.9546 15.3212 18.9815 14.7738 19.1856 14.2819L16.0861 11.1806V19.3426C16.5572 19.5758 16.9342 19.9634 17.1541 20.4408C17.3741 20.9183 17.4238 21.4567 17.2949 21.9663C17.1661 22.476 16.8664 22.926 16.4459 23.2415C16.0255 23.557 15.5095 23.7189 14.9842 23.7001C14.4588 23.6813 13.9558 23.4831 13.5589 23.1384C13.162 22.7937 12.8952 22.3234 12.803 21.8059C12.7108 21.2884 12.7988 20.7549 13.0523 20.2943C13.3058 19.8338 13.7094 19.4741 14.196 19.2751V11.0381C13.9153 10.923 13.6601 10.7536 13.4452 10.5395C13.2302 10.3254 13.0598 10.0708 12.9437 9.79056C12.8276 9.51029 12.7682 9.2098 12.7688 8.90644C12.7694 8.60307 12.83 8.30283 12.9472 8.023L9.54765 4.62169L0.566012 13.6031C0.38657 13.7825 0.244224 13.9954 0.147105 14.2298C0.0499871 14.4641 0 14.7154 0 14.9691C0 15.2228 0.0499871 15.474 0.147105 15.7084C0.244224 15.9427 0.38657 16.1557 0.566012 16.335L13.6653 29.434C13.8447 29.6134 14.0576 29.7558 14.292 29.8529C14.5264 29.95 14.7776 30 15.0313 30C15.285 30 15.5363 29.95 15.7706 29.8529C16.005 29.7558 16.218 29.6134 16.3973 29.434L29.4348 16.3969C29.7967 16.0344 30 15.5432 30 15.0309C30 14.5187 29.7967 14.0274 29.4348 13.665"/>
</mask>
<path d="M29.4329 13.6631L16.3336 0.565998C16.1542 0.38656 15.9413 0.244217 15.7069 0.147102C15.4725 0.0499858 15.2213 0 14.9676 0C14.7139 0 14.4626 0.0499858 14.2283 0.147102C13.9939 0.244217 13.7809 0.38656 13.6016 0.565998L10.8827 3.2848L14.3329 6.73486C14.7398 6.59593 15.1775 6.5742 15.5962 6.67213C16.0148 6.77007 16.3975 6.98373 16.7006 7.28873C17.0036 7.59373 17.2148 7.97778 17.3101 8.39705C17.4053 8.81632 17.3808 9.25392 17.2392 9.65991L20.5638 12.9862C21.0556 12.813 21.5918 12.8125 22.084 12.9847C22.5762 13.1569 22.995 13.4916 23.2716 13.9337C23.5482 14.3757 23.666 14.8988 23.6057 15.4167C23.5453 15.9346 23.3103 16.4166 22.9395 16.7832C22.5641 17.1609 22.0691 17.3965 21.5393 17.4499C21.0094 17.5032 20.4774 17.371 20.0343 17.0757C19.5911 16.7804 19.2642 16.3403 19.1094 15.8308C18.9546 15.3212 18.9815 14.7738 19.1856 14.2819L16.0861 11.1806V19.3426C16.5572 19.5758 16.9342 19.9634 17.1541 20.4408C17.3741 20.9183 17.4238 21.4567 17.2949 21.9663C17.1661 22.476 16.8664 22.926 16.4459 23.2415C16.0255 23.557 15.5095 23.7189 14.9842 23.7001C14.4588 23.6813 13.9558 23.4831 13.5589 23.1384C13.162 22.7937 12.8952 22.3234 12.803 21.8059C12.7108 21.2884 12.7988 20.7549 13.0523 20.2943C13.3058 19.8338 13.7094 19.4741 14.196 19.2751V11.0381C13.9153 10.923 13.6601 10.7536 13.4452 10.5395C13.2302 10.3254 13.0598 10.0708 12.9437 9.79056C12.8276 9.51029 12.7682 9.2098 12.7688 8.90644C12.7694 8.60307 12.83 8.30283 12.9472 8.023L9.54765 4.62169L0.566012 13.6031C0.38657 13.7825 0.244224 13.9954 0.147105 14.2298C0.0499871 14.4641 0 14.7154 0 14.9691C0 15.2228 0.0499871 15.474 0.147105 15.7084C0.244224 15.9427 0.38657 16.1557 0.566012 16.335L13.6653 29.434C13.8447 29.6134 14.0576 29.7558 14.292 29.8529C14.5264 29.95 14.7776 30 15.0313 30C15.285 30 15.5363 29.95 15.7706 29.8529C16.005 29.7558 16.218 29.6134 16.3973 29.434L29.4348 16.3969C29.7967 16.0344 30 15.5432 30 15.0309C30 14.5187 29.7967 14.0274 29.4348 13.665" fill="#F6F8FF"/>
<path d="M16.3336 0.565998L15.6263 1.27294L15.6265 1.27316L16.3336 0.565998ZM14.9676 0L14.9676 -1L14.9676 0ZM13.6016 0.565998L14.3087 1.27311L14.3088 1.27294L13.6016 0.565998ZM10.8827 3.2848L10.1756 2.57768L9.46848 3.2848L10.1756 3.99191L10.8827 3.2848ZM14.3329 6.73486L13.6258 7.44197L14.0663 7.88253L14.656 7.68122L14.3329 6.73486ZM17.2392 9.65991L16.295 9.33071L16.0884 9.9231L16.5319 10.3668L17.2392 9.65991ZM20.5638 12.9862L19.8565 13.6931L20.3017 14.1386L20.8959 13.9295L20.5638 12.9862ZM22.9395 16.7832L22.2364 16.0719L22.2302 16.0782L22.9395 16.7832ZM19.1856 14.2819L20.1093 14.665L20.3653 14.0477L19.8929 13.575L19.1856 14.2819ZM16.0861 11.1806L16.7934 10.4737L15.0861 8.76536V11.1806H16.0861ZM16.0861 19.3426H15.0861V19.9634L15.6424 20.2388L16.0861 19.3426ZM14.196 19.2751L14.5745 20.2007L15.196 19.9465V19.2751H14.196ZM14.196 11.0381H15.196V10.3671L14.5751 10.1127L14.196 11.0381ZM12.9472 8.023L13.8696 8.40926L14.1287 7.79053L13.6545 7.31608L12.9472 8.023ZM9.54765 4.62169L10.2549 3.91477L9.54785 3.2073L8.84055 3.91458L9.54765 4.62169ZM0.566012 13.6031L1.27294 14.3104L1.27311 14.3102L0.566012 13.6031ZM0 14.9691L-1 14.9691L0 14.9691ZM0.566012 16.335L1.27311 15.6279L1.27293 15.6277L0.566012 16.335ZM13.6653 29.434L14.3726 28.7271L14.3724 28.7269L13.6653 29.434ZM16.3973 29.434L15.6902 28.7269L15.6901 28.7271L16.3973 29.434ZM29.4348 16.3969L30.1419 17.104L30.1424 17.1035L29.4348 16.3969ZM30.1399 12.9559L17.0406 -0.141169L15.6265 1.27316L28.7258 14.3703L30.1399 12.9559ZM17.0408 -0.140944C16.7686 -0.41329 16.4454 -0.629334 16.0897 -0.776734L15.3241 1.07094C15.4371 1.11777 15.5398 1.18641 15.6263 1.27294L17.0408 -0.140944ZM16.0897 -0.776734C15.7339 -0.924134 15.3526 -1 14.9676 -1L14.9676 1C15.0899 1 15.2111 1.02411 15.3241 1.07094L16.0897 -0.776734ZM14.9676 -1C14.5825 -1 14.2012 -0.924133 13.8455 -0.776734L14.6111 1.07094C14.7241 1.0241 14.8452 1 14.9676 1L14.9676 -1ZM13.8455 -0.776734C13.4897 -0.629335 13.1665 -0.413291 12.8943 -0.140944L14.3088 1.27294C14.3953 1.18641 14.498 1.11777 14.6111 1.07094L13.8455 -0.776734ZM12.8945 -0.141118L10.1756 2.57768L11.5898 3.99191L14.3087 1.27311L12.8945 -0.141118ZM10.1756 3.99191L13.6258 7.44197L15.04 6.02774L11.5898 2.57768L10.1756 3.99191ZM14.656 7.68122C14.8854 7.60287 15.1323 7.59062 15.3684 7.64585L15.824 5.69842C15.2227 5.55778 14.5941 5.58899 14.0098 5.78849L14.656 7.68122ZM15.3684 7.64585C15.6045 7.70108 15.8203 7.82157 15.9912 7.99357L17.41 6.58389C16.9748 6.14589 16.4252 5.83906 15.824 5.69842L15.3684 7.64585ZM15.9912 7.99357C16.1621 8.16556 16.2812 8.38214 16.3349 8.61857L18.2852 8.17553C18.1485 7.57342 17.8452 7.02189 17.41 6.58389L15.9912 7.99357ZM16.3349 8.61857C16.3886 8.855 16.3748 9.10176 16.295 9.33071L18.1835 9.98911C18.3868 9.40607 18.422 8.77764 18.2852 8.17553L16.3349 8.61857ZM16.5319 10.3668L19.8565 13.6931L21.2711 12.2793L17.9465 8.95299L16.5319 10.3668ZM20.8959 13.9295C21.1734 13.8317 21.476 13.8314 21.7537 13.9286L22.4142 12.0408C21.7076 11.7936 20.9378 11.7943 20.2317 12.043L20.8959 13.9295ZM21.7537 13.9286C22.0315 14.0258 22.2678 14.2147 22.4239 14.4641L24.1194 13.4032C23.7223 12.7686 23.1209 12.2881 22.4142 12.0408L21.7537 13.9286ZM22.4239 14.4641C22.58 14.7135 22.6464 15.0087 22.6124 15.3009L24.5989 15.5325C24.6856 14.7889 24.5165 14.0379 24.1194 13.4032L22.4239 14.4641ZM22.6124 15.3009C22.5783 15.5932 22.4457 15.8651 22.2365 16.072L23.6425 17.4943C24.1749 16.968 24.5122 16.2761 24.5989 15.5325L22.6124 15.3009ZM22.2302 16.0782C22.0181 16.2916 21.7385 16.4248 21.4391 16.4549L21.6394 18.4448C22.3998 18.3683 23.11 18.0301 23.6487 17.4881L22.2302 16.0782ZM21.4391 16.4549C21.1397 16.485 20.8391 16.4103 20.5888 16.2435L19.4798 17.9078C20.1157 18.3316 20.8791 18.5214 21.6394 18.4448L21.4391 16.4549ZM20.5888 16.2435C20.3384 16.0766 20.1537 15.828 20.0662 15.5401L18.1526 16.1215C18.3747 16.8527 18.8438 17.4841 19.4798 17.9078L20.5888 16.2435ZM20.0662 15.5401C19.9788 15.2523 19.994 14.9429 20.1093 14.665L18.2619 13.8987C17.9691 14.6046 17.9304 15.3902 18.1526 16.1215L20.0662 15.5401ZM19.8929 13.575L16.7934 10.4737L15.3787 11.8875L18.4783 14.9888L19.8929 13.575ZM15.0861 11.1806V19.3426H17.0861V11.1806H15.0861ZM15.6424 20.2388C15.9086 20.3706 16.1216 20.5896 16.2459 20.8593L18.0624 20.0224C17.7467 19.3372 17.2057 18.781 16.5297 18.4464L15.6424 20.2388ZM16.2459 20.8593C16.3702 21.129 16.3983 21.4332 16.3255 21.7212L18.2644 22.2115C18.4494 21.4801 18.378 20.7075 18.0624 20.0224L16.2459 20.8593ZM16.3255 21.7212C16.2526 22.0091 16.0833 22.2634 15.8458 22.4416L17.0461 24.0414C17.6495 23.5887 18.0795 22.9428 18.2644 22.2115L16.3255 21.7212ZM15.8458 22.4416C15.6082 22.6199 15.3167 22.7113 15.0199 22.7007L14.9485 24.6995C15.7024 24.7264 16.4427 24.4941 17.0461 24.0414L15.8458 22.4416ZM15.0199 22.7007C14.723 22.6901 14.4388 22.5781 14.2146 22.3834L12.9032 23.8934C13.4727 24.3881 14.1946 24.6725 14.9485 24.6995L15.0199 22.7007ZM14.2146 22.3834C13.9903 22.1886 13.8396 21.9229 13.7875 21.6305L11.8185 21.9813C11.9508 22.7239 12.3336 23.3988 12.9032 23.8934L14.2146 22.3834ZM13.7875 21.6305C13.7354 21.3381 13.7851 21.0367 13.9283 20.7765L12.1762 19.8122C11.8125 20.473 11.6862 21.2386 11.8185 21.9813L13.7875 21.6305ZM13.9283 20.7765C14.0716 20.5163 14.2996 20.3131 14.5745 20.2007L13.8174 18.3495C13.1192 18.6351 12.54 19.1513 12.1762 19.8122L13.9283 20.7765ZM15.196 19.2751V11.0381H13.196V19.2751H15.196ZM14.5751 10.1127C14.4165 10.0477 14.2723 9.95199 14.1509 9.83103L12.7394 11.2479C13.0478 11.5552 13.414 11.7983 13.8168 11.9634L14.5751 10.1127ZM14.1509 9.83103C14.0295 9.71006 13.9332 9.56625 13.8676 9.4079L12.0198 10.1732C12.1864 10.5754 12.431 10.9407 12.7394 11.2479L14.1509 9.83103ZM13.8676 9.4079C13.802 9.24955 13.7684 9.07978 13.7688 8.90839L11.7688 8.90449C11.7679 9.33983 11.8533 9.77103 12.0198 10.1732L13.8676 9.4079ZM13.7688 8.90839C13.7691 8.73699 13.8034 8.56736 13.8696 8.40926L12.0248 7.63674C11.8566 8.03829 11.7696 8.46916 11.7688 8.90449L13.7688 8.90839ZM13.6545 7.31608L10.2549 3.91477L8.84036 5.32861L12.2399 8.72992L13.6545 7.31608ZM8.84055 3.91458L-0.141086 12.896L1.27311 14.3102L10.2547 5.32881L8.84055 3.91458ZM-0.140911 12.8958C-0.413265 13.168 -0.629317 13.4912 -0.776723 13.847L1.07093 14.6126C1.11776 14.4996 1.18641 14.3969 1.27293 14.3104L-0.140911 12.8958ZM-0.776723 13.847C-0.924129 14.2027 -1 14.584 -1 14.9691L1 14.9691C1 14.8467 1.0241 14.7256 1.07093 14.6126L-0.776723 13.847ZM-1 14.9691C-1 15.3541 -0.924129 15.7354 -0.776723 16.0912L1.07093 15.3255C1.0241 15.2125 1 15.0914 1 14.9691L-1 14.9691ZM-0.776723 16.0912C-0.629317 16.4469 -0.413264 16.7701 -0.140911 17.0423L1.27293 15.6277C1.1864 15.5412 1.11776 15.4386 1.07093 15.3255L-0.776723 16.0912ZM-0.141086 17.0421L12.9582 30.1411L14.3724 28.7269L1.27311 15.6279L-0.141086 17.0421ZM12.9581 30.1409C13.2303 30.4133 13.5535 30.6293 13.9092 30.7767L14.6748 28.9291C14.5618 28.8822 14.4591 28.8136 14.3726 28.7271L12.9581 30.1409ZM13.9092 30.7767C14.265 30.9241 14.6463 31 15.0313 31V29C14.909 29 14.7878 28.9759 14.6748 28.9291L13.9092 30.7767ZM15.0313 31C15.4164 31 15.7977 30.9241 16.1534 30.7767L15.3878 28.9291C15.2748 28.9759 15.1537 29 15.0313 29V31ZM16.1534 30.7767C16.5092 30.6293 16.8324 30.4133 17.1046 30.1409L15.6901 28.7271C15.6036 28.8136 15.5009 28.8822 15.3878 28.9291L16.1534 30.7767ZM17.1044 30.1411L30.1419 17.104L28.7277 15.6898L15.6902 28.7269L17.1044 30.1411ZM30.1424 17.1035C30.6915 16.5536 31 15.8081 31 15.0309H29C29 15.2782 28.9019 15.5153 28.7272 15.6903L30.1424 17.1035ZM31 15.0309C31 14.2537 30.6915 13.5083 30.1424 12.9584L28.7272 14.3716C28.9019 14.5465 29 14.7837 29 15.0309H31Z" fill="#F8F9FF" mask="url(#path-1-inside-1_101_71)"/>
</svg>
