<svg width="30" height="30" viewBox="0 0 30 30" fill="none" xmlns="http://www.w3.org/2000/svg">
<path d="M29.4329 13.6631L16.3336 0.565998C16.1542 0.38656 15.9413 0.244217 15.7069 0.147102C15.4725 0.0499858 15.2213 0 14.9676 0C14.7139 0 14.4626 0.0499858 14.2283 0.147102C13.9939 0.244217 13.7809 0.38656 13.6016 0.565998L10.8827 3.2848L14.3329 6.73486C14.7398 6.59593 15.1775 6.5742 15.5962 6.67213C16.0148 6.77007 16.3975 6.98373 16.7006 7.28873C17.0036 7.59373 17.2148 7.97778 17.3101 8.39705C17.4053 8.81632 17.3808 9.25392 17.2392 9.65991L20.5638 12.9862C21.0556 12.813 21.5918 12.8125 22.084 12.9847C22.5762 13.1569 22.995 13.4916 23.2716 13.9337C23.5482 14.3757 23.666 14.8988 23.6057 15.4167C23.5453 15.9346 23.3103 16.4166 22.9395 16.7832C22.5641 17.1609 22.0691 17.3965 21.5393 17.4499C21.0094 17.5032 20.4774 17.371 20.0343 17.0757C19.5911 16.7804 19.2642 16.3403 19.1094 15.8308C18.9546 15.3212 18.9815 14.7738 19.1856 14.2819L16.0861 11.1806V19.3426C16.5572 19.5758 16.9342 19.9634 17.1541 20.4408C17.3741 20.9183 17.4238 21.4567 17.2949 21.9663C17.1661 22.476 16.8664 22.926 16.4459 23.2415C16.0255 23.557 15.5095 23.7189 14.9842 23.7001C14.4588 23.6813 13.9558 23.4831 13.5589 23.1384C13.162 22.7937 12.8952 22.3234 12.803 21.8059C12.7108 21.2884 12.7988 20.7549 13.0523 20.2943C13.3058 19.8338 13.7094 19.4741 14.196 19.2751V11.0381C13.9153 10.923 13.6601 10.7536 13.4452 10.5395C13.2302 10.3254 13.0598 10.0708 12.9437 9.79056C12.8276 9.51029 12.7682 9.2098 12.7688 8.90644C12.7694 8.60307 12.83 8.30283 12.9472 8.023L9.54765 4.62169L0.566012 13.6031C0.38657 13.7825 0.244224 13.9954 0.147105 14.2298C0.0499871 14.4641 0 14.7154 0 14.9691C0 15.2228 0.0499871 15.474 0.147105 15.7084C0.244224 15.9427 0.38657 16.1557 0.566012 16.335L13.6653 29.434C13.8447 29.6134 14.0576 29.7558 14.292 29.8529C14.5264 29.95 14.7776 30 15.0313 30C15.285 30 15.5363 29.95 15.7706 29.8529C16.005 29.7558 16.218 29.6134 16.3973 29.434L29.4348 16.3969C29.7967 16.0344 30 15.5432 30 15.0309C30 14.5187 29.7967 14.0274 29.4348 13.665" fill="#F6F8FF"/>
</svg>
