<svg width="30" height="30" viewBox="0 0 30 30" fill="none" xmlns="http://www.w3.org/2000/svg">
<path d="M24.0762 9.29357H24.5268L24.5735 8.8453L24.9147 5.56444L24.9721 5.01271H24.4174H5.5827H5.03021L5.08518 5.56246L6.08638 15.575L6.13141 16.0253H6.5839H19.0656L18.6957 19.3948L14.9576 20.28L11.241 19.3955L11.0013 17.1223L10.9541 16.6747H10.504H6.7753H6.22831L6.27731 17.2195L6.74605 22.432L6.77811 22.7885L7.1259 22.8731L14.8392 24.7486L14.8974 24.7628H14.9573H15.0421H15.5421V24.6368L22.809 22.8731L23.1517 22.7899L23.1883 22.4392L24.2546 12.2398L24.3123 11.6878H23.7573H10.4905L10.2656 9.29357H24.0762ZM3.1896 26.5623L0.553132 0.5H29.4469L26.8105 26.5617L14.9577 29.4849L3.1896 26.5623Z" fill="#F6F8FF" stroke="#F8F9FF"/>
</svg>
