<svg width="30" height="30" viewBox="0 0 30 30" fill="none" xmlns="http://www.w3.org/2000/svg">
<path d="M6.532 0.474121H11.5211V18.8361C11.5211 27.1119 8.50148 29.9999 3.67627 29.9999C2.49469 29.9999 0.984829 29.7413 0 29.3103L0.558028 24.0087C1.24734 24.3104 2.13359 24.5259 3.11824 24.5259C5.21895 24.5259 6.532 23.2758 6.532 18.7931V0.474121Z" fill="#F6F8FF"/>
<path d="M15.8529 22.8015C17.1659 23.7067 19.2666 24.6119 21.4001 24.6119C23.6978 24.6119 24.9123 23.362 24.9123 21.4223C24.9123 19.6551 23.862 18.5776 21.2032 17.3706C17.5269 15.6465 15.098 12.9741 15.098 8.70699C15.098 3.75005 18.2819 0 23.468 0C25.9955 0 27.8007 0.64674 29.1138 1.46557L27.9977 6.72413C27.1443 6.16391 25.5359 5.34484 23.4025 5.34484C21.2361 5.34484 20.1857 6.68103 20.1857 8.1466C20.1857 10.0001 21.4001 10.8189 24.2888 12.2846C28.1947 14.1811 30 16.8535 30 20.9914C30 25.862 27.1771 30 21.1048 30C18.5772 30 16.0826 29.0947 14.8354 28.1896L15.8529 22.8015Z" fill="#F6F8FF"/>
</svg>
