<svg width="30" height="30" viewBox="0 0 30 30" fill="none" xmlns="http://www.w3.org/2000/svg">
<path d="M7.032 0.974121H11.0211V18.8361C11.0211 22.9298 10.2712 25.5878 9.0126 27.2156C7.77561 28.8155 5.98306 29.4999 3.67627 29.4999C2.67684 29.4999 1.43752 29.304 0.537044 28.9846L0.987768 24.7024C1.61525 24.9003 2.33912 25.0259 3.11824 25.0259C4.28064 25.0259 5.31647 24.6703 6.02694 23.6208C6.70429 22.6201 7.032 21.0608 7.032 18.7931V0.974121Z" fill="#F6F8FF" stroke="#F8F9FF"/>
<path d="M28.5503 1.712L27.6538 5.93612C26.6828 5.40738 25.2238 4.84484 23.4025 4.84484C22.2139 4.84484 21.2766 5.21373 20.6336 5.83718C19.9927 6.45866 19.6857 7.29371 19.6857 8.1466C19.6857 9.21588 20.0498 10.0152 20.8131 10.7268C21.5379 11.4024 22.6286 12.0029 24.0625 12.7304L24.0625 12.7305L24.0704 12.7343C25.9685 13.656 27.3155 14.7463 28.1919 16.0731C29.0662 17.3967 29.5 18.9979 29.5 20.9914C29.5 23.3346 28.8211 25.4583 27.4563 26.9895C26.0996 28.5115 24.0196 29.5 21.1048 29.5C18.8423 29.5 16.6162 28.7405 15.3876 27.9601L16.2077 23.6175C17.5727 24.4128 19.4634 25.1119 21.4001 25.1119C22.6369 25.1119 23.6515 24.7746 24.3602 24.1089C25.0726 23.4398 25.4123 22.4985 25.4123 21.4223C25.4123 20.4204 25.1072 19.5855 24.4213 18.8463C23.7578 18.1312 22.7575 17.5273 21.4128 16.9167C19.6246 16.0776 18.1743 15.0238 17.1715 13.6917C16.1735 12.3661 15.598 10.7381 15.598 8.70699C15.598 6.33489 16.3589 4.28581 17.7048 2.83466C19.0466 1.38795 21.0022 0.5 23.468 0.5C25.7128 0.5 27.3439 1.02779 28.5503 1.712Z" fill="#F6F8FF" stroke="#F8F9FF"/>
</svg>
