<svg width="30" height="30" viewBox="0 0 30 30" fill="none" xmlns="http://www.w3.org/2000/svg">
<path d="M20.5063 3.03726C20.3625 3.03726 20.265 3.06303 20.1638 3.098V3.12193H20.1813C20.2488 3.31338 20.3637 3.45328 20.4487 3.62448C20.5162 3.82145 20.5738 4.01842 20.6413 4.21355L20.6588 4.18594C20.7763 4.06444 20.8337 3.86931 20.8337 3.57294C20.7837 3.48642 20.7762 3.3999 20.7337 3.31522C20.6837 3.19189 20.5762 3.13114 20.5087 3.03357L20.5063 3.03726ZM7.2125 27.3253H6.05375C6.01625 24.4499 5.9 21.7475 5.71625 19.2072H5.70625L3.94375 27.3253H3.0625L1.3125 19.2072H1.3C1.17125 21.6426 1.09 24.3486 1.05625 27.3253H0C0.06875 23.7062 0.24 20.3117 0.5125 17.1454H1.95L3.61875 24.6266H3.62875L5.3125 17.1454H6.68125C6.98375 20.8547 7.16125 24.2511 7.21625 27.3253H7.2125ZM12.2337 19.8146C11.7612 23.5792 11.1388 26.3183 10.3688 28.0248C9.76625 29.3428 9.10625 30 8.39 30C8.19875 30 7.965 29.9153 7.6825 29.746V28.8366C7.82 28.8679 7.9825 28.8844 8.165 28.8844C8.5 28.8844 8.76875 28.7464 8.97375 28.4758C9.22 28.1444 9.3425 27.7726 9.3425 27.3621C9.3425 27.0767 9.24625 26.4969 9.055 25.6243L7.7875 19.8146H8.925L9.83375 24.159C10.0388 25.1457 10.125 25.8342 10.09 26.2263C10.59 24.2676 10.9375 22.1267 11.1337 19.8146H12.2337ZM27.64 27.3253H24.3525V17.1454H25.4588V26.0735H27.64V27.3253ZM23.49 27.5738L22.22 26.6534C22.3325 26.5135 22.4413 26.3625 22.5388 26.1931C23.08 25.2617 23.3488 23.8774 23.3488 22.0457C23.3488 18.677 22.4513 16.9908 20.655 16.9908C19.775 16.9908 19.0875 17.4179 18.5925 18.2739C18.055 19.209 17.785 20.586 17.785 22.4065C17.785 24.1958 18.0225 25.5102 18.5025 26.3459C18.94 27.1007 19.5988 27.478 20.4813 27.478C20.8113 27.478 21.1138 27.4173 21.3875 27.2976L23.0437 28.7188L23.4938 27.5738H23.49ZM19.375 25.2875C19.0938 24.6248 18.9538 23.5571 18.9538 22.0918C18.9538 19.5275 19.4838 18.2444 20.5413 18.2444C21.095 18.2444 21.5037 18.5518 21.7625 19.1648C22.0425 19.8312 22.1825 20.8879 22.1825 22.3366C22.1825 24.9211 21.6525 26.2171 20.595 26.2171C20.0387 26.2171 19.6325 25.9097 19.3725 25.2967L19.375 25.2875ZM17.3025 24.5051C17.3025 25.3703 17.0875 26.0809 16.6575 26.6331C16.2275 27.1854 15.6538 27.4615 14.9275 27.4615C14.2488 27.4615 13.5975 27.1449 12.9613 26.5135L13.2575 25.6372C13.805 26.0422 14.2987 26.241 14.745 26.241C15.16 26.241 15.4863 26.1066 15.7238 25.836C15.9588 25.5654 16.0987 25.1844 16.0987 24.7039C16.0987 24.0964 15.8112 23.581 15.2887 23.1484C14.8037 22.7563 13.835 21.939 13.835 21.939C13.3075 21.3738 13.045 20.7682 13.045 19.7723C13.045 18.9439 13.2413 18.2812 13.6325 17.775C14.0263 17.2632 14.5325 17.0111 15.1575 17.0111C15.7975 17.0111 16.3825 17.2614 16.9075 17.7658L16.6412 18.642C16.1912 18.3622 15.7475 18.2186 15.3112 18.2186C14.9575 18.2186 14.6838 18.3438 14.4938 18.5979C14.3025 18.8482 14.1838 19.1685 14.1838 19.5625C14.1838 20.1662 14.4762 20.6854 15.0162 21.1272C15.5075 21.5229 16.5 22.3605 16.5 22.3605C17.0412 22.922 17.31 23.5203 17.31 24.5106L17.3025 24.5051ZM29.03 13.7325C28.3613 13.7067 27.8425 13.8062 27.4088 14.0786C27.2838 14.1522 27.0837 14.1522 27.0662 14.386C27.135 14.4836 27.145 14.6437 27.2038 14.78C27.3038 15.0266 27.4762 15.3561 27.6362 15.5292C27.8112 15.7317 27.9862 15.9268 28.17 16.0998C28.495 16.3944 28.8638 16.5692 29.1825 16.8656C29.3638 17.0387 29.5487 17.2577 29.7325 17.4418C29.8237 17.5338 29.8825 17.6995 30 17.7584V17.7216C29.9425 17.6112 29.925 17.451 29.8688 17.3277C29.785 17.2043 29.7012 17.0939 29.6187 16.9724C29.3762 16.4938 29.075 16.0759 28.75 15.7298C28.4825 15.4611 27.8975 15.0855 27.7875 14.6345L27.7712 14.6088C27.9537 14.5848 28.1713 14.4873 28.3463 14.4136C28.63 14.3032 28.89 14.3271 29.1838 14.2185C29.3163 14.1688 29.45 14.1081 29.5837 14.0455V13.935C29.4337 13.7141 29.3213 13.4141 29.1663 13.2079C28.7413 12.6648 28.27 12.1365 27.7863 11.6929C27.5238 11.4462 27.1912 11.2879 26.915 11.078C26.815 11.0044 26.6475 10.9676 26.59 10.8442C26.44 10.5755 26.3525 10.2184 26.2462 9.89806C26.0062 9.22063 25.7713 8.47141 25.5625 7.75716C25.4125 7.27486 25.3213 6.79441 25.1375 6.3526C24.275 4.25957 23.3413 2.99124 21.905 1.75051C21.5963 1.49279 21.2262 1.38234 20.835 1.24612C20.6262 1.23139 20.4175 1.2093 20.21 1.19642C20.0725 1.1099 19.94 0.876113 19.8225 0.763822C19.3475 0.322021 18.1175 -0.635215 17.7675 0.631281C17.5425 1.4302 18.1012 2.21808 18.295 2.62307C18.4387 2.90472 18.62 3.22686 18.72 3.54349C18.7787 3.75702 18.795 3.97608 18.8538 4.19882C18.9863 4.74003 19.1125 5.34382 19.2875 5.85006C19.3788 6.10777 19.4788 6.37838 19.5963 6.61032C19.6638 6.7447 19.7787 6.80729 19.805 7.02819C19.6875 7.27854 19.68 7.64303 19.6125 7.94861C19.3125 9.34212 19.43 11.0651 19.855 12.0905C19.9887 12.3961 20.3075 13.0735 20.7337 12.8139C21.1087 12.593 21.0262 11.8935 21.1337 11.2768C21.1587 11.1296 21.1425 11.032 21.1937 10.9326V10.9602C21.3112 11.3063 21.4288 11.6358 21.5363 11.9819C21.7938 12.5857 22.2438 13.2116 22.62 13.6294C22.82 13.8503 22.9788 14.2332 23.2288 14.3694V14.3326H23.21C23.1563 14.2259 23.085 14.1743 23.0175 14.0878C22.8675 13.8669 22.6987 13.5963 22.58 13.3515C22.23 12.6575 21.9212 11.8972 21.6462 11.1093C21.5087 10.7228 21.3938 10.3067 21.2838 9.92567C21.2338 9.7784 21.2338 9.5575 21.15 9.48387C21.025 9.75263 20.8413 9.98642 20.75 10.3178C20.5913 10.8479 20.575 11.4996 20.515 12.177C20.4813 12.1899 20.4975 12.177 20.4813 12.2028C20.2138 12.1071 20.1225 11.6984 20.0225 11.356C19.7725 10.4816 19.7313 9.07704 19.9475 8.0701C20.0063 7.81239 20.2562 6.99874 20.1562 6.75207C20.1038 6.51828 19.9388 6.3839 19.8475 6.19429C19.7388 5.96603 19.6225 5.66965 19.5475 5.40825C19.3475 4.71978 19.2475 3.95767 19.03 3.2692C18.93 2.95074 18.755 2.61754 18.6125 2.32485C18.4538 1.9935 18.2788 1.75971 18.1525 1.36762C18.1113 1.23324 18.0525 1.01049 18.1187 0.863227C18.1362 0.763822 18.1712 0.725165 18.2362 0.697552C18.3462 0.565012 18.655 0.73805 18.7637 0.811684C19.0725 0.995767 19.3325 1.16881 19.5913 1.42652C19.7088 1.54802 19.835 1.7818 19.985 1.84255H20.16C20.4275 1.92907 20.7288 1.86832 20.9788 1.97693C21.4225 2.18679 21.8225 2.49237 22.1813 2.82372C23.2763 3.84722 24.1762 5.29965 24.7875 7.03187C24.8875 7.31536 24.9312 7.57492 25.0225 7.86945C25.1975 8.47693 25.4137 9.08993 25.5912 9.67716C25.7662 10.257 25.935 10.8479 26.1862 11.3284C26.3112 11.5861 26.8138 11.7205 27.0388 11.8549C27.205 11.9653 27.4637 12.0666 27.6137 12.2009C27.9012 12.4587 28.1812 12.7532 28.4512 13.0367C28.5887 13.1766 29.005 13.484 29.03 13.7325Z" fill="#F6F8FF"/>
</svg>
