<svg width="30" height="30" viewBox="0 0 30 30" fill="none" xmlns="http://www.w3.org/2000/svg">
<path d="M8.7625 10.7382H7.5825L6.93875 17.0305H7.98625C8.68125 17.0305 9.19875 16.781 9.53875 16.2844C9.87875 15.7853 10.1075 14.956 10.2262 13.7917C10.3412 12.6749 10.2888 11.8859 10.0713 11.4273C9.8525 10.9687 9.4175 10.7382 8.7625 10.7382ZM15 0C6.71625 0 0 6.71525 0 14.9988C0 23.2824 6.71625 30 15 30C23.2837 30 30 23.2824 30 14.9988C30 6.71525 23.2837 0 15 0ZM10.925 17.7053C10.5987 18.2994 10.2062 18.7461 9.77875 19.0147C9.35875 19.2713 8.8225 19.4044 8.1725 19.4044H6.69625L6.2875 23.3988H4.565L6.1025 8.36673H9.415C10.4113 8.36673 11.1375 8.86337 11.595 9.85901C12.0525 10.8523 12.19 12.24 12.0075 14.0222C11.9376 14.7274 11.8089 15.4068 11.6262 16.0349C11.4475 16.6408 11.2137 17.1992 10.925 17.7053ZM15.955 19.4044L16.6338 12.7533C16.7125 11.9976 16.6825 11.4796 16.5488 11.2063C16.415 10.9307 16.1288 10.7929 15.69 10.7929H14.325L13.445 19.4067H11.735L13.2725 4.37228H14.9812L14.5725 8.36911H16.095C17.0538 8.36911 17.7137 8.68752 18.0775 9.32198C18.4412 9.95644 18.55 10.9853 18.4063 12.4087L17.6912 19.4044H15.955ZM25.4513 14.0222C25.3825 14.728 25.2537 15.4078 25.07 16.0349C24.8912 16.6408 24.6575 17.1992 24.3688 17.7053C24.0423 18.2976 23.6508 18.7448 23.2225 19.0147C22.8025 19.2713 22.2662 19.4044 21.615 19.4044H20.14L19.7312 23.4012H18.0087L19.5463 8.36911H22.8575C23.8537 8.36911 24.58 8.86574 25.0375 9.86139C25.495 10.8523 25.6338 12.24 25.4513 14.0222ZM22.2075 10.7382H21.0287L20.3837 17.0305H21.4313C22.1275 17.0305 22.645 16.781 22.9837 16.2844C23.3237 15.7853 23.5525 14.956 23.6725 13.7917C23.7875 12.6749 23.7337 11.8859 23.5162 11.4273C23.2987 10.9687 22.8613 10.7382 22.2075 10.7382Z" fill="#F6F8FF"/>
</svg>
