<svg width="30" height="30" viewBox="0 0 30 30" fill="none" xmlns="http://www.w3.org/2000/svg">
<path d="M14.9999 0C7.46858 5.99999e-06 1.3633 2.13665 1.3634 4.7723C1.36355 7.4079 7.46874 9.54446 14.9999 9.54446C17.584 9.54447 20.0002 9.29293 22.0595 8.85599C22.4338 8.41742 22.8516 7.98757 23.3209 7.57601C23.3065 7.58697 23.3932 7.49918 23.4234 7.4055C23.472 7.2547 23.499 7.11942 23.499 7.11942C23.5597 6.80217 23.7322 6.51721 23.9851 6.31626C24.238 6.1153 24.5545 6.01166 24.8773 6.02416C25.1262 6.03378 25.3677 6.1121 25.5748 6.25044C25.782 6.38878 25.9469 6.58175 26.0512 6.80799C26.0512 6.80799 26.1921 7.09641 26.354 7.4159C27.7956 6.65911 28.6365 5.75008 28.6365 4.7723C28.6311 4.67516 28.6172 4.57809 28.5949 4.48124C28.5734 4.3583 28.5383 4.2357 28.4897 4.11371C27.5517 1.75744 21.7979 0.00282824 14.9999 0ZM23.4959 7.42469C23.3906 7.5136 23.3451 7.55507 23.3288 7.56912C23.384 7.5208 23.4393 7.47249 23.4959 7.42469ZM1.3634 7.48534V11.6043C1.38636 14.2341 7.484 16.3617 14.9984 16.362C16.2546 16.362 17.4696 16.3014 18.6248 16.1902C18.7505 15.2962 18.9762 14.409 19.3291 13.5618C19.7134 12.6392 20.1967 11.5516 20.8931 10.4465C19.0857 10.7369 17.097 10.8946 14.9999 10.8946C11.1066 10.8946 7.58133 10.3553 4.91153 9.42098C3.57664 8.95381 2.45064 8.39498 1.57449 7.67005C1.50254 7.61052 1.4325 7.54843 1.3634 7.48534ZM28.6365 7.48534C28.5674 7.54843 28.4974 7.61052 28.4254 7.67005C28.0226 8.00337 27.5663 8.3012 27.0618 8.57151C27.4825 9.06784 28.0743 9.61653 28.6365 10.3678V7.48534ZM24.7268 9.9596C23.2581 11.3932 22.4554 13.0779 21.8215 14.5999C21.6678 14.969 21.5488 15.371 21.4594 15.7932C22.1513 15.6626 22.8054 15.5109 23.419 15.342L23.4447 14.3089C23.4539 13.962 23.5963 13.632 23.8424 13.3874C24.0884 13.1427 24.4192 13.0022 24.7661 12.995C25.113 12.9877 25.4494 13.1143 25.7054 13.3484C25.9615 13.5826 26.1176 13.9063 26.1413 14.2525L26.147 14.3384C26.6288 14.0996 27.0492 13.8446 27.4008 13.5761C27.1802 13.1071 26.9363 12.6613 26.6597 12.2461C26.2444 11.6227 25.4545 10.9599 24.7268 9.9596ZM1.3634 14.3042V18.4352C1.38636 21.0649 7.484 23.1925 14.9984 23.1928C16.5086 23.1928 17.9598 23.1058 19.3176 22.9472C19.3104 22.9261 19.3025 22.9053 19.2954 22.8842C18.7924 21.3833 18.4433 19.4956 18.5071 17.5601C17.3828 17.6599 16.2084 17.7121 14.9984 17.7121C11.1051 17.7121 7.57986 17.1728 4.91007 16.2385C3.57517 15.7713 2.44918 15.2125 1.57302 14.4876C1.50158 14.4285 1.43203 14.3668 1.3634 14.3042ZM27.9313 14.8598C27.4319 15.2059 26.8673 15.5111 26.2434 15.7856L26.5866 20.9368C27.8846 20.2063 28.635 19.3442 28.635 18.4207V19.1393C28.6355 19.1311 28.6361 19.1229 28.6365 19.1147V18.1629C28.5857 17.1538 28.3872 16.1646 28.0492 15.1895C28.0108 15.0786 27.9712 14.969 27.9313 14.8598ZM23.3842 16.7499C22.7158 16.9219 22.0098 17.0729 21.2713 17.201C21.1605 18.9145 21.4241 20.7395 21.8553 22.0262C21.9059 22.1772 21.9769 22.3372 22.0638 22.5032C22.4739 22.4161 22.8684 22.321 23.2487 22.2197L23.3842 16.7499ZM1.3634 21.135V25.2144C1.36288 25.2179 1.36242 25.2213 1.36194 25.2247C1.36209 27.8603 7.46728 29.9969 14.9984 29.9969C18.1402 29.9969 21.0316 29.6241 23.3373 28.9993C23.3356 28.964 23.3347 28.9323 23.3326 28.896C23.3173 28.6249 23.2783 28.3454 23.2469 28.1346C22.5939 27.5984 20.9487 26.16 19.8957 24.24C18.3627 24.4377 16.7166 24.543 14.9984 24.543C11.1051 24.543 7.57986 24.0037 4.91007 23.0693C3.57517 22.6022 2.44918 22.0433 1.57302 21.3184C1.50158 21.2593 1.43203 21.1977 1.3634 21.135ZM28.281 21.433C27.8134 21.7993 27.2796 22.1223 26.6849 22.4121L26.8088 24.2728C27.1449 23.834 27.463 23.3816 27.6511 22.9926C27.9278 22.4202 28.1552 21.9088 28.281 21.433ZM23.2138 23.6233C23.0993 23.6519 22.9852 23.6806 22.8685 23.708C22.9767 23.8469 23.0875 23.9855 23.2015 24.1221L23.2138 23.6233Z" fill="#F8F9FF"/>
<path d="M24.8252 7.37292C24.8252 7.37292 24.6665 8.2033 24.3669 8.45622C22.3077 10.1946 21.2993 12.3428 20.5754 14.0808C19.476 16.7203 19.8155 20.1876 20.5754 22.4552C21.3577 24.7894 24.3608 27.3037 24.4709 27.3954L24.7943 14.3422L25.6626 27.3739L24.4793 27.4062C24.709 28.0325 24.7094 29.7644 24.7094 29.7644L25.328 30C25.3409 28.8677 25.3416 27.8943 25.6804 27.3486L25.7834 27.2465C25.7834 27.2465 26.9975 26.2043 27.5749 25.4966C28.0449 24.9205 28.543 24.2495 28.8665 23.5801C29.1666 22.9594 29.4553 22.334 29.6164 21.6636C29.8885 20.5311 30.0388 19.3692 29.9914 18.2055C29.9432 17.024 29.7138 15.8695 29.3248 14.7474C28.9302 13.6088 28.4514 12.5005 27.7832 11.4976C27.171 10.5787 26.2731 9.87346 25.6584 8.95616C25.3264 8.46075 24.8252 7.37292 24.8252 7.37292Z" fill="#F8F9FF"/>
</svg>
