<svg width="30" height="30" viewBox="0 0 30 30" fill="none" xmlns="http://www.w3.org/2000/svg">
<mask id="path-1-inside-1_93_17" fill="white">
<path d="M15 11.9942C14.6489 11.9942 14.3012 12.0719 13.9768 12.223C13.6524 12.374 13.3577 12.5953 13.1094 12.8744C12.8611 13.1534 12.6641 13.4847 12.5298 13.8493C12.3954 14.2139 12.3263 14.6047 12.3263 14.9993C12.3263 15.394 12.3954 15.7847 12.5298 16.1493C12.6641 16.5139 12.8611 16.8452 13.1094 17.1243C13.3577 17.4033 13.6524 17.6247 13.9768 17.7757C14.3012 17.9267 14.6489 18.0044 15 18.0044C15.3511 18.0044 15.6988 17.9267 16.0232 17.7757C16.3476 17.6247 16.6423 17.4033 16.8906 17.1243C17.1389 16.8452 17.3359 16.5139 17.4702 16.1493C17.6046 15.7847 17.6737 15.394 17.6737 14.9993C17.6737 14.6047 17.6046 14.2139 17.4702 13.8493C17.3359 13.4847 17.1389 13.1534 16.8906 12.8744C16.6423 12.5953 16.3476 12.374 16.0232 12.223C15.6988 12.0719 15.3511 11.9942 15 11.9942ZM7.51 20.9773L6.92 20.8087C2.5225 19.5597 0 17.4397 0 14.9937C0 12.5477 2.5225 10.4277 6.92 9.17874L7.51 9.01155L7.67625 9.66906C8.12173 11.3939 8.69153 13.0751 9.38 14.6959L9.50625 14.9951L9.38 15.2944C8.69038 16.9146 8.12054 18.5959 7.67625 20.3212L7.51 20.9773ZM6.64625 10.7143C3.30375 11.7694 1.2525 13.3837 1.2525 14.9937C1.2525 16.6023 3.30375 18.2166 6.64625 19.2731C7.05503 17.8119 7.54859 16.3823 8.12375 14.9937C7.54793 13.6054 7.05436 12.1758 6.64625 10.7143ZM22.49 20.9773L22.3237 20.3183C21.8787 18.5936 21.3085 16.9128 20.6188 15.2929L20.4925 14.9937L20.6188 14.6945C21.3082 13.074 21.8784 11.3928 22.3237 9.66765L22.49 9.01015L23.0813 9.17733C27.4775 10.4263 30 12.5463 30 14.9937C30 17.4411 27.4775 19.5597 23.0813 20.8087L22.49 20.9773ZM21.8762 14.9937C22.4762 16.4534 22.9725 17.8878 23.3538 19.2731C26.6975 18.2166 28.7475 16.6023 28.7475 14.9937C28.7475 13.3837 26.6963 11.7708 23.3538 10.7143C22.9455 12.1757 22.4519 13.6053 21.8762 14.9937ZM6.6375 10.7073L6.47125 10.0512C5.235 5.15364 5.61 1.64416 7.5 0.419067C9.35375 -0.783544 12.33 0.636829 15.4488 4.23483L15.8738 4.72515L15.4488 5.21546C14.3406 6.51025 13.3281 7.90432 12.4213 9.38386L12.2525 9.65501L11.9588 9.68311C10.3636 9.82444 8.78136 10.111 7.2275 10.5401L6.6375 10.7073ZM9.0075 1.39268C8.6725 1.39268 8.37625 1.47416 8.12625 1.63573C6.88375 2.44075 6.66375 5.23935 7.52 9.01577C8.85205 8.68271 10.202 8.44759 11.5612 8.3119C12.3455 7.05855 13.2024 5.8646 14.1262 4.73779C12.1762 2.60372 10.33 1.39268 9.0075 1.39268ZM20.9938 29.9996C20.9925 29.9996 20.9925 29.9996 20.9938 29.9996C19.2125 29.9996 16.925 28.4922 14.5512 25.7526L14.1262 25.2623L14.5512 24.7719C15.6591 23.4767 16.6712 22.0822 17.5775 20.6021L17.7462 20.331L18.0387 20.3029C19.6347 20.1623 21.2178 19.8762 22.7725 19.4473L23.3625 19.2801L23.53 19.9376C24.7637 24.8324 24.39 28.3432 22.5 29.5669C22.0409 29.8587 21.5211 30.008 20.9938 29.9996ZM15.8738 25.2496C17.8238 27.3837 19.67 28.5947 20.9925 28.5947C21.3263 28.5947 21.625 28.5132 21.8738 28.3517C23.1163 27.5467 23.3375 24.7467 22.48 20.9702C21.1476 21.3038 19.7972 21.5389 18.4375 21.6741C17.6542 22.9283 16.7977 24.1228 15.8738 25.2496ZM23.3625 10.7073L22.7725 10.5401C21.218 10.1098 19.6348 9.82318 18.0387 9.68311L17.7462 9.65501L17.5775 9.38386C16.6717 7.90385 15.6596 6.50973 14.5512 5.21546L14.1262 4.72515L14.5512 4.23483C17.6687 0.638234 20.6437 -0.782139 22.5 0.419067C24.39 1.64416 24.765 5.15365 23.53 10.0498L23.3625 10.7073ZM18.4375 8.3119C19.865 8.45802 21.2212 8.69545 22.48 9.01577C23.3375 5.23935 23.1163 2.44075 21.8738 1.63573C20.6388 0.833518 18.3175 2.06282 15.8738 4.73779C16.7972 5.86465 17.6536 7.0586 18.4375 8.3119ZM9.0075 29.9996C8.47974 30.0083 7.95945 29.8589 7.5 29.5669C5.61 28.3432 5.235 24.8338 6.47125 19.9376L6.63625 19.2801L7.22625 19.4473C8.67 19.8561 10.2625 20.1441 11.9575 20.3029L12.2512 20.331L12.4188 20.6021C13.3257 22.082 14.3382 23.4765 15.4463 24.7719L15.8712 25.2623L15.4463 25.7526C13.0738 28.4922 10.7862 29.9996 9.0075 29.9996ZM7.52 20.9702C6.6625 24.7467 6.88375 27.5467 8.12625 28.3517C9.36 29.1426 11.68 27.9232 14.1262 25.2496C13.2028 24.122 12.3459 22.9276 11.5612 21.6741C10.2019 21.539 8.85195 21.3039 7.52 20.9702ZM15 21.8525C13.9712 21.8525 12.9138 21.8019 11.855 21.7036L11.5612 21.6755L11.3925 21.4044C10.7936 20.4372 10.2307 19.4426 9.705 18.4231C9.1809 17.4028 8.69465 16.3585 8.2475 15.2929L8.12375 14.9937L8.2475 14.6945C8.69459 13.6288 9.18084 12.5846 9.705 11.5643C10.2225 10.5584 10.7913 9.55526 11.3925 8.58305L11.5612 8.3119L11.855 8.28381C13.9483 8.08431 16.0529 8.08431 18.1463 8.28381L18.4388 8.3119L18.6063 8.58305C19.8052 10.5177 20.8577 12.562 21.7525 14.6945L21.8788 14.9937L21.7525 15.2929C20.8598 17.4266 19.8073 19.4711 18.6063 21.4044L18.4388 21.6755L18.1463 21.7036C17.0875 21.8019 16.0288 21.8525 15 21.8525ZM12.2538 20.3296C14.1038 20.4855 15.8963 20.4855 17.7475 20.3296C18.781 18.6314 19.6987 16.8477 20.4925 14.9937C19.7001 13.1386 18.7819 11.3547 17.7462 9.65782C15.918 9.50187 14.082 9.50187 12.2538 9.65782C11.2176 11.3544 10.2995 13.1383 9.5075 14.9937C10.3022 16.8474 11.2202 18.6311 12.2538 20.3296Z"/>
</mask>
<path d="M15 11.9942C14.6489 11.9942 14.3012 12.0719 13.9768 12.223C13.6524 12.374 13.3577 12.5953 13.1094 12.8744C12.8611 13.1534 12.6641 13.4847 12.5298 13.8493C12.3954 14.2139 12.3263 14.6047 12.3263 14.9993C12.3263 15.394 12.3954 15.7847 12.5298 16.1493C12.6641 16.5139 12.8611 16.8452 13.1094 17.1243C13.3577 17.4033 13.6524 17.6247 13.9768 17.7757C14.3012 17.9267 14.6489 18.0044 15 18.0044C15.3511 18.0044 15.6988 17.9267 16.0232 17.7757C16.3476 17.6247 16.6423 17.4033 16.8906 17.1243C17.1389 16.8452 17.3359 16.5139 17.4702 16.1493C17.6046 15.7847 17.6737 15.394 17.6737 14.9993C17.6737 14.6047 17.6046 14.2139 17.4702 13.8493C17.3359 13.4847 17.1389 13.1534 16.8906 12.8744C16.6423 12.5953 16.3476 12.374 16.0232 12.223C15.6988 12.0719 15.3511 11.9942 15 11.9942ZM7.51 20.9773L6.92 20.8087C2.5225 19.5597 0 17.4397 0 14.9937C0 12.5477 2.5225 10.4277 6.92 9.17874L7.51 9.01155L7.67625 9.66906C8.12173 11.3939 8.69153 13.0751 9.38 14.6959L9.50625 14.9951L9.38 15.2944C8.69038 16.9146 8.12054 18.5959 7.67625 20.3212L7.51 20.9773ZM6.64625 10.7143C3.30375 11.7694 1.2525 13.3837 1.2525 14.9937C1.2525 16.6023 3.30375 18.2166 6.64625 19.2731C7.05503 17.8119 7.54859 16.3823 8.12375 14.9937C7.54793 13.6054 7.05436 12.1758 6.64625 10.7143ZM22.49 20.9773L22.3237 20.3183C21.8787 18.5936 21.3085 16.9128 20.6188 15.2929L20.4925 14.9937L20.6188 14.6945C21.3082 13.074 21.8784 11.3928 22.3237 9.66765L22.49 9.01015L23.0813 9.17733C27.4775 10.4263 30 12.5463 30 14.9937C30 17.4411 27.4775 19.5597 23.0813 20.8087L22.49 20.9773ZM21.8762 14.9937C22.4762 16.4534 22.9725 17.8878 23.3538 19.2731C26.6975 18.2166 28.7475 16.6023 28.7475 14.9937C28.7475 13.3837 26.6963 11.7708 23.3538 10.7143C22.9455 12.1757 22.4519 13.6053 21.8762 14.9937ZM6.6375 10.7073L6.47125 10.0512C5.235 5.15364 5.61 1.64416 7.5 0.419067C9.35375 -0.783544 12.33 0.636829 15.4488 4.23483L15.8738 4.72515L15.4488 5.21546C14.3406 6.51025 13.3281 7.90432 12.4213 9.38386L12.2525 9.65501L11.9588 9.68311C10.3636 9.82444 8.78136 10.111 7.2275 10.5401L6.6375 10.7073ZM9.0075 1.39268C8.6725 1.39268 8.37625 1.47416 8.12625 1.63573C6.88375 2.44075 6.66375 5.23935 7.52 9.01577C8.85205 8.68271 10.202 8.44759 11.5612 8.3119C12.3455 7.05855 13.2024 5.8646 14.1262 4.73779C12.1762 2.60372 10.33 1.39268 9.0075 1.39268ZM20.9938 29.9996C20.9925 29.9996 20.9925 29.9996 20.9938 29.9996C19.2125 29.9996 16.925 28.4922 14.5512 25.7526L14.1262 25.2623L14.5512 24.7719C15.6591 23.4767 16.6712 22.0822 17.5775 20.6021L17.7462 20.331L18.0387 20.3029C19.6347 20.1623 21.2178 19.8762 22.7725 19.4473L23.3625 19.2801L23.53 19.9376C24.7637 24.8324 24.39 28.3432 22.5 29.5669C22.0409 29.8587 21.5211 30.008 20.9938 29.9996ZM15.8738 25.2496C17.8238 27.3837 19.67 28.5947 20.9925 28.5947C21.3263 28.5947 21.625 28.5132 21.8738 28.3517C23.1163 27.5467 23.3375 24.7467 22.48 20.9702C21.1476 21.3038 19.7972 21.5389 18.4375 21.6741C17.6542 22.9283 16.7977 24.1228 15.8738 25.2496ZM23.3625 10.7073L22.7725 10.5401C21.218 10.1098 19.6348 9.82318 18.0387 9.68311L17.7462 9.65501L17.5775 9.38386C16.6717 7.90385 15.6596 6.50973 14.5512 5.21546L14.1262 4.72515L14.5512 4.23483C17.6687 0.638234 20.6437 -0.782139 22.5 0.419067C24.39 1.64416 24.765 5.15365 23.53 10.0498L23.3625 10.7073ZM18.4375 8.3119C19.865 8.45802 21.2212 8.69545 22.48 9.01577C23.3375 5.23935 23.1163 2.44075 21.8738 1.63573C20.6388 0.833518 18.3175 2.06282 15.8738 4.73779C16.7972 5.86465 17.6536 7.0586 18.4375 8.3119ZM9.0075 29.9996C8.47974 30.0083 7.95945 29.8589 7.5 29.5669C5.61 28.3432 5.235 24.8338 6.47125 19.9376L6.63625 19.2801L7.22625 19.4473C8.67 19.8561 10.2625 20.1441 11.9575 20.3029L12.2512 20.331L12.4188 20.6021C13.3257 22.082 14.3382 23.4765 15.4463 24.7719L15.8712 25.2623L15.4463 25.7526C13.0738 28.4922 10.7862 29.9996 9.0075 29.9996ZM7.52 20.9702C6.6625 24.7467 6.88375 27.5467 8.12625 28.3517C9.36 29.1426 11.68 27.9232 14.1262 25.2496C13.2028 24.122 12.3459 22.9276 11.5612 21.6741C10.2019 21.539 8.85195 21.3039 7.52 20.9702ZM15 21.8525C13.9712 21.8525 12.9138 21.8019 11.855 21.7036L11.5612 21.6755L11.3925 21.4044C10.7936 20.4372 10.2307 19.4426 9.705 18.4231C9.1809 17.4028 8.69465 16.3585 8.2475 15.2929L8.12375 14.9937L8.2475 14.6945C8.69459 13.6288 9.18084 12.5846 9.705 11.5643C10.2225 10.5584 10.7913 9.55526 11.3925 8.58305L11.5612 8.3119L11.855 8.28381C13.9483 8.08431 16.0529 8.08431 18.1463 8.28381L18.4388 8.3119L18.6063 8.58305C19.8052 10.5177 20.8577 12.562 21.7525 14.6945L21.8788 14.9937L21.7525 15.2929C20.8598 17.4266 19.8073 19.4711 18.6063 21.4044L18.4388 21.6755L18.1463 21.7036C17.0875 21.8019 16.0288 21.8525 15 21.8525ZM12.2538 20.3296C14.1038 20.4855 15.8963 20.4855 17.7475 20.3296C18.781 18.6314 19.6987 16.8477 20.4925 14.9937C19.7001 13.1386 18.7819 11.3547 17.7462 9.65782C15.918 9.50187 14.082 9.50187 12.2538 9.65782C11.2176 11.3544 10.2995 13.1383 9.5075 14.9937C10.3022 16.8474 11.2202 18.6311 12.2538 20.3296Z" fill="#F6F8FF"/>
<path d="M15 11.9942L15 12.9942L15 12.9942L15 11.9942ZM15 18.0044L15 17.0044L15 17.0044L15 18.0044ZM7.51 20.9773L7.23525 21.9388L8.22621 22.2219L8.47936 21.2229L7.51 20.9773ZM6.92 20.8087L7.19475 19.8471L7.19321 19.8467L6.92 20.8087ZM6.92 9.17874L6.64737 8.21662L6.64679 8.21679L6.92 9.17874ZM7.51 9.01155L8.47949 8.76642L8.22727 7.76893L7.23737 8.04944L7.51 9.01155ZM7.67625 9.66906L6.70675 9.9142L6.70802 9.91912L7.67625 9.66906ZM9.38 14.6959L10.3014 14.3071L10.3004 14.3049L9.38 14.6959ZM9.50625 14.9951L10.4276 15.3838L10.5916 14.9951L10.4276 14.6064L9.50625 14.9951ZM9.38 15.2944L10.3001 15.686L10.3014 15.6831L9.38 15.2944ZM7.67625 20.3212L6.70784 20.0718L6.70689 20.0755L7.67625 20.3212ZM6.64625 10.7143L7.6094 10.4454L7.3313 9.44944L6.34523 9.7607L6.64625 10.7143ZM6.64625 19.2731L6.34487 20.2266L7.33072 20.5382L7.60928 19.5425L6.64625 19.2731ZM22.49 20.9773L21.5204 21.2219L21.7726 22.2217L22.7642 21.9389L22.49 20.9773ZM22.3237 20.3183L23.2934 20.0737L23.292 20.0685L22.3237 20.3183ZM20.6188 15.2929L19.6974 15.6817L19.6987 15.6847L20.6188 15.2929ZM20.6188 14.6945L19.6986 14.3029L19.6974 14.3057L20.6188 14.6945ZM22.3237 9.66765L23.292 9.91759L23.2932 9.91279L22.3237 9.66765ZM22.49 9.01015L22.7621 8.04788L21.7726 7.76808L21.5205 8.76501L22.49 9.01015ZM23.0813 9.17733L23.3545 8.2154L23.3533 8.21507L23.0813 9.17733ZM23.0813 20.8087L22.808 19.8467L22.807 19.847L23.0813 20.8087ZM21.8762 14.9937L20.9525 14.6107L20.7944 14.992L20.9513 15.3739L21.8762 14.9937ZM23.3538 19.2731L22.3896 19.5384L22.6651 20.5394L23.655 20.2266L23.3538 19.2731ZM23.3538 10.7143L23.6551 9.76081L22.6689 9.44908L22.3906 10.4453L23.3538 10.7143ZM6.6375 10.7073L5.66814 10.9529L5.92073 11.9498L6.91013 11.6694L6.6375 10.7073ZM6.47125 10.0512L5.50166 10.2959L5.50189 10.2968L6.47125 10.0512ZM7.5 0.419067L8.04392 1.2582L8.04425 1.25799L7.5 0.419067ZM15.4488 4.23483L16.2044 3.57985L16.2044 3.57984L15.4488 4.23483ZM15.8738 4.72515L16.6294 5.38013L17.1971 4.72515L16.6294 4.07016L15.8738 4.72515ZM15.4488 5.21546L14.6931 4.56047L14.689 4.56522L15.4488 5.21546ZM12.4213 9.38386L13.2703 9.91225L13.2739 9.90642L12.4213 9.38386ZM12.2525 9.65501L12.3477 10.6505L12.8401 10.6034L13.1015 10.1834L12.2525 9.65501ZM11.9588 9.68311L12.047 10.6792L12.054 10.6786L11.9588 9.68311ZM7.2275 10.5401L6.96133 9.57616L6.95487 9.57799L7.2275 10.5401ZM8.12625 1.63573L7.58347 0.795852L7.5825 0.79648L8.12625 1.63573ZM7.52 9.01577L6.54475 9.23689L6.77081 10.2339L7.76257 9.9859L7.52 9.01577ZM14.1262 4.73779L14.8996 5.37182L15.4485 4.70234L14.8645 4.06324L14.1262 4.73779ZM20.9938 29.9996L21.0096 28.9998L21.0017 28.9996H20.9938V29.9996ZM14.5512 25.7526L15.307 25.0977L15.3069 25.0976L14.5512 25.7526ZM14.1262 25.2623L13.3706 24.6073L12.8029 25.2623L13.3706 25.9172L14.1262 25.2623ZM14.5512 24.7719L15.3069 25.4269L15.3112 25.422L14.5512 24.7719ZM17.5775 20.6021L16.7285 20.0737L16.7247 20.0799L17.5775 20.6021ZM17.7462 20.331L17.6506 19.3356L17.1585 19.3829L16.8972 19.8026L17.7462 20.331ZM18.0387 20.3029L17.951 19.3067L17.9431 19.3075L18.0387 20.3029ZM22.7725 19.4473L23.0384 20.4113L23.0451 20.4094L22.7725 19.4473ZM23.3625 19.2801L24.3316 19.0332L24.078 18.038L23.0899 18.318L23.3625 19.2801ZM23.53 19.9376L24.4997 19.6932L24.499 19.6907L23.53 19.9376ZM22.5 29.5669L23.0364 30.411L23.0435 30.4063L22.5 29.5669ZM15.8738 25.2496L15.1005 24.6156L14.5515 25.285L15.1355 25.9242L15.8738 25.2496ZM21.8738 28.3517L21.33 27.5124L21.3291 27.513L21.8738 28.3517ZM22.48 20.9702L23.4552 20.7488L23.2288 19.7519L22.2372 20.0002L22.48 20.9702ZM18.4375 21.6741L18.3385 20.679L17.8496 20.7276L17.5893 21.1444L18.4375 21.6741ZM23.3625 10.7073L23.0899 11.6694L24.078 11.9494L24.3316 10.9542L23.3625 10.7073ZM22.7725 10.5401L23.0451 9.57797L23.0393 9.57635L22.7725 10.5401ZM18.0387 9.68311L17.9431 10.6786L17.9513 10.6793L18.0387 9.68311ZM17.7462 9.65501L16.8972 10.1834L17.1585 10.6031L17.6506 10.6504L17.7462 9.65501ZM17.5775 9.38386L16.7245 9.90589L16.7285 9.91224L17.5775 9.38386ZM14.5512 5.21546L15.3108 4.56501L15.3069 4.56048L14.5512 5.21546ZM14.1262 4.72515L13.3706 4.07016L12.8029 4.72515L13.3706 5.38013L14.1262 4.72515ZM14.5512 4.23483L13.7956 3.57984L13.7956 3.57985L14.5512 4.23483ZM22.5 0.419067L23.0439 -0.420068L23.0433 -0.420482L22.5 0.419067ZM23.53 10.0498L24.4991 10.2967L24.4996 10.2944L23.53 10.0498ZM18.4375 8.3119L17.5897 8.84218L17.8491 9.2569L18.3357 9.30671L18.4375 8.3119ZM22.48 9.01577L22.2334 9.98488L23.2279 10.238L23.4552 9.2372L22.48 9.01577ZM21.8738 1.63573L21.329 2.47434L21.33 2.47497L21.8738 1.63573ZM15.8738 4.73779L15.1355 4.06331L14.5517 4.70225L15.1003 5.37163L15.8738 4.73779ZM9.0075 29.9996V28.9996H8.99934L8.99118 28.9998L9.0075 29.9996ZM7.5 29.5669L6.9565 30.4064L6.96364 30.4109L7.5 29.5669ZM6.47125 19.9376L7.44082 20.1824L7.44118 20.181L6.47125 19.9376ZM6.63625 19.2801L6.90888 18.318L5.9172 18.037L5.66632 19.0367L6.63625 19.2801ZM7.22625 19.4473L6.95362 20.4094L6.95379 20.4095L7.22625 19.4473ZM11.9575 20.3029L12.0527 19.3074L12.0508 19.3073L11.9575 20.3029ZM12.2512 20.331L13.102 19.8054L12.8409 19.3828L12.3465 19.3355L12.2512 20.331ZM12.4188 20.6021L13.2714 20.0796L13.2695 20.0766L12.4188 20.6021ZM15.4463 24.7719L14.6863 25.422L14.6906 25.4269L15.4463 24.7719ZM15.8712 25.2623L16.6269 25.9172L17.1946 25.2623L16.6269 24.6073L15.8712 25.2623ZM15.4463 25.7526L14.6906 25.0976L14.6903 25.0979L15.4463 25.7526ZM7.52 20.9702L7.76298 20.0002L6.77121 19.7518L6.54482 20.7488L7.52 20.9702ZM8.12625 28.3517L7.58249 29.1909L7.58653 29.1935L8.12625 28.3517ZM14.1262 25.2496L14.864 25.9247L15.4485 25.2859L14.8999 24.616L14.1262 25.2496ZM11.5612 21.6741L12.4089 21.1435L12.1485 20.7275L11.6602 20.679L11.5612 21.6741ZM11.855 21.7036L11.7598 22.6991L11.7625 22.6993L11.855 21.7036ZM11.5612 21.6755L10.7122 22.2039L10.9736 22.6239L11.466 22.671L11.5612 21.6755ZM11.3925 21.4044L10.5423 21.9308L10.5435 21.9327L11.3925 21.4044ZM9.705 18.4231L8.81549 18.88L8.81619 18.8814L9.705 18.4231ZM8.2475 15.2929L7.32339 15.6751L7.3254 15.6799L8.2475 15.2929ZM8.2475 14.6945L7.32536 14.3076L7.3234 14.3123L8.2475 14.6945ZM9.705 11.5643L8.81577 11.1068L8.81552 11.1073L9.705 11.5643ZM11.3925 8.58305L10.5435 8.05467L10.542 8.05707L11.3925 8.58305ZM11.855 8.28381L11.7601 7.28832L11.7598 7.28835L11.855 8.28381ZM18.1463 8.28381L18.2419 7.28839L18.2411 7.28832L18.1463 8.28381ZM18.4388 8.3119L19.2895 7.78635L19.0286 7.36396L18.5344 7.31649L18.4388 8.3119ZM18.6063 8.58305L17.7555 9.1086L17.7562 9.10983L18.6063 8.58305ZM21.7525 14.6945L20.8304 15.0814L20.8311 15.0832L21.7525 14.6945ZM21.8788 14.9937L22.8001 15.3824L22.9641 14.9937L22.8001 14.605L21.8788 14.9937ZM21.7525 15.2929L20.8311 14.9042L20.83 14.907L21.7525 15.2929ZM18.6063 21.4044L17.7568 20.8766L17.7555 20.8788L18.6063 21.4044ZM18.4388 21.6755L18.5344 22.6709L19.0286 22.6234L19.2895 22.201L18.4388 21.6755ZM18.1463 21.7036L18.2387 22.6993L18.2419 22.699L18.1463 21.7036ZM12.2538 20.3296L11.3995 20.8494L11.6636 21.2834L12.1698 21.3261L12.2538 20.3296ZM17.7475 20.3296L17.8314 21.3261L18.3376 21.2834L18.6017 20.8495L17.7475 20.3296ZM17.7462 9.65782L18.5998 9.13685L18.3359 8.70449L17.8312 8.66144L17.7462 9.65782ZM12.2538 9.65782L12.1688 8.66144L11.6642 8.70447L11.4003 9.13661L12.2538 9.65782ZM9.5075 14.9937L8.58778 14.6011L8.41985 14.9946L8.5884 15.3877L9.5075 14.9937ZM15 10.9942C14.5002 10.9942 14.0087 11.105 13.5547 11.3164L14.3989 13.1295C14.5937 13.0388 14.7975 12.9942 15 12.9942L15 10.9942ZM13.5547 11.3164C13.1012 11.5275 12.6972 11.8332 12.3623 12.2097L13.8565 13.5391C14.0181 13.3574 14.2036 13.2204 14.3989 13.1295L13.5547 11.3164ZM12.3623 12.2097C12.0275 12.5859 11.7673 13.0264 11.5915 13.5035L13.4681 14.1951C13.561 13.943 13.6946 13.721 13.8565 13.5391L12.3623 12.2097ZM11.5915 13.5035C11.4157 13.9806 11.3263 14.4886 11.3263 14.9993H13.3263C13.3263 14.7208 13.3752 14.4472 13.4681 14.1951L11.5915 13.5035ZM11.3263 14.9993C11.3263 15.5101 11.4157 16.0181 11.5915 16.4951L13.4681 15.8035C13.3752 15.5514 13.3263 15.2778 13.3263 14.9993H11.3263ZM11.5915 16.4951C11.7673 16.9722 12.0275 17.4128 12.3623 17.789L13.8565 16.4596C13.6946 16.2777 13.561 16.0556 13.4681 15.8035L11.5915 16.4951ZM12.3623 17.789C12.6972 18.1654 13.1012 18.4711 13.5547 18.6823L14.3989 16.8691C14.2036 16.7782 14.0181 16.6412 13.8565 16.4596L12.3623 17.789ZM13.5547 18.6823C14.0087 18.8936 14.5002 19.0044 15 19.0044L15 17.0044C14.7975 17.0044 14.5937 16.9598 14.3989 16.8691L13.5547 18.6823ZM15 19.0044C15.4998 19.0044 15.9913 18.8936 16.4453 18.6823L15.6011 16.8691C15.4063 16.9598 15.2025 17.0044 15 17.0044L15 19.0044ZM16.4453 18.6823C16.8988 18.4711 17.3028 18.1654 17.6377 17.789L16.1435 16.4596C15.9819 16.6412 15.7964 16.7782 15.6011 16.8691L16.4453 18.6823ZM17.6377 17.789C17.9725 17.4128 18.2327 16.9722 18.4085 16.4951L16.5319 15.8035C16.439 16.0556 16.3054 16.2777 16.1435 16.4596L17.6377 17.789ZM18.4085 16.4951C18.5843 16.0181 18.6737 15.5101 18.6737 14.9993H16.6737C16.6737 15.2778 16.6248 15.5514 16.5319 15.8035L18.4085 16.4951ZM18.6737 14.9993C18.6737 14.4886 18.5843 13.9806 18.4085 13.5035L16.5319 14.1951C16.6248 14.4472 16.6737 14.7208 16.6737 14.9993H18.6737ZM18.4085 13.5035C18.2327 13.0264 17.9725 12.5859 17.6377 12.2097L16.1435 13.5391C16.3054 13.721 16.439 13.943 16.5319 14.1951L18.4085 13.5035ZM17.6377 12.2097C17.3028 11.8332 16.8988 11.5275 16.4453 11.3164L15.6011 13.1295C15.7964 13.2204 15.9819 13.3574 16.1435 13.5391L17.6377 12.2097ZM16.4453 11.3164C15.9913 11.105 15.4998 10.9942 15 10.9942L15 12.9942C15.2025 12.9942 15.4063 13.0388 15.6011 13.1295L16.4453 11.3164ZM7.78475 20.0157L7.19475 19.8471L6.64525 21.7702L7.23525 21.9388L7.78475 20.0157ZM7.19321 19.8467C5.07587 19.2453 3.49022 18.455 2.45429 17.5845C1.42648 16.7208 1 15.8371 1 14.9937H-1C-1 16.5963 -0.165229 17.9956 1.16759 19.1156C2.49228 20.2288 4.36663 21.123 6.64679 21.7706L7.19321 19.8467ZM1 14.9937C1 14.1503 1.42648 13.2666 2.45429 12.4029C3.49022 11.5324 5.07587 10.7421 7.19321 10.1407L6.64679 8.21679C4.36663 8.8644 2.49228 9.75857 1.16759 10.8718C-0.165229 11.9918 -1 13.3911 -1 14.9937H1ZM7.19263 10.1409L7.78263 9.97367L7.23737 8.04944L6.64737 8.21662L7.19263 10.1409ZM6.54051 9.25669L6.70676 9.91419L8.64574 9.42392L8.47949 8.76642L6.54051 9.25669ZM6.70802 9.91912C7.16577 11.6915 7.75148 13.4198 8.45959 15.0868L10.3004 14.3049C9.63158 12.7303 9.07768 11.0963 8.64448 9.41899L6.70802 9.91912ZM8.45864 15.0846L8.58489 15.3838L10.4276 14.6064L10.3014 14.3071L8.45864 15.0846ZM8.58489 14.6064L8.45864 14.9056L10.3014 15.6831L10.4276 15.3838L8.58489 14.6064ZM8.45988 14.9027C7.75039 16.5697 7.1645 18.2985 6.70784 20.0718L8.64465 20.5705C9.07659 18.8932 9.63037 17.2596 10.3001 15.686L8.45988 14.9027ZM6.70689 20.0755L6.54064 20.7316L8.47936 21.2229L8.64561 20.5668L6.70689 20.0755ZM6.34523 9.7607C4.60249 10.3108 3.13201 11.0253 2.07526 11.8618C1.03941 12.6818 0.2525 13.7452 0.2525 14.9937H2.2525C2.2525 14.6322 2.49122 14.0834 3.31662 13.43C4.12111 12.7931 5.34751 12.1729 6.94727 11.6679L6.34523 9.7607ZM0.2525 14.9937C0.2525 16.2417 1.03969 17.3047 2.07526 18.1245C3.13189 18.961 4.60222 19.6758 6.34487 20.2266L6.94763 18.3196C5.34778 17.8139 4.12124 17.1933 3.31662 16.5564C2.49094 15.9028 2.2525 15.3543 2.2525 14.9937H0.2525ZM7.60928 19.5425C8.00739 18.1194 8.48792 16.7277 9.04764 15.3764L7.19986 14.611C6.60926 16.037 6.10267 17.5043 5.68322 19.0037L7.60928 19.5425ZM9.04745 14.6106C8.48722 13.2598 8.00677 11.8684 7.6094 10.4454L5.6831 10.9833C6.10194 12.4832 6.60864 13.9509 7.20005 15.3768L9.04745 14.6106ZM23.4596 20.7326L23.2934 20.0737L21.3541 20.563L21.5204 21.2219L23.4596 20.7326ZM23.292 20.0685C22.8347 18.2959 22.2484 16.5676 21.5388 14.9012L19.6987 15.6847C20.3686 17.258 20.9228 18.8913 21.3555 20.5682L23.292 20.0685ZM21.5401 14.9042L21.4139 14.605L19.5711 15.3824L19.6974 15.6817L21.5401 14.9042ZM21.4139 15.3824L21.5401 15.0832L19.6974 14.3057L19.5711 14.605L21.4139 15.3824ZM21.5389 15.086C22.2482 13.419 22.8344 11.6904 23.292 9.91759L21.3555 9.41771C20.9225 11.0951 20.3683 12.7289 19.6986 14.303L21.5389 15.086ZM23.2932 9.91279L23.4595 9.25529L21.5205 8.76501L21.3543 9.42251L23.2932 9.91279ZM22.2179 9.97242L22.8092 10.1396L23.3533 8.21507L22.7621 8.04788L22.2179 9.97242ZM22.808 10.1393C24.9247 10.7406 26.51 11.5309 27.5458 12.4016C28.5733 13.2654 29 14.1494 29 14.9937H31C31 13.3906 30.1654 11.9909 28.8327 10.8706C27.5081 9.75722 25.6341 8.86302 23.3545 8.2154L22.808 10.1393ZM29 14.9937C29 15.8379 28.5734 16.7215 27.5459 17.585C26.5101 18.4554 24.9248 19.2453 22.808 19.8467L23.3545 21.7706C25.634 21.123 27.508 20.2292 28.8326 19.1162C30.1653 17.9962 31 16.5969 31 14.9937H29ZM22.807 19.847L22.2158 20.0156L22.7642 21.9389L23.3555 21.7703L22.807 19.847ZM20.9513 15.3739C21.5377 16.8004 22.0202 18.1964 22.3896 19.5384L24.3179 19.0077C23.9248 17.5793 23.4148 16.1065 22.8012 14.6135L20.9513 15.3739ZM23.655 20.2266C25.3983 19.6758 26.8687 18.961 27.9253 18.1245C28.9609 17.3045 29.7475 16.2416 29.7475 14.9937H27.7475C27.7475 15.3545 27.5091 15.9029 26.6838 16.5564C25.8794 17.1933 24.6529 17.8139 23.0525 18.3196L23.655 20.2266ZM29.7475 14.9937C29.7475 13.7451 28.9604 12.6821 27.9247 11.8623C26.868 11.026 25.3976 10.3116 23.6551 9.76081L23.0524 11.6678C24.6524 12.1736 25.8789 12.7938 26.6835 13.4306C27.5089 14.0839 27.7475 14.6323 27.7475 14.9937H29.7475ZM22.3906 10.4453C21.9931 11.8683 21.5127 13.2598 20.9525 14.6107L22.8 15.3767C23.3912 13.9508 23.8979 12.4832 24.3169 10.9834L22.3906 10.4453ZM7.60686 10.4617L7.44061 9.80557L5.50189 10.2968L5.66814 10.9529L7.60686 10.4617ZM7.44084 9.80645C6.83911 7.42265 6.64919 5.44741 6.80762 3.96417C6.96792 2.46349 7.46018 1.63658 8.04392 1.2582L6.95608 -0.420068C5.64982 0.426643 5.00958 1.96702 4.81894 3.75175C4.62644 5.55392 4.86714 7.78219 5.50166 10.2959L7.44084 9.80645ZM8.04425 1.25799C8.56356 0.921087 9.36857 0.85373 10.5678 1.4285C11.7639 2.00179 13.1828 3.14737 14.6931 4.88982L16.2044 3.57984C14.596 1.72428 12.9673 0.360686 11.4322 -0.375057C9.90018 -1.10933 8.29019 -1.28556 6.95575 -0.419857L8.04425 1.25799ZM14.6931 4.88981L15.1181 5.38013L16.6294 4.07016L16.2044 3.57985L14.6931 4.88981ZM15.1181 4.07016L14.6931 4.56048L16.2044 5.87044L16.6294 5.38013L15.1181 4.07016ZM14.689 4.56522C13.5459 5.90078 12.5025 7.33764 11.5686 8.8613L13.2739 9.90642C14.1536 8.471 15.1352 7.11971 16.2085 5.8657L14.689 4.56522ZM11.5722 8.85548L11.4035 9.12663L13.1015 10.1834L13.2703 9.91224L11.5722 8.85548ZM12.1573 8.65955L11.8635 8.68765L12.054 10.6786L12.3477 10.6505L12.1573 8.65955ZM11.8705 8.68701C10.2148 8.8337 8.57301 9.13115 6.96133 9.57618L7.49367 11.504C8.9897 11.0909 10.5124 10.8152 12.047 10.6792L11.8705 8.68701ZM6.95487 9.57799L6.36487 9.74517L6.91013 11.6694L7.50013 11.5022L6.95487 9.57799ZM9.0075 0.392676C8.50562 0.392676 8.01551 0.516643 7.58347 0.795852L8.66903 2.4756C8.73699 2.43168 8.83938 2.39268 9.0075 2.39268V0.392676ZM7.5825 0.79648C6.54983 1.46555 6.14831 2.78858 6.03937 4.13056C5.92507 5.53872 6.10344 7.2905 6.54475 9.23689L8.49525 8.79465C8.08031 6.96462 7.94056 5.42889 8.03282 4.29238C8.13044 3.0897 8.46017 2.61092 8.67 2.47497L7.5825 0.79648ZM7.76257 9.9859C9.04778 9.66455 10.3499 9.4378 11.6606 9.30696L11.4619 7.31685C10.0541 7.45738 8.65631 7.70086 7.27743 8.04564L7.76257 9.9859ZM12.409 8.84236C13.171 7.62455 14.0031 6.46524 14.8996 5.37182L13.3529 4.10376C12.4017 5.26395 11.5201 6.49255 10.7135 7.78145L12.409 8.84236ZM14.8645 4.06324C13.8514 2.95457 12.8395 2.05643 11.879 1.4281C10.938 0.812544 9.95008 0.392676 9.0075 0.392676V2.39268C9.38742 2.39268 9.98389 2.57833 10.7841 3.10181C11.5649 3.61252 12.4511 4.38694 13.388 5.41234L14.8645 4.06324ZM20.9938 28.9996C20.9937 28.9996 20.9937 28.9996 20.9937 28.9996C20.9937 28.9996 20.9937 28.9996 20.9937 28.9996C20.9937 28.9996 20.9937 28.9996 20.9937 28.9996C20.9937 28.9996 20.9937 28.9996 20.9937 28.9996C20.9937 28.9996 20.9937 28.9996 20.9937 28.9996C20.9937 28.9996 20.9937 28.9996 20.9937 28.9996C20.9937 28.9996 20.9937 28.9996 20.9937 28.9996C20.9937 28.9996 20.9937 28.9996 20.9937 28.9996C20.9937 28.9996 20.9937 28.9996 20.9937 28.9996C20.9937 28.9996 20.9937 28.9996 20.9937 28.9996C20.9937 28.9996 20.9937 28.9996 20.9937 28.9996C20.9937 28.9996 20.9937 28.9996 20.9937 28.9996C20.9937 28.9996 20.9937 28.9996 20.9937 28.9996C20.9937 28.9996 20.9937 28.9996 20.9937 28.9996C20.9936 28.9996 20.9936 28.9996 20.9936 28.9996C20.9936 28.9996 20.9936 28.9996 20.9936 28.9996C20.9936 28.9996 20.9936 28.9996 20.9936 28.9996C20.9936 28.9996 20.9936 28.9996 20.9936 28.9996C20.9936 28.9996 20.9936 28.9996 20.9936 28.9996C20.9936 28.9996 20.9936 28.9996 20.9936 28.9996C20.9936 28.9996 20.9936 28.9996 20.9936 28.9996C20.9936 28.9996 20.9936 28.9996 20.9936 28.9996C20.9936 28.9996 20.9936 28.9996 20.9936 28.9996C20.9936 28.9996 20.9936 28.9996 20.9936 28.9996C20.9936 28.9996 20.9936 28.9996 20.9936 28.9996C20.9936 28.9996 20.9936 28.9996 20.9936 28.9996C20.9936 28.9996 20.9936 28.9996 20.9936 28.9996C20.9936 28.9996 20.9936 28.9996 20.9936 28.9996C20.9936 28.9996 20.9936 28.9996 20.9935 28.9996C20.9935 28.9996 20.9935 28.9996 20.9935 28.9996C20.9935 28.9996 20.9935 28.9996 20.9935 28.9996C20.9935 28.9996 20.9935 28.9996 20.9935 28.9996C20.9935 28.9996 20.9935 28.9996 20.9935 28.9996C20.9935 28.9996 20.9935 28.9996 20.9935 28.9996C20.9935 28.9996 20.9935 28.9996 20.9935 28.9996C20.9935 28.9996 20.9935 28.9996 20.9935 28.9996C20.9935 28.9996 20.9935 28.9996 20.9935 28.9996C20.9935 28.9996 20.9935 28.9996 20.9935 28.9996C20.9935 28.9996 20.9935 28.9996 20.9935 28.9996C20.9935 28.9996 20.9935 28.9996 20.9935 28.9996C20.9935 28.9996 20.9935 28.9996 20.9935 28.9996C20.9935 28.9996 20.9935 28.9996 20.9935 28.9996C20.9935 28.9996 20.9935 28.9996 20.9935 28.9996C20.9935 28.9996 20.9935 28.9996 20.9935 28.9996C20.9935 28.9996 20.9935 28.9996 20.9934 28.9996C20.9934 28.9996 20.9934 28.9996 20.9934 28.9996C20.9934 28.9996 20.9934 28.9996 20.9934 28.9996C20.9934 28.9996 20.9934 28.9996 20.9934 28.9996C20.9934 28.9996 20.9934 28.9996 20.9934 28.9996C20.9934 28.9996 20.9934 28.9996 20.9934 28.9996C20.9934 28.9996 20.9934 28.9996 20.9934 28.9996C20.9934 28.9996 20.9934 28.9996 20.9934 28.9996C20.9934 28.9996 20.9934 28.9996 20.9934 28.9996C20.9934 28.9996 20.9934 28.9996 20.9934 28.9996C20.9934 28.9996 20.9934 28.9996 20.9934 28.9996C20.9934 28.9996 20.9934 28.9996 20.9934 28.9996C20.9934 28.9996 20.9934 28.9996 20.9934 28.9996C20.9934 28.9996 20.9934 28.9996 20.9934 28.9996C20.9934 28.9996 20.9934 28.9996 20.9934 28.9996C20.9934 28.9996 20.9934 28.9996 20.9934 28.9996C20.9934 28.9996 20.9934 28.9996 20.9934 28.9996C20.9934 28.9996 20.9934 28.9996 20.9934 28.9996C20.9933 28.9996 20.9933 28.9996 20.9933 28.9996C20.9933 28.9996 20.9933 28.9996 20.9933 28.9996C20.9933 28.9996 20.9933 28.9996 20.9933 28.9996C20.9933 28.9996 20.9933 28.9996 20.9933 28.9996C20.9933 28.9996 20.9933 28.9996 20.9933 28.9996C20.9933 28.9996 20.9933 28.9996 20.9933 28.9996C20.9933 28.9996 20.9933 28.9996 20.9933 28.9996C20.9933 28.9996 20.9933 28.9996 20.9933 28.9996C20.9933 28.9996 20.9933 28.9996 20.9933 28.9996C20.9933 28.9996 20.9933 28.9996 20.9933 28.9996C20.9933 28.9996 20.9933 28.9996 20.9933 28.9996C20.9933 28.9996 20.9933 28.9996 20.9933 28.9996C20.9933 28.9996 20.9933 28.9996 20.9933 28.9996C20.9933 28.9996 20.9933 28.9996 20.9933 28.9996C20.9933 28.9996 20.9933 28.9996 20.9933 28.9996C20.9933 28.9996 20.9933 28.9996 20.9933 28.9996C20.9933 28.9996 20.9933 28.9996 20.9933 28.9996C20.9933 28.9996 20.9933 28.9996 20.9933 28.9996C20.9933 28.9996 20.9933 28.9996 20.9933 28.9996C20.9932 28.9996 20.9932 28.9996 20.9932 28.9996C20.9932 28.9996 20.9932 28.9996 20.9932 28.9996C20.9932 28.9996 20.9932 28.9996 20.9932 28.9996C20.9932 28.9996 20.9932 28.9996 20.9932 28.9996C20.9932 28.9996 20.9932 28.9996 20.9932 28.9996C20.9932 28.9996 20.9932 28.9996 20.9932 28.9996C20.9932 28.9996 20.9932 28.9996 20.9932 28.9996C20.9932 28.9996 20.9932 28.9996 20.9932 28.9996C20.9932 28.9996 20.9932 28.9996 20.9932 28.9996C20.9932 28.9996 20.9932 28.9996 20.9932 28.9996C20.9932 28.9996 20.9932 28.9996 20.9932 28.9996C20.9932 28.9996 20.9932 28.9996 20.9932 28.9996C20.9932 28.9996 20.9932 28.9996 20.9932 28.9996C20.9932 28.9996 20.9932 28.9996 20.9932 28.9996C20.9932 28.9996 20.9932 28.9996 20.9932 28.9996C20.9932 28.9996 20.9932 28.9996 20.9932 28.9996C20.9932 28.9996 20.9932 28.9996 20.9932 28.9996C20.9932 28.9996 20.9932 28.9996 20.9932 28.9996C20.9932 28.9996 20.9932 28.9996 20.9932 28.9996C20.9932 28.9996 20.9932 28.9996 20.9932 28.9996C20.9932 28.9996 20.9932 28.9996 20.9932 28.9996C20.9932 28.9996 20.9931 28.9996 20.9931 28.9996C20.9931 28.9996 20.9931 28.9996 20.9931 28.9996C20.9931 28.9996 20.9931 28.9996 20.9931 28.9996C20.9931 28.9996 20.9931 28.9996 20.9931 28.9996C20.9931 28.9996 20.9931 28.9996 20.9931 28.9996C20.9931 28.9996 20.9931 28.9996 20.9931 28.9996C20.9931 28.9996 20.9931 28.9996 20.9931 28.9996C20.9931 28.9996 20.9931 28.9996 20.9931 28.9996C20.9931 28.9996 20.9931 28.9996 20.9931 28.9996C20.9931 28.9996 20.9931 28.9996 20.9931 28.9996C20.9931 28.9996 20.9931 28.9996 20.9931 28.9996C20.9931 28.9996 20.9931 28.9996 20.9931 28.9996C20.9931 28.9996 20.9931 28.9996 20.9931 28.9996C20.9931 28.9996 20.9931 28.9996 20.9931 28.9996C20.9931 28.9996 20.9931 28.9996 20.9931 28.9996C20.9931 28.9996 20.9931 28.9996 20.9931 28.9996C20.9931 28.9996 20.9931 28.9996 20.9931 28.9996C20.9931 28.9996 20.9931 28.9996 20.9931 28.9996C20.9931 28.9996 20.9931 28.9996 20.9931 28.9996C20.9931 28.9996 20.9931 28.9996 20.9931 28.9996C20.9931 28.9996 20.9931 28.9996 20.9931 28.9996C20.9931 28.9996 20.9931 28.9996 20.9931 28.9996C20.9931 28.9996 20.9931 28.9996 20.9931 28.9996C20.9931 28.9996 20.9931 28.9996 20.9931 28.9996C20.9931 28.9996 20.9931 28.9996 20.9931 28.9996C20.993 28.9996 20.993 28.9996 20.993 28.9996C20.993 28.9996 20.993 28.9996 20.993 28.9996C20.993 28.9996 20.993 28.9996 20.993 28.9996C20.993 28.9996 20.993 28.9996 20.993 28.9996C20.993 28.9996 20.993 28.9996 20.993 28.9996C20.993 28.9996 20.993 28.9996 20.993 28.9996C20.993 28.9996 20.993 28.9996 20.993 28.9996C20.993 28.9996 20.993 28.9996 20.993 28.9996C20.993 28.9996 20.993 28.9996 20.993 28.9996C20.993 28.9996 20.993 28.9996 20.993 28.9996C20.993 28.9996 20.993 28.9996 20.993 28.9996C20.993 28.9996 20.993 28.9996 20.993 28.9996C20.993 28.9996 20.993 28.9996 20.993 28.9996C20.993 28.9996 20.993 28.9996 20.993 28.9996C20.993 28.9996 20.993 28.9996 20.993 28.9996C20.993 28.9996 20.993 28.9996 20.993 28.9996C20.993 28.9996 20.993 28.9996 20.993 28.9996C20.993 28.9996 20.993 28.9996 20.993 28.9996C20.993 28.9996 20.993 28.9996 20.993 28.9996C20.993 28.9996 20.993 28.9996 20.993 28.9996C20.993 28.9996 20.993 28.9996 20.993 28.9996C20.993 28.9996 20.993 28.9996 20.993 28.9996C20.993 28.9996 20.993 28.9996 20.993 28.9996C20.993 28.9996 20.993 28.9996 20.993 28.9996C20.993 28.9996 20.993 28.9996 20.993 28.9996C20.993 28.9996 20.993 28.9996 20.993 28.9996C20.993 28.9996 20.993 28.9996 20.993 28.9996C20.993 28.9996 20.993 28.9996 20.993 28.9996C20.993 28.9996 20.993 28.9996 20.993 28.9996C20.993 28.9996 20.993 28.9996 20.993 28.9996C20.993 28.9996 20.993 28.9996 20.9929 28.9996C20.9929 28.9996 20.9929 28.9996 20.9929 28.9996C20.9929 28.9996 20.9929 28.9996 20.9929 28.9996C20.9929 28.9996 20.9929 28.9996 20.9929 28.9996C20.9929 28.9996 20.9929 28.9996 20.9929 28.9996C20.9929 28.9996 20.9929 28.9996 20.9929 28.9996C20.9929 28.9996 20.9929 28.9996 20.9929 28.9996C20.9929 28.9996 20.9929 28.9996 20.9929 28.9996C20.9929 28.9996 20.9929 28.9996 20.9929 28.9996C20.9929 28.9996 20.9929 28.9996 20.9929 28.9996C20.9929 28.9996 20.9929 28.9996 20.9929 28.9996C20.9929 28.9996 20.9929 28.9996 20.9929 28.9996C20.9929 28.9996 20.9929 28.9996 20.9929 28.9996C20.9929 28.9996 20.9929 28.9996 20.9929 28.9996C20.9929 28.9996 20.9929 28.9996 20.9929 28.9996C20.9929 28.9996 20.9929 28.9996 20.9929 28.9996C20.9929 28.9996 20.9929 28.9996 20.9929 28.9996C20.9929 28.9996 20.9929 28.9996 20.9929 28.9996C20.9929 28.9996 20.9929 28.9996 20.9929 28.9996C20.9929 28.9996 20.9929 28.9996 20.9929 28.9996C20.9929 28.9996 20.9929 28.9996 20.9929 28.9996C20.9929 28.9996 20.9929 28.9996 20.9929 28.9996C20.9929 28.9996 20.9929 28.9996 20.9929 28.9996C20.9929 28.9996 20.9929 28.9996 20.9929 28.9996C20.9929 28.9996 20.9929 28.9996 20.9929 28.9996C20.9929 28.9996 20.9929 28.9996 20.9929 28.9996C20.9929 28.9996 20.9929 28.9996 20.9929 28.9996C20.9929 28.9996 20.9929 28.9996 20.9929 28.9996C20.9929 28.9996 20.9929 28.9996 20.9929 28.9996C20.9929 28.9996 20.9929 28.9996 20.9929 28.9996C20.9929 28.9996 20.9929 28.9996 20.9929 28.9996C20.9929 28.9996 20.9929 28.9996 20.9929 28.9996C20.9929 28.9996 20.9929 28.9996 20.9929 28.9996C20.9929 28.9996 20.9929 28.9996 20.9929 28.9996C20.9929 28.9996 20.9929 28.9996 20.9929 28.9996C20.9929 28.9996 20.9929 28.9996 20.9929 28.9996C20.9929 28.9996 20.9929 28.9996 20.9929 28.9996C20.9929 28.9996 20.9929 28.9996 20.9929 28.9996C20.9929 28.9996 20.9929 28.9996 20.9929 28.9996C20.9929 28.9996 20.9929 28.9996 20.9929 28.9996C20.9929 28.9996 20.9929 28.9996 20.9929 28.9996C20.9929 28.9996 20.9929 28.9996 20.9929 28.9996C20.9929 28.9996 20.9929 28.9996 20.9929 28.9996C20.9929 28.9996 20.9929 28.9996 20.9929 28.9996C20.9929 28.9996 20.9929 28.9996 20.9929 28.9996C20.9929 28.9996 20.9929 28.9996 20.9929 28.9996C20.9929 28.9996 20.9929 28.9996 20.9929 28.9996C20.9929 28.9996 20.9929 28.9996 20.9928 28.9996C20.9928 28.9996 20.9928 28.9996 20.9928 28.9996C20.9928 28.9996 20.9928 28.9996 20.9928 28.9996C20.9928 28.9996 20.9928 28.9996 20.9928 28.9996C20.9928 28.9996 20.9928 28.9996 20.9928 28.9996C20.9928 28.9996 20.9928 28.9996 20.9928 28.9996C20.9928 28.9996 20.9928 28.9996 20.9928 28.9996C20.9928 28.9996 20.9928 28.9996 20.9928 28.9996C20.9928 28.9996 20.9928 28.9996 20.9928 28.9996C20.9928 28.9996 20.9928 28.9996 20.9928 28.9996C20.9928 28.9996 20.9928 28.9996 20.9928 28.9996C20.9928 28.9996 20.9928 28.9996 20.9928 28.9996C20.9928 28.9996 20.9928 28.9996 20.9928 28.9996C20.9928 28.9996 20.9928 28.9996 20.9928 28.9996C20.9928 28.9996 20.9928 28.9996 20.9928 28.9996C20.9928 28.9996 20.9928 28.9996 20.9928 28.9996C20.9928 28.9996 20.9928 28.9996 20.9928 28.9996C20.9928 28.9996 20.9928 28.9996 20.9928 28.9996C20.9928 28.9996 20.9928 28.9996 20.9928 28.9996C20.9928 28.9996 20.9928 28.9996 20.9928 28.9996C20.9928 28.9996 20.9928 28.9996 20.9928 28.9996C20.9928 28.9996 20.9928 28.9996 20.9928 28.9996C20.9928 28.9996 20.9928 28.9996 20.9928 28.9996C20.9928 28.9996 20.9928 28.9996 20.9928 28.9996C20.9928 28.9996 20.9928 28.9996 20.9928 28.9996C20.9928 28.9996 20.9928 28.9996 20.9928 28.9996C20.9928 28.9996 20.9928 28.9996 20.9928 28.9996C20.9928 28.9996 20.9928 28.9996 20.9928 28.9996C20.9928 28.9996 20.9928 28.9996 20.9928 28.9996C20.9928 28.9996 20.9928 28.9996 20.9928 28.9996C20.9928 28.9996 20.9928 28.9996 20.9928 28.9996C20.9928 28.9996 20.9928 28.9996 20.9928 28.9996C20.9928 28.9996 20.9928 28.9996 20.9928 28.9996C20.9928 28.9996 20.9928 28.9996 20.9928 28.9996C20.9928 28.9996 20.9928 28.9996 20.9928 28.9996C20.9928 28.9996 20.9928 28.9996 20.9928 28.9996C20.9928 28.9996 20.9928 28.9996 20.9928 28.9996C20.9928 28.9996 20.9928 28.9996 20.9928 28.9996C20.9928 28.9996 20.9928 28.9996 20.9928 28.9996C20.9928 28.9996 20.9928 28.9996 20.9928 28.9996C20.9928 28.9996 20.9928 28.9996 20.9928 28.9996C20.9928 28.9996 20.9928 28.9996 20.9928 28.9996C20.9928 28.9996 20.9928 28.9996 20.9928 28.9996C20.9928 28.9996 20.9928 28.9996 20.9928 28.9996C20.9928 28.9996 20.9928 28.9996 20.9928 28.9996C20.9928 28.9996 20.9928 28.9996 20.9928 28.9996C20.9928 28.9996 20.9928 28.9996 20.9928 28.9996C20.9928 28.9996 20.9928 28.9996 20.9928 28.9996C20.9928 28.9996 20.9928 28.9996 20.9928 28.9996C20.9928 28.9996 20.9928 28.9996 20.9928 28.9996C20.9928 28.9996 20.9928 28.9996 20.9928 28.9996C20.9928 28.9996 20.9928 28.9996 20.9928 29.9996C20.9928 30.9996 20.9928 30.9996 20.9928 30.9996C20.9928 30.9996 20.9928 30.9996 20.9928 30.9996C20.9928 30.9996 20.9928 30.9996 20.9928 30.9996C20.9928 30.9996 20.9928 30.9996 20.9928 30.9996C20.9928 30.9996 20.9928 30.9996 20.9928 30.9996C20.9928 30.9996 20.9928 30.9996 20.9928 30.9996C20.9928 30.9996 20.9928 30.9996 20.9928 30.9996C20.9928 30.9996 20.9928 30.9996 20.9928 30.9996C20.9928 30.9996 20.9928 30.9996 20.9928 30.9996C20.9928 30.9996 20.9928 30.9996 20.9928 30.9996C20.9928 30.9996 20.9928 30.9996 20.9928 30.9996C20.9928 30.9996 20.9928 30.9996 20.9928 30.9996C20.9928 30.9996 20.9928 30.9996 20.9928 30.9996C20.9928 30.9996 20.9928 30.9996 20.9928 30.9996C20.9928 30.9996 20.9928 30.9996 20.9928 30.9996C20.9928 30.9996 20.9928 30.9996 20.9928 30.9996C20.9928 30.9996 20.9928 30.9996 20.9928 30.9996C20.9928 30.9996 20.9928 30.9996 20.9928 30.9996C20.9928 30.9996 20.9928 30.9996 20.9928 30.9996C20.9928 30.9996 20.9928 30.9996 20.9928 30.9996C20.9928 30.9996 20.9928 30.9996 20.9928 30.9996C20.9928 30.9996 20.9928 30.9996 20.9928 30.9996C20.9928 30.9996 20.9928 30.9996 20.9928 30.9996C20.9928 30.9996 20.9928 30.9996 20.9928 30.9996C20.9928 30.9996 20.9928 30.9996 20.9928 30.9996C20.9928 30.9996 20.9928 30.9996 20.9928 30.9996C20.9928 30.9996 20.9928 30.9996 20.9928 30.9996C20.9928 30.9996 20.9928 30.9996 20.9928 30.9996C20.9928 30.9996 20.9928 30.9996 20.9928 30.9996C20.9928 30.9996 20.9928 30.9996 20.9928 30.9996C20.9928 30.9996 20.9928 30.9996 20.9928 30.9996C20.9928 30.9996 20.9928 30.9996 20.9928 30.9996C20.9928 30.9996 20.9928 30.9996 20.9928 30.9996C20.9928 30.9996 20.9928 30.9996 20.9928 30.9996C20.9928 30.9996 20.9928 30.9996 20.9928 30.9996C20.9928 30.9996 20.9928 30.9996 20.9928 30.9996C20.9928 30.9996 20.9928 30.9996 20.9928 30.9996C20.9928 30.9996 20.9928 30.9996 20.9928 30.9996C20.9928 30.9996 20.9928 30.9996 20.9928 30.9996C20.9928 30.9996 20.9928 30.9996 20.9928 30.9996C20.9928 30.9996 20.9928 30.9996 20.9928 30.9996C20.9928 30.9996 20.9928 30.9996 20.9928 30.9996C20.9928 30.9996 20.9928 30.9996 20.9928 30.9996C20.9928 30.9996 20.9928 30.9996 20.9928 30.9996C20.9928 30.9996 20.9928 30.9996 20.9928 30.9996C20.9928 30.9996 20.9928 30.9996 20.9928 30.9996C20.9928 30.9996 20.9928 30.9996 20.9928 30.9996C20.9928 30.9996 20.9928 30.9996 20.9928 30.9996C20.9928 30.9996 20.9928 30.9996 20.9928 30.9996C20.9928 30.9996 20.9928 30.9996 20.9928 30.9996C20.9928 30.9996 20.9928 30.9996 20.9928 30.9996C20.9929 30.9996 20.9929 30.9996 20.9929 30.9996C20.9929 30.9996 20.9929 30.9996 20.9929 30.9996C20.9929 30.9996 20.9929 30.9996 20.9929 30.9996C20.9929 30.9996 20.9929 30.9996 20.9929 30.9996C20.9929 30.9996 20.9929 30.9996 20.9929 30.9996C20.9929 30.9996 20.9929 30.9996 20.9929 30.9996C20.9929 30.9996 20.9929 30.9996 20.9929 30.9996C20.9929 30.9996 20.9929 30.9996 20.9929 30.9996C20.9929 30.9996 20.9929 30.9996 20.9929 30.9996C20.9929 30.9996 20.9929 30.9996 20.9929 30.9996C20.9929 30.9996 20.9929 30.9996 20.9929 30.9996C20.9929 30.9996 20.9929 30.9996 20.9929 30.9996C20.9929 30.9996 20.9929 30.9996 20.9929 30.9996C20.9929 30.9996 20.9929 30.9996 20.9929 30.9996C20.9929 30.9996 20.9929 30.9996 20.9929 30.9996C20.9929 30.9996 20.9929 30.9996 20.9929 30.9996C20.9929 30.9996 20.9929 30.9996 20.9929 30.9996C20.9929 30.9996 20.9929 30.9996 20.9929 30.9996C20.9929 30.9996 20.9929 30.9996 20.9929 30.9996C20.9929 30.9996 20.9929 30.9996 20.9929 30.9996C20.9929 30.9996 20.9929 30.9996 20.9929 30.9996C20.9929 30.9996 20.9929 30.9996 20.9929 30.9996C20.9929 30.9996 20.9929 30.9996 20.9929 30.9996C20.9929 30.9996 20.9929 30.9996 20.9929 30.9996C20.9929 30.9996 20.9929 30.9996 20.9929 30.9996C20.9929 30.9996 20.9929 30.9996 20.9929 30.9996C20.9929 30.9996 20.9929 30.9996 20.9929 30.9996C20.9929 30.9996 20.9929 30.9996 20.9929 30.9996C20.9929 30.9996 20.9929 30.9996 20.9929 30.9996C20.9929 30.9996 20.9929 30.9996 20.9929 30.9996C20.9929 30.9996 20.9929 30.9996 20.9929 30.9996C20.9929 30.9996 20.9929 30.9996 20.9929 30.9996C20.9929 30.9996 20.9929 30.9996 20.9929 30.9996C20.9929 30.9996 20.9929 30.9996 20.9929 30.9996C20.9929 30.9996 20.9929 30.9996 20.9929 30.9996C20.9929 30.9996 20.9929 30.9996 20.9929 30.9996C20.9929 30.9996 20.9929 30.9996 20.9929 30.9996C20.9929 30.9996 20.9929 30.9996 20.9929 30.9996C20.9929 30.9996 20.9929 30.9996 20.9929 30.9996C20.9929 30.9996 20.9929 30.9996 20.9929 30.9996C20.9929 30.9996 20.9929 30.9996 20.9929 30.9996C20.9929 30.9996 20.9929 30.9996 20.9929 30.9996C20.9929 30.9996 20.9929 30.9996 20.9929 30.9996C20.9929 30.9996 20.9929 30.9996 20.9929 30.9996C20.9929 30.9996 20.9929 30.9996 20.9929 30.9996C20.9929 30.9996 20.9929 30.9996 20.9929 30.9996C20.9929 30.9996 20.9929 30.9996 20.9929 30.9996C20.993 30.9996 20.993 30.9996 20.993 30.9996C20.993 30.9996 20.993 30.9996 20.993 30.9996C20.993 30.9996 20.993 30.9996 20.993 30.9996C20.993 30.9996 20.993 30.9996 20.993 30.9996C20.993 30.9996 20.993 30.9996 20.993 30.9996C20.993 30.9996 20.993 30.9996 20.993 30.9996C20.993 30.9996 20.993 30.9996 20.993 30.9996C20.993 30.9996 20.993 30.9996 20.993 30.9996C20.993 30.9996 20.993 30.9996 20.993 30.9996C20.993 30.9996 20.993 30.9996 20.993 30.9996C20.993 30.9996 20.993 30.9996 20.993 30.9996C20.993 30.9996 20.993 30.9996 20.993 30.9996C20.993 30.9996 20.993 30.9996 20.993 30.9996C20.993 30.9996 20.993 30.9996 20.993 30.9996C20.993 30.9996 20.993 30.9996 20.993 30.9996C20.993 30.9996 20.993 30.9996 20.993 30.9996C20.993 30.9996 20.993 30.9996 20.993 30.9996C20.993 30.9996 20.993 30.9996 20.993 30.9996C20.993 30.9996 20.993 30.9996 20.993 30.9996C20.993 30.9996 20.993 30.9996 20.993 30.9996C20.993 30.9996 20.993 30.9996 20.993 30.9996C20.993 30.9996 20.993 30.9996 20.993 30.9996C20.993 30.9996 20.993 30.9996 20.993 30.9996C20.993 30.9996 20.993 30.9996 20.993 30.9996C20.993 30.9996 20.993 30.9996 20.993 30.9996C20.993 30.9996 20.993 30.9996 20.993 30.9996C20.993 30.9996 20.993 30.9996 20.993 30.9996C20.993 30.9996 20.993 30.9996 20.993 30.9996C20.993 30.9996 20.993 30.9996 20.993 30.9996C20.993 30.9996 20.993 30.9996 20.993 30.9996C20.993 30.9996 20.993 30.9996 20.9931 30.9996C20.9931 30.9996 20.9931 30.9996 20.9931 30.9996C20.9931 30.9996 20.9931 30.9996 20.9931 30.9996C20.9931 30.9996 20.9931 30.9996 20.9931 30.9996C20.9931 30.9996 20.9931 30.9996 20.9931 30.9996C20.9931 30.9996 20.9931 30.9996 20.9931 30.9996C20.9931 30.9996 20.9931 30.9996 20.9931 30.9996C20.9931 30.9996 20.9931 30.9996 20.9931 30.9996C20.9931 30.9996 20.9931 30.9996 20.9931 30.9996C20.9931 30.9996 20.9931 30.9996 20.9931 30.9996C20.9931 30.9996 20.9931 30.9996 20.9931 30.9996C20.9931 30.9996 20.9931 30.9996 20.9931 30.9996C20.9931 30.9996 20.9931 30.9996 20.9931 30.9996C20.9931 30.9996 20.9931 30.9996 20.9931 30.9996C20.9931 30.9996 20.9931 30.9996 20.9931 30.9996C20.9931 30.9996 20.9931 30.9996 20.9931 30.9996C20.9931 30.9996 20.9931 30.9996 20.9931 30.9996C20.9931 30.9996 20.9931 30.9996 20.9931 30.9996C20.9931 30.9996 20.9931 30.9996 20.9931 30.9996C20.9931 30.9996 20.9931 30.9996 20.9931 30.9996C20.9931 30.9996 20.9931 30.9996 20.9931 30.9996C20.9931 30.9996 20.9931 30.9996 20.9931 30.9996C20.9931 30.9996 20.9931 30.9996 20.9931 30.9996C20.9931 30.9996 20.9931 30.9996 20.9931 30.9996C20.9931 30.9996 20.9931 30.9996 20.9931 30.9996C20.9931 30.9996 20.9932 30.9996 20.9932 30.9996C20.9932 30.9996 20.9932 30.9996 20.9932 30.9996C20.9932 30.9996 20.9932 30.9996 20.9932 30.9996C20.9932 30.9996 20.9932 30.9996 20.9932 30.9996C20.9932 30.9996 20.9932 30.9996 20.9932 30.9996C20.9932 30.9996 20.9932 30.9996 20.9932 30.9996C20.9932 30.9996 20.9932 30.9996 20.9932 30.9996C20.9932 30.9996 20.9932 30.9996 20.9932 30.9996C20.9932 30.9996 20.9932 30.9996 20.9932 30.9996C20.9932 30.9996 20.9932 30.9996 20.9932 30.9996C20.9932 30.9996 20.9932 30.9996 20.9932 30.9996C20.9932 30.9996 20.9932 30.9996 20.9932 30.9996C20.9932 30.9996 20.9932 30.9996 20.9932 30.9996C20.9932 30.9996 20.9932 30.9996 20.9932 30.9996C20.9932 30.9996 20.9932 30.9996 20.9932 30.9996C20.9932 30.9996 20.9932 30.9996 20.9932 30.9996C20.9932 30.9996 20.9932 30.9996 20.9932 30.9996C20.9932 30.9996 20.9932 30.9996 20.9932 30.9996C20.9932 30.9996 20.9932 30.9996 20.9932 30.9996C20.9932 30.9996 20.9932 30.9996 20.9932 30.9996C20.9932 30.9996 20.9932 30.9996 20.9932 30.9996C20.9932 30.9996 20.9932 30.9996 20.9933 30.9996C20.9933 30.9996 20.9933 30.9996 20.9933 30.9996C20.9933 30.9996 20.9933 30.9996 20.9933 30.9996C20.9933 30.9996 20.9933 30.9996 20.9933 30.9996C20.9933 30.9996 20.9933 30.9996 20.9933 30.9996C20.9933 30.9996 20.9933 30.9996 20.9933 30.9996C20.9933 30.9996 20.9933 30.9996 20.9933 30.9996C20.9933 30.9996 20.9933 30.9996 20.9933 30.9996C20.9933 30.9996 20.9933 30.9996 20.9933 30.9996C20.9933 30.9996 20.9933 30.9996 20.9933 30.9996C20.9933 30.9996 20.9933 30.9996 20.9933 30.9996C20.9933 30.9996 20.9933 30.9996 20.9933 30.9996C20.9933 30.9996 20.9933 30.9996 20.9933 30.9996C20.9933 30.9996 20.9933 30.9996 20.9933 30.9996C20.9933 30.9996 20.9933 30.9996 20.9933 30.9996C20.9933 30.9996 20.9933 30.9996 20.9933 30.9996C20.9933 30.9996 20.9933 30.9996 20.9933 30.9996C20.9933 30.9996 20.9933 30.9996 20.9933 30.9996C20.9933 30.9996 20.9933 30.9996 20.9933 30.9996C20.9933 30.9996 20.9933 30.9996 20.9934 30.9996C20.9934 30.9996 20.9934 30.9996 20.9934 30.9996C20.9934 30.9996 20.9934 30.9996 20.9934 30.9996C20.9934 30.9996 20.9934 30.9996 20.9934 30.9996C20.9934 30.9996 20.9934 30.9996 20.9934 30.9996C20.9934 30.9996 20.9934 30.9996 20.9934 30.9996C20.9934 30.9996 20.9934 30.9996 20.9934 30.9996C20.9934 30.9996 20.9934 30.9996 20.9934 30.9996C20.9934 30.9996 20.9934 30.9996 20.9934 30.9996C20.9934 30.9996 20.9934 30.9996 20.9934 30.9996C20.9934 30.9996 20.9934 30.9996 20.9934 30.9996C20.9934 30.9996 20.9934 30.9996 20.9934 30.9996C20.9934 30.9996 20.9934 30.9996 20.9934 30.9996C20.9934 30.9996 20.9934 30.9996 20.9934 30.9996C20.9934 30.9996 20.9934 30.9996 20.9934 30.9996C20.9934 30.9996 20.9934 30.9996 20.9934 30.9996C20.9934 30.9996 20.9934 30.9996 20.9934 30.9996C20.9934 30.9996 20.9934 30.9996 20.9934 30.9996C20.9935 30.9996 20.9935 30.9996 20.9935 30.9996C20.9935 30.9996 20.9935 30.9996 20.9935 30.9996C20.9935 30.9996 20.9935 30.9996 20.9935 30.9996C20.9935 30.9996 20.9935 30.9996 20.9935 30.9996C20.9935 30.9996 20.9935 30.9996 20.9935 30.9996C20.9935 30.9996 20.9935 30.9996 20.9935 30.9996C20.9935 30.9996 20.9935 30.9996 20.9935 30.9996C20.9935 30.9996 20.9935 30.9996 20.9935 30.9996C20.9935 30.9996 20.9935 30.9996 20.9935 30.9996C20.9935 30.9996 20.9935 30.9996 20.9935 30.9996C20.9935 30.9996 20.9935 30.9996 20.9935 30.9996C20.9935 30.9996 20.9935 30.9996 20.9935 30.9996C20.9935 30.9996 20.9935 30.9996 20.9935 30.9996C20.9935 30.9996 20.9935 30.9996 20.9935 30.9996C20.9935 30.9996 20.9935 30.9996 20.9935 30.9996C20.9935 30.9996 20.9935 30.9996 20.9935 30.9996C20.9936 30.9996 20.9936 30.9996 20.9936 30.9996C20.9936 30.9996 20.9936 30.9996 20.9936 30.9996C20.9936 30.9996 20.9936 30.9996 20.9936 30.9996C20.9936 30.9996 20.9936 30.9996 20.9936 30.9996C20.9936 30.9996 20.9936 30.9996 20.9936 30.9996C20.9936 30.9996 20.9936 30.9996 20.9936 30.9996C20.9936 30.9996 20.9936 30.9996 20.9936 30.9996C20.9936 30.9996 20.9936 30.9996 20.9936 30.9996C20.9936 30.9996 20.9936 30.9996 20.9936 30.9996C20.9936 30.9996 20.9936 30.9996 20.9936 30.9996C20.9936 30.9996 20.9936 30.9996 20.9936 30.9996C20.9936 30.9996 20.9936 30.9996 20.9936 30.9996C20.9936 30.9996 20.9936 30.9996 20.9936 30.9996C20.9936 30.9996 20.9936 30.9996 20.9936 30.9996C20.9936 30.9996 20.9936 30.9996 20.9937 30.9996C20.9937 30.9996 20.9937 30.9996 20.9937 30.9996C20.9937 30.9996 20.9937 30.9996 20.9937 30.9996C20.9937 30.9996 20.9937 30.9996 20.9937 30.9996C20.9937 30.9996 20.9937 30.9996 20.9937 30.9996C20.9937 30.9996 20.9937 30.9996 20.9937 30.9996C20.9937 30.9996 20.9937 30.9996 20.9937 30.9996C20.9937 30.9996 20.9937 30.9996 20.9937 30.9996C20.9937 30.9996 20.9937 30.9996 20.9937 30.9996C20.9937 30.9996 20.9937 30.9996 20.9937 30.9996C20.9937 30.9996 20.9937 30.9996 20.9937 30.9996C20.9937 30.9996 20.9937 30.9996 20.9937 30.9996C20.9937 30.9996 20.9937 30.9996 20.9937 30.9996C20.9937 30.9996 20.9937 30.9996 20.9937 30.9996C20.9937 30.9996 20.9937 30.9996 20.9938 30.9996V28.9996C20.9937 28.9996 20.9937 28.9996 20.9937 28.9996C20.9937 28.9996 20.9937 28.9996 20.9937 28.9996C20.9937 28.9996 20.9937 28.9996 20.9937 28.9996C20.9937 28.9996 20.9937 28.9996 20.9937 28.9996C20.9937 28.9996 20.9937 28.9996 20.9937 28.9996C20.9937 28.9996 20.9937 28.9996 20.9937 28.9996C20.9937 28.9996 20.9937 28.9996 20.9937 28.9996C20.9937 28.9996 20.9937 28.9996 20.9937 28.9996C20.9937 28.9996 20.9937 28.9996 20.9937 28.9996C20.9937 28.9996 20.9937 28.9996 20.9937 28.9996C20.9937 28.9996 20.9937 28.9996 20.9937 28.9996C20.9937 28.9996 20.9937 28.9996 20.9937 28.9996C20.9937 28.9996 20.9937 28.9996 20.9937 28.9996C20.9937 28.9996 20.9937 28.9996 20.9937 28.9996C20.9936 28.9996 20.9936 28.9996 20.9936 28.9996C20.9936 28.9996 20.9936 28.9996 20.9936 28.9996C20.9936 28.9996 20.9936 28.9996 20.9936 28.9996C20.9936 28.9996 20.9936 28.9996 20.9936 28.9996C20.9936 28.9996 20.9936 28.9996 20.9936 28.9996C20.9936 28.9996 20.9936 28.9996 20.9936 28.9996C20.9936 28.9996 20.9936 28.9996 20.9936 28.9996C20.9936 28.9996 20.9936 28.9996 20.9936 28.9996C20.9936 28.9996 20.9936 28.9996 20.9936 28.9996C20.9936 28.9996 20.9936 28.9996 20.9936 28.9996C20.9936 28.9996 20.9936 28.9996 20.9936 28.9996C20.9936 28.9996 20.9936 28.9996 20.9936 28.9996C20.9936 28.9996 20.9936 28.9996 20.9936 28.9996C20.9936 28.9996 20.9936 28.9996 20.9936 28.9996C20.9936 28.9996 20.9936 28.9996 20.9935 28.9996C20.9935 28.9996 20.9935 28.9996 20.9935 28.9996C20.9935 28.9996 20.9935 28.9996 20.9935 28.9996C20.9935 28.9996 20.9935 28.9996 20.9935 28.9996C20.9935 28.9996 20.9935 28.9996 20.9935 28.9996C20.9935 28.9996 20.9935 28.9996 20.9935 28.9996C20.9935 28.9996 20.9935 28.9996 20.9935 28.9996C20.9935 28.9996 20.9935 28.9996 20.9935 28.9996C20.9935 28.9996 20.9935 28.9996 20.9935 28.9996C20.9935 28.9996 20.9935 28.9996 20.9935 28.9996C20.9935 28.9996 20.9935 28.9996 20.9935 28.9996C20.9935 28.9996 20.9935 28.9996 20.9935 28.9996C20.9935 28.9996 20.9935 28.9996 20.9935 28.9996C20.9935 28.9996 20.9935 28.9996 20.9935 28.9996C20.9935 28.9996 20.9935 28.9996 20.9935 28.9996C20.9935 28.9996 20.9935 28.9996 20.9935 28.9996C20.9935 28.9996 20.9935 28.9996 20.9934 28.9996C20.9934 28.9996 20.9934 28.9996 20.9934 28.9996C20.9934 28.9996 20.9934 28.9996 20.9934 28.9996C20.9934 28.9996 20.9934 28.9996 20.9934 28.9996C20.9934 28.9996 20.9934 28.9996 20.9934 28.9996C20.9934 28.9996 20.9934 28.9996 20.9934 28.9996C20.9934 28.9996 20.9934 28.9996 20.9934 28.9996C20.9934 28.9996 20.9934 28.9996 20.9934 28.9996C20.9934 28.9996 20.9934 28.9996 20.9934 28.9996C20.9934 28.9996 20.9934 28.9996 20.9934 28.9996C20.9934 28.9996 20.9934 28.9996 20.9934 28.9996C20.9934 28.9996 20.9934 28.9996 20.9934 28.9996C20.9934 28.9996 20.9934 28.9996 20.9934 28.9996C20.9934 28.9996 20.9934 28.9996 20.9934 28.9996C20.9934 28.9996 20.9934 28.9996 20.9934 28.9996C20.9934 28.9996 20.9934 28.9996 20.9934 28.9996C20.9934 28.9996 20.9934 28.9996 20.9934 28.9996C20.9934 28.9996 20.9934 28.9996 20.9934 28.9996C20.9933 28.9996 20.9933 28.9996 20.9933 28.9996C20.9933 28.9996 20.9933 28.9996 20.9933 28.9996C20.9933 28.9996 20.9933 28.9996 20.9933 28.9996C20.9933 28.9996 20.9933 28.9996 20.9933 28.9996C20.9933 28.9996 20.9933 28.9996 20.9933 28.9996C20.9933 28.9996 20.9933 28.9996 20.9933 28.9996C20.9933 28.9996 20.9933 28.9996 20.9933 28.9996C20.9933 28.9996 20.9933 28.9996 20.9933 28.9996C20.9933 28.9996 20.9933 28.9996 20.9933 28.9996C20.9933 28.9996 20.9933 28.9996 20.9933 28.9996C20.9933 28.9996 20.9933 28.9996 20.9933 28.9996C20.9933 28.9996 20.9933 28.9996 20.9933 28.9996C20.9933 28.9996 20.9933 28.9996 20.9933 28.9996C20.9933 28.9996 20.9933 28.9996 20.9933 28.9996C20.9933 28.9996 20.9933 28.9996 20.9933 28.9996C20.9933 28.9996 20.9933 28.9996 20.9933 28.9996C20.9933 28.9996 20.9933 28.9996 20.9933 28.9996C20.9933 28.9996 20.9933 28.9996 20.9933 28.9996C20.9933 28.9996 20.9933 28.9996 20.9933 28.9996C20.9932 28.9996 20.9932 28.9996 20.9932 28.9996C20.9932 28.9996 20.9932 28.9996 20.9932 28.9996C20.9932 28.9996 20.9932 28.9996 20.9932 28.9996C20.9932 28.9996 20.9932 28.9996 20.9932 28.9996C20.9932 28.9996 20.9932 28.9996 20.9932 28.9996C20.9932 28.9996 20.9932 28.9996 20.9932 28.9996C20.9932 28.9996 20.9932 28.9996 20.9932 28.9996C20.9932 28.9996 20.9932 28.9996 20.9932 28.9996C20.9932 28.9996 20.9932 28.9996 20.9932 28.9996C20.9932 28.9996 20.9932 28.9996 20.9932 28.9996C20.9932 28.9996 20.9932 28.9996 20.9932 28.9996C20.9932 28.9996 20.9932 28.9996 20.9932 28.9996C20.9932 28.9996 20.9932 28.9996 20.9932 28.9996C20.9932 28.9996 20.9932 28.9996 20.9932 28.9996C20.9932 28.9996 20.9932 28.9996 20.9932 28.9996C20.9932 28.9996 20.9932 28.9996 20.9932 28.9996C20.9932 28.9996 20.9932 28.9996 20.9932 28.9996C20.9932 28.9996 20.9932 28.9996 20.9932 28.9996C20.9932 28.9996 20.9932 28.9996 20.9932 28.9996C20.9932 28.9996 20.9932 28.9996 20.9932 28.9996C20.9932 28.9996 20.9932 28.9996 20.9932 28.9996C20.9932 28.9996 20.9931 28.9996 20.9931 28.9996C20.9931 28.9996 20.9931 28.9996 20.9931 28.9996C20.9931 28.9996 20.9931 28.9996 20.9931 28.9996C20.9931 28.9996 20.9931 28.9996 20.9931 28.9996C20.9931 28.9996 20.9931 28.9996 20.9931 28.9996C20.9931 28.9996 20.9931 28.9996 20.9931 28.9996C20.9931 28.9996 20.9931 28.9996 20.9931 28.9996C20.9931 28.9996 20.9931 28.9996 20.9931 28.9996C20.9931 28.9996 20.9931 28.9996 20.9931 28.9996C20.9931 28.9996 20.9931 28.9996 20.9931 28.9996C20.9931 28.9996 20.9931 28.9996 20.9931 28.9996C20.9931 28.9996 20.9931 28.9996 20.9931 28.9996C20.9931 28.9996 20.9931 28.9996 20.9931 28.9996C20.9931 28.9996 20.9931 28.9996 20.9931 28.9996C20.9931 28.9996 20.9931 28.9996 20.9931 28.9996C20.9931 28.9996 20.9931 28.9996 20.9931 28.9996C20.9931 28.9996 20.9931 28.9996 20.9931 28.9996C20.9931 28.9996 20.9931 28.9996 20.9931 28.9996C20.9931 28.9996 20.9931 28.9996 20.9931 28.9996C20.9931 28.9996 20.9931 28.9996 20.9931 28.9996C20.9931 28.9996 20.9931 28.9996 20.9931 28.9996C20.9931 28.9996 20.9931 28.9996 20.9931 28.9996C20.9931 28.9996 20.9931 28.9996 20.9931 28.9996C20.9931 28.9996 20.9931 28.9996 20.9931 28.9996C20.9931 28.9996 20.9931 28.9996 20.9931 28.9996C20.993 28.9996 20.993 28.9996 20.993 28.9996C20.993 28.9996 20.993 28.9996 20.993 28.9996C20.993 28.9996 20.993 28.9996 20.993 28.9996C20.993 28.9996 20.993 28.9996 20.993 28.9996C20.993 28.9996 20.993 28.9996 20.993 28.9996C20.993 28.9996 20.993 28.9996 20.993 28.9996C20.993 28.9996 20.993 28.9996 20.993 28.9996C20.993 28.9996 20.993 28.9996 20.993 28.9996C20.993 28.9996 20.993 28.9996 20.993 28.9996C20.993 28.9996 20.993 28.9996 20.993 28.9996C20.993 28.9996 20.993 28.9996 20.993 28.9996C20.993 28.9996 20.993 28.9996 20.993 28.9996C20.993 28.9996 20.993 28.9996 20.993 28.9996C20.993 28.9996 20.993 28.9996 20.993 28.9996C20.993 28.9996 20.993 28.9996 20.993 28.9996C20.993 28.9996 20.993 28.9996 20.993 28.9996C20.993 28.9996 20.993 28.9996 20.993 28.9996C20.993 28.9996 20.993 28.9996 20.993 28.9996C20.993 28.9996 20.993 28.9996 20.993 28.9996C20.993 28.9996 20.993 28.9996 20.993 28.9996C20.993 28.9996 20.993 28.9996 20.993 28.9996C20.993 28.9996 20.993 28.9996 20.993 28.9996C20.993 28.9996 20.993 28.9996 20.993 28.9996C20.993 28.9996 20.993 28.9996 20.993 28.9996C20.993 28.9996 20.993 28.9996 20.993 28.9996C20.993 28.9996 20.993 28.9996 20.993 28.9996C20.993 28.9996 20.993 28.9996 20.993 28.9996C20.993 28.9996 20.993 28.9996 20.993 28.9996C20.993 28.9996 20.993 28.9996 20.993 28.9996C20.993 28.9996 20.993 28.9996 20.993 28.9996C20.993 28.9996 20.993 28.9996 20.9929 28.9996C20.9929 28.9996 20.9929 28.9996 20.9929 28.9996C20.9929 28.9996 20.9929 28.9996 20.9929 28.9996C20.9929 28.9996 20.9929 28.9996 20.9929 28.9996C20.9929 28.9996 20.9929 28.9996 20.9929 28.9996C20.9929 28.9996 20.9929 28.9996 20.9929 28.9996C20.9929 28.9996 20.9929 28.9996 20.9929 28.9996C20.9929 28.9996 20.9929 28.9996 20.9929 28.9996C20.9929 28.9996 20.9929 28.9996 20.9929 28.9996C20.9929 28.9996 20.9929 28.9996 20.9929 28.9996C20.9929 28.9996 20.9929 28.9996 20.9929 28.9996C20.9929 28.9996 20.9929 28.9996 20.9929 28.9996C20.9929 28.9996 20.9929 28.9996 20.9929 28.9996C20.9929 28.9996 20.9929 28.9996 20.9929 28.9996C20.9929 28.9996 20.9929 28.9996 20.9929 28.9996C20.9929 28.9996 20.9929 28.9996 20.9929 28.9996C20.9929 28.9996 20.9929 28.9996 20.9929 28.9996C20.9929 28.9996 20.9929 28.9996 20.9929 28.9996C20.9929 28.9996 20.9929 28.9996 20.9929 28.9996C20.9929 28.9996 20.9929 28.9996 20.9929 28.9996C20.9929 28.9996 20.9929 28.9996 20.9929 28.9996C20.9929 28.9996 20.9929 28.9996 20.9929 28.9996C20.9929 28.9996 20.9929 28.9996 20.9929 28.9996C20.9929 28.9996 20.9929 28.9996 20.9929 28.9996C20.9929 28.9996 20.9929 28.9996 20.9929 28.9996C20.9929 28.9996 20.9929 28.9996 20.9929 28.9996C20.9929 28.9996 20.9929 28.9996 20.9929 28.9996C20.9929 28.9996 20.9929 28.9996 20.9929 28.9996C20.9929 28.9996 20.9929 28.9996 20.9929 28.9996C20.9929 28.9996 20.9929 28.9996 20.9929 28.9996C20.9929 28.9996 20.9929 28.9996 20.9929 28.9996C20.9929 28.9996 20.9929 28.9996 20.9929 28.9996C20.9929 28.9996 20.9929 28.9996 20.9929 28.9996C20.9929 28.9996 20.9929 28.9996 20.9929 28.9996C20.9929 28.9996 20.9929 28.9996 20.9929 28.9996C20.9929 28.9996 20.9929 28.9996 20.9929 28.9996C20.9929 28.9996 20.9929 28.9996 20.9929 28.9996C20.9929 28.9996 20.9929 28.9996 20.9929 28.9996C20.9929 28.9996 20.9929 28.9996 20.9929 28.9996C20.9929 28.9996 20.9929 28.9996 20.9929 28.9996C20.9929 28.9996 20.9929 28.9996 20.9929 28.9996C20.9929 28.9996 20.9929 28.9996 20.9929 28.9996C20.9929 28.9996 20.9929 28.9996 20.9929 28.9996C20.9929 28.9996 20.9929 28.9996 20.9929 28.9996C20.9929 28.9996 20.9929 28.9996 20.9929 28.9996C20.9929 28.9996 20.9929 28.9996 20.9929 28.9996C20.9929 28.9996 20.9929 28.9996 20.9929 28.9996C20.9929 28.9996 20.9929 28.9996 20.9928 28.9996C20.9928 28.9996 20.9928 28.9996 20.9928 28.9996C20.9928 28.9996 20.9928 28.9996 20.9928 28.9996C20.9928 28.9996 20.9928 28.9996 20.9928 28.9996C20.9928 28.9996 20.9928 28.9996 20.9928 28.9996C20.9928 28.9996 20.9928 28.9996 20.9928 28.9996C20.9928 28.9996 20.9928 28.9996 20.9928 28.9996C20.9928 28.9996 20.9928 28.9996 20.9928 28.9996C20.9928 28.9996 20.9928 28.9996 20.9928 28.9996C20.9928 28.9996 20.9928 28.9996 20.9928 28.9996C20.9928 28.9996 20.9928 28.9996 20.9928 28.9996C20.9928 28.9996 20.9928 28.9996 20.9928 28.9996C20.9928 28.9996 20.9928 28.9996 20.9928 28.9996C20.9928 28.9996 20.9928 28.9996 20.9928 28.9996C20.9928 28.9996 20.9928 28.9996 20.9928 28.9996C20.9928 28.9996 20.9928 28.9996 20.9928 28.9996C20.9928 28.9996 20.9928 28.9996 20.9928 28.9996C20.9928 28.9996 20.9928 28.9996 20.9928 28.9996C20.9928 28.9996 20.9928 28.9996 20.9928 28.9996C20.9928 28.9996 20.9928 28.9996 20.9928 28.9996C20.9928 28.9996 20.9928 28.9996 20.9928 28.9996C20.9928 28.9996 20.9928 28.9996 20.9928 28.9996C20.9928 28.9996 20.9928 28.9996 20.9928 28.9996C20.9928 28.9996 20.9928 28.9996 20.9928 28.9996C20.9928 28.9996 20.9928 28.9996 20.9928 28.9996C20.9928 28.9996 20.9928 28.9996 20.9928 28.9996C20.9928 28.9996 20.9928 28.9996 20.9928 28.9996C20.9928 28.9996 20.9928 28.9996 20.9928 28.9996C20.9928 28.9996 20.9928 28.9996 20.9928 28.9996C20.9928 28.9996 20.9928 28.9996 20.9928 28.9996C20.9928 28.9996 20.9928 28.9996 20.9928 28.9996C20.9928 28.9996 20.9928 28.9996 20.9928 28.9996C20.9928 28.9996 20.9928 28.9996 20.9928 28.9996C20.9928 28.9996 20.9928 28.9996 20.9928 28.9996C20.9928 28.9996 20.9928 28.9996 20.9928 28.9996C20.9928 28.9996 20.9928 28.9996 20.9928 28.9996C20.9928 28.9996 20.9928 28.9996 20.9928 28.9996C20.9928 28.9996 20.9928 28.9996 20.9928 28.9996C20.9928 28.9996 20.9928 28.9996 20.9928 28.9996C20.9928 28.9996 20.9928 28.9996 20.9928 28.9996C20.9928 28.9996 20.9928 28.9996 20.9928 28.9996C20.9928 28.9996 20.9928 28.9996 20.9928 28.9996C20.9928 28.9996 20.9928 28.9996 20.9928 28.9996C20.9928 28.9996 20.9928 28.9996 20.9928 28.9996C20.9928 28.9996 20.9928 28.9996 20.9928 28.9996C20.9928 28.9996 20.9928 28.9996 20.9928 28.9996C20.9928 28.9996 20.9928 28.9996 20.9928 28.9996C20.9928 28.9996 20.9928 28.9996 20.9928 28.9996C20.9928 28.9996 20.9928 28.9996 20.9928 28.9996C20.9928 28.9996 20.9928 28.9996 20.9928 28.9996C20.9928 28.9996 20.9928 28.9996 20.9928 28.9996C20.9928 28.9996 20.9928 28.9996 20.9928 29.9996C20.9928 30.9996 20.9928 30.9996 20.9928 30.9996C20.9928 30.9996 20.9928 30.9996 20.9928 30.9996C20.9928 30.9996 20.9928 30.9996 20.9928 30.9996C20.9928 30.9996 20.9928 30.9996 20.9928 30.9996C20.9928 30.9996 20.9928 30.9996 20.9928 30.9996C20.9928 30.9996 20.9928 30.9996 20.9928 30.9996C20.9928 30.9996 20.9928 30.9996 20.9928 30.9996C20.9928 30.9996 20.9928 30.9996 20.9928 30.9996C20.9928 30.9996 20.9928 30.9996 20.9928 30.9996C20.9928 30.9996 20.9928 30.9996 20.9928 30.9996C20.9928 30.9996 20.9928 30.9996 20.9928 30.9996C20.9928 30.9996 20.9928 30.9996 20.9928 30.9996C20.9928 30.9996 20.9928 30.9996 20.9928 30.9996C20.9928 30.9996 20.9928 30.9996 20.9928 30.9996C20.9928 30.9996 20.9928 30.9996 20.9928 30.9996C20.9928 30.9996 20.9928 30.9996 20.9928 30.9996C20.9928 30.9996 20.9928 30.9996 20.9928 30.9996C20.9928 30.9996 20.9928 30.9996 20.9928 30.9996C20.9928 30.9996 20.9928 30.9996 20.9928 30.9996C20.9928 30.9996 20.9928 30.9996 20.9928 30.9996C20.9928 30.9996 20.9928 30.9996 20.9928 30.9996C20.9928 30.9996 20.9928 30.9996 20.9928 30.9996C20.9928 30.9996 20.9928 30.9996 20.9928 30.9996C20.9928 30.9996 20.9928 30.9996 20.9928 30.9996C20.9928 30.9996 20.9928 30.9996 20.9928 30.9996C20.9928 30.9996 20.9928 30.9996 20.9928 30.9996C20.9928 30.9996 20.9928 30.9996 20.9928 30.9996C20.9928 30.9996 20.9928 30.9996 20.9928 30.9996C20.9928 30.9996 20.9928 30.9996 20.9928 30.9996C20.9928 30.9996 20.9928 30.9996 20.9928 30.9996C20.9928 30.9996 20.9928 30.9996 20.9928 30.9996C20.9928 30.9996 20.9928 30.9996 20.9928 30.9996C20.9928 30.9996 20.9928 30.9996 20.9928 30.9996C20.9928 30.9996 20.9928 30.9996 20.9928 30.9996C20.9928 30.9996 20.9928 30.9996 20.9928 30.9996C20.9928 30.9996 20.9928 30.9996 20.9928 30.9996C20.9928 30.9996 20.9928 30.9996 20.9928 30.9996C20.9928 30.9996 20.9928 30.9996 20.9928 30.9996C20.9928 30.9996 20.9928 30.9996 20.9928 30.9996C20.9928 30.9996 20.9928 30.9996 20.9928 30.9996C20.9928 30.9996 20.9928 30.9996 20.9928 30.9996C20.9928 30.9996 20.9928 30.9996 20.9928 30.9996C20.9928 30.9996 20.9928 30.9996 20.9928 30.9996C20.9928 30.9996 20.9928 30.9996 20.9928 30.9996C20.9928 30.9996 20.9928 30.9996 20.9928 30.9996C20.9928 30.9996 20.9928 30.9996 20.9928 30.9996C20.9928 30.9996 20.9928 30.9996 20.9928 30.9996C20.9928 30.9996 20.9928 30.9996 20.9928 30.9996C20.9928 30.9996 20.9928 30.9996 20.9928 30.9996C20.9928 30.9996 20.9928 30.9996 20.9928 30.9996C20.9928 30.9996 20.9928 30.9996 20.9928 30.9996C20.9929 30.9996 20.9929 30.9996 20.9929 30.9996C20.9929 30.9996 20.9929 30.9996 20.9929 30.9996C20.9929 30.9996 20.9929 30.9996 20.9929 30.9996C20.9929 30.9996 20.9929 30.9996 20.9929 30.9996C20.9929 30.9996 20.9929 30.9996 20.9929 30.9996C20.9929 30.9996 20.9929 30.9996 20.9929 30.9996C20.9929 30.9996 20.9929 30.9996 20.9929 30.9996C20.9929 30.9996 20.9929 30.9996 20.9929 30.9996C20.9929 30.9996 20.9929 30.9996 20.9929 30.9996C20.9929 30.9996 20.9929 30.9996 20.9929 30.9996C20.9929 30.9996 20.9929 30.9996 20.9929 30.9996C20.9929 30.9996 20.9929 30.9996 20.9929 30.9996C20.9929 30.9996 20.9929 30.9996 20.9929 30.9996C20.9929 30.9996 20.9929 30.9996 20.9929 30.9996C20.9929 30.9996 20.9929 30.9996 20.9929 30.9996C20.9929 30.9996 20.9929 30.9996 20.9929 30.9996C20.9929 30.9996 20.9929 30.9996 20.9929 30.9996C20.9929 30.9996 20.9929 30.9996 20.9929 30.9996C20.9929 30.9996 20.9929 30.9996 20.9929 30.9996C20.9929 30.9996 20.9929 30.9996 20.9929 30.9996C20.9929 30.9996 20.9929 30.9996 20.9929 30.9996C20.9929 30.9996 20.9929 30.9996 20.9929 30.9996C20.9929 30.9996 20.9929 30.9996 20.9929 30.9996C20.9929 30.9996 20.9929 30.9996 20.9929 30.9996C20.9929 30.9996 20.9929 30.9996 20.9929 30.9996C20.9929 30.9996 20.9929 30.9996 20.9929 30.9996C20.9929 30.9996 20.9929 30.9996 20.9929 30.9996C20.9929 30.9996 20.9929 30.9996 20.9929 30.9996C20.9929 30.9996 20.9929 30.9996 20.9929 30.9996C20.9929 30.9996 20.9929 30.9996 20.9929 30.9996C20.9929 30.9996 20.9929 30.9996 20.9929 30.9996C20.9929 30.9996 20.9929 30.9996 20.9929 30.9996C20.9929 30.9996 20.9929 30.9996 20.9929 30.9996C20.9929 30.9996 20.9929 30.9996 20.9929 30.9996C20.9929 30.9996 20.9929 30.9996 20.9929 30.9996C20.9929 30.9996 20.9929 30.9996 20.9929 30.9996C20.9929 30.9996 20.9929 30.9996 20.9929 30.9996C20.9929 30.9996 20.9929 30.9996 20.9929 30.9996C20.9929 30.9996 20.9929 30.9996 20.9929 30.9996C20.9929 30.9996 20.9929 30.9996 20.9929 30.9996C20.9929 30.9996 20.9929 30.9996 20.9929 30.9996C20.9929 30.9996 20.9929 30.9996 20.9929 30.9996C20.9929 30.9996 20.9929 30.9996 20.9929 30.9996C20.9929 30.9996 20.9929 30.9996 20.9929 30.9996C20.9929 30.9996 20.9929 30.9996 20.9929 30.9996C20.9929 30.9996 20.9929 30.9996 20.9929 30.9996C20.9929 30.9996 20.9929 30.9996 20.9929 30.9996C20.993 30.9996 20.993 30.9996 20.993 30.9996C20.993 30.9996 20.993 30.9996 20.993 30.9996C20.993 30.9996 20.993 30.9996 20.993 30.9996C20.993 30.9996 20.993 30.9996 20.993 30.9996C20.993 30.9996 20.993 30.9996 20.993 30.9996C20.993 30.9996 20.993 30.9996 20.993 30.9996C20.993 30.9996 20.993 30.9996 20.993 30.9996C20.993 30.9996 20.993 30.9996 20.993 30.9996C20.993 30.9996 20.993 30.9996 20.993 30.9996C20.993 30.9996 20.993 30.9996 20.993 30.9996C20.993 30.9996 20.993 30.9996 20.993 30.9996C20.993 30.9996 20.993 30.9996 20.993 30.9996C20.993 30.9996 20.993 30.9996 20.993 30.9996C20.993 30.9996 20.993 30.9996 20.993 30.9996C20.993 30.9996 20.993 30.9996 20.993 30.9996C20.993 30.9996 20.993 30.9996 20.993 30.9996C20.993 30.9996 20.993 30.9996 20.993 30.9996C20.993 30.9996 20.993 30.9996 20.993 30.9996C20.993 30.9996 20.993 30.9996 20.993 30.9996C20.993 30.9996 20.993 30.9996 20.993 30.9996C20.993 30.9996 20.993 30.9996 20.993 30.9996C20.993 30.9996 20.993 30.9996 20.993 30.9996C20.993 30.9996 20.993 30.9996 20.993 30.9996C20.993 30.9996 20.993 30.9996 20.993 30.9996C20.993 30.9996 20.993 30.9996 20.993 30.9996C20.993 30.9996 20.993 30.9996 20.993 30.9996C20.993 30.9996 20.993 30.9996 20.993 30.9996C20.993 30.9996 20.993 30.9996 20.993 30.9996C20.993 30.9996 20.993 30.9996 20.993 30.9996C20.993 30.9996 20.993 30.9996 20.993 30.9996C20.993 30.9996 20.993 30.9996 20.9931 30.9996C20.9931 30.9996 20.9931 30.9996 20.9931 30.9996C20.9931 30.9996 20.9931 30.9996 20.9931 30.9996C20.9931 30.9996 20.9931 30.9996 20.9931 30.9996C20.9931 30.9996 20.9931 30.9996 20.9931 30.9996C20.9931 30.9996 20.9931 30.9996 20.9931 30.9996C20.9931 30.9996 20.9931 30.9996 20.9931 30.9996C20.9931 30.9996 20.9931 30.9996 20.9931 30.9996C20.9931 30.9996 20.9931 30.9996 20.9931 30.9996C20.9931 30.9996 20.9931 30.9996 20.9931 30.9996C20.9931 30.9996 20.9931 30.9996 20.9931 30.9996C20.9931 30.9996 20.9931 30.9996 20.9931 30.9996C20.9931 30.9996 20.9931 30.9996 20.9931 30.9996C20.9931 30.9996 20.9931 30.9996 20.9931 30.9996C20.9931 30.9996 20.9931 30.9996 20.9931 30.9996C20.9931 30.9996 20.9931 30.9996 20.9931 30.9996C20.9931 30.9996 20.9931 30.9996 20.9931 30.9996C20.9931 30.9996 20.9931 30.9996 20.9931 30.9996C20.9931 30.9996 20.9931 30.9996 20.9931 30.9996C20.9931 30.9996 20.9931 30.9996 20.9931 30.9996C20.9931 30.9996 20.9931 30.9996 20.9931 30.9996C20.9931 30.9996 20.9931 30.9996 20.9931 30.9996C20.9931 30.9996 20.9931 30.9996 20.9931 30.9996C20.9931 30.9996 20.9931 30.9996 20.9931 30.9996C20.9931 30.9996 20.9931 30.9996 20.9931 30.9996C20.9931 30.9996 20.9932 30.9996 20.9932 30.9996C20.9932 30.9996 20.9932 30.9996 20.9932 30.9996C20.9932 30.9996 20.9932 30.9996 20.9932 30.9996C20.9932 30.9996 20.9932 30.9996 20.9932 30.9996C20.9932 30.9996 20.9932 30.9996 20.9932 30.9996C20.9932 30.9996 20.9932 30.9996 20.9932 30.9996C20.9932 30.9996 20.9932 30.9996 20.9932 30.9996C20.9932 30.9996 20.9932 30.9996 20.9932 30.9996C20.9932 30.9996 20.9932 30.9996 20.9932 30.9996C20.9932 30.9996 20.9932 30.9996 20.9932 30.9996C20.9932 30.9996 20.9932 30.9996 20.9932 30.9996C20.9932 30.9996 20.9932 30.9996 20.9932 30.9996C20.9932 30.9996 20.9932 30.9996 20.9932 30.9996C20.9932 30.9996 20.9932 30.9996 20.9932 30.9996C20.9932 30.9996 20.9932 30.9996 20.9932 30.9996C20.9932 30.9996 20.9932 30.9996 20.9932 30.9996C20.9932 30.9996 20.9932 30.9996 20.9932 30.9996C20.9932 30.9996 20.9932 30.9996 20.9932 30.9996C20.9932 30.9996 20.9932 30.9996 20.9932 30.9996C20.9932 30.9996 20.9932 30.9996 20.9932 30.9996C20.9932 30.9996 20.9932 30.9996 20.9932 30.9996C20.9932 30.9996 20.9932 30.9996 20.9933 30.9996C20.9933 30.9996 20.9933 30.9996 20.9933 30.9996C20.9933 30.9996 20.9933 30.9996 20.9933 30.9996C20.9933 30.9996 20.9933 30.9996 20.9933 30.9996C20.9933 30.9996 20.9933 30.9996 20.9933 30.9996C20.9933 30.9996 20.9933 30.9996 20.9933 30.9996C20.9933 30.9996 20.9933 30.9996 20.9933 30.9996C20.9933 30.9996 20.9933 30.9996 20.9933 30.9996C20.9933 30.9996 20.9933 30.9996 20.9933 30.9996C20.9933 30.9996 20.9933 30.9996 20.9933 30.9996C20.9933 30.9996 20.9933 30.9996 20.9933 30.9996C20.9933 30.9996 20.9933 30.9996 20.9933 30.9996C20.9933 30.9996 20.9933 30.9996 20.9933 30.9996C20.9933 30.9996 20.9933 30.9996 20.9933 30.9996C20.9933 30.9996 20.9933 30.9996 20.9933 30.9996C20.9933 30.9996 20.9933 30.9996 20.9933 30.9996C20.9933 30.9996 20.9933 30.9996 20.9933 30.9996C20.9933 30.9996 20.9933 30.9996 20.9933 30.9996C20.9933 30.9996 20.9933 30.9996 20.9933 30.9996C20.9933 30.9996 20.9933 30.9996 20.9934 30.9996C20.9934 30.9996 20.9934 30.9996 20.9934 30.9996C20.9934 30.9996 20.9934 30.9996 20.9934 30.9996C20.9934 30.9996 20.9934 30.9996 20.9934 30.9996C20.9934 30.9996 20.9934 30.9996 20.9934 30.9996C20.9934 30.9996 20.9934 30.9996 20.9934 30.9996C20.9934 30.9996 20.9934 30.9996 20.9934 30.9996C20.9934 30.9996 20.9934 30.9996 20.9934 30.9996C20.9934 30.9996 20.9934 30.9996 20.9934 30.9996C20.9934 30.9996 20.9934 30.9996 20.9934 30.9996C20.9934 30.9996 20.9934 30.9996 20.9934 30.9996C20.9934 30.9996 20.9934 30.9996 20.9934 30.9996C20.9934 30.9996 20.9934 30.9996 20.9934 30.9996C20.9934 30.9996 20.9934 30.9996 20.9934 30.9996C20.9934 30.9996 20.9934 30.9996 20.9934 30.9996C20.9934 30.9996 20.9934 30.9996 20.9934 30.9996C20.9934 30.9996 20.9934 30.9996 20.9934 30.9996C20.9934 30.9996 20.9934 30.9996 20.9934 30.9996C20.9935 30.9996 20.9935 30.9996 20.9935 30.9996C20.9935 30.9996 20.9935 30.9996 20.9935 30.9996C20.9935 30.9996 20.9935 30.9996 20.9935 30.9996C20.9935 30.9996 20.9935 30.9996 20.9935 30.9996C20.9935 30.9996 20.9935 30.9996 20.9935 30.9996C20.9935 30.9996 20.9935 30.9996 20.9935 30.9996C20.9935 30.9996 20.9935 30.9996 20.9935 30.9996C20.9935 30.9996 20.9935 30.9996 20.9935 30.9996C20.9935 30.9996 20.9935 30.9996 20.9935 30.9996C20.9935 30.9996 20.9935 30.9996 20.9935 30.9996C20.9935 30.9996 20.9935 30.9996 20.9935 30.9996C20.9935 30.9996 20.9935 30.9996 20.9935 30.9996C20.9935 30.9996 20.9935 30.9996 20.9935 30.9996C20.9935 30.9996 20.9935 30.9996 20.9935 30.9996C20.9935 30.9996 20.9935 30.9996 20.9935 30.9996C20.9935 30.9996 20.9935 30.9996 20.9935 30.9996C20.9936 30.9996 20.9936 30.9996 20.9936 30.9996C20.9936 30.9996 20.9936 30.9996 20.9936 30.9996C20.9936 30.9996 20.9936 30.9996 20.9936 30.9996C20.9936 30.9996 20.9936 30.9996 20.9936 30.9996C20.9936 30.9996 20.9936 30.9996 20.9936 30.9996C20.9936 30.9996 20.9936 30.9996 20.9936 30.9996C20.9936 30.9996 20.9936 30.9996 20.9936 30.9996C20.9936 30.9996 20.9936 30.9996 20.9936 30.9996C20.9936 30.9996 20.9936 30.9996 20.9936 30.9996C20.9936 30.9996 20.9936 30.9996 20.9936 30.9996C20.9936 30.9996 20.9936 30.9996 20.9936 30.9996C20.9936 30.9996 20.9936 30.9996 20.9936 30.9996C20.9936 30.9996 20.9936 30.9996 20.9936 30.9996C20.9936 30.9996 20.9936 30.9996 20.9936 30.9996C20.9936 30.9996 20.9936 30.9996 20.9937 30.9996C20.9937 30.9996 20.9937 30.9996 20.9937 30.9996C20.9937 30.9996 20.9937 30.9996 20.9937 30.9996C20.9937 30.9996 20.9937 30.9996 20.9937 30.9996C20.9937 30.9996 20.9937 30.9996 20.9937 30.9996C20.9937 30.9996 20.9937 30.9996 20.9937 30.9996C20.9937 30.9996 20.9937 30.9996 20.9937 30.9996C20.9937 30.9996 20.9937 30.9996 20.9937 30.9996C20.9937 30.9996 20.9937 30.9996 20.9937 30.9996C20.9937 30.9996 20.9937 30.9996 20.9937 30.9996C20.9937 30.9996 20.9937 30.9996 20.9937 30.9996C20.9937 30.9996 20.9937 30.9996 20.9937 30.9996C20.9937 30.9996 20.9937 30.9996 20.9937 30.9996C20.9937 30.9996 20.9937 30.9996 20.9937 30.9996C20.9937 30.9996 20.9937 30.9996 20.9938 30.9996V28.9996ZM20.9938 28.9996C20.3741 28.9996 19.5498 28.7308 18.545 28.0685C17.5517 27.4138 16.4536 26.421 15.307 25.0977L13.7955 26.4074C15.0226 27.8237 16.2552 28.9545 17.4443 29.7384C18.6221 30.5147 19.8322 30.9996 20.9938 30.9996V28.9996ZM15.3069 25.0976L14.8819 24.6073L13.3706 25.9172L13.7956 26.4076L15.3069 25.0976ZM14.8819 25.9172L15.3069 25.4269L13.7956 24.117L13.3706 24.6073L14.8819 25.9172ZM15.3112 25.422C16.454 24.086 17.497 22.6486 18.4303 21.1243L16.7247 20.0799C15.8455 21.5158 14.8643 22.8675 13.7913 24.1219L15.3112 25.422ZM18.4265 21.1305L18.5953 20.8594L16.8972 19.8026L16.7285 20.0738L18.4265 21.1305ZM17.8419 21.3264L18.1344 21.2983L17.9431 19.3075L17.6506 19.3356L17.8419 21.3264ZM18.1265 21.299C19.7831 21.1531 21.4258 20.8562 23.0384 20.4113L22.5066 18.4833C21.0098 18.8962 19.4863 19.1715 17.951 19.3067L18.1265 21.299ZM23.0451 20.4094L23.6351 20.2422L23.0899 18.318L22.4999 18.4852L23.0451 20.4094ZM22.3935 19.527L22.5609 20.1845L24.499 19.6907L24.3316 19.0332L22.3935 19.527ZM22.5603 20.182C23.1608 22.5645 23.3505 24.5395 23.1921 26.0227C23.0317 27.5236 22.5397 28.3499 21.9565 28.7275L23.0435 30.4063C24.3503 29.5602 24.9901 28.0193 25.1807 26.2351C25.3732 24.4333 25.1329 22.2055 24.4997 19.6932L22.5603 20.182ZM21.9636 28.7229C21.664 28.9134 21.3352 29.0049 21.0096 28.9998L20.9779 30.9995C21.707 31.0111 22.4179 30.804 23.0364 30.4109L21.9636 28.7229ZM15.1355 25.9242C16.1486 27.0328 17.1605 27.931 18.121 28.5593C19.062 29.1749 20.0499 29.5947 20.9925 29.5947V27.5947C20.6126 27.5947 20.0161 27.4091 19.2159 26.8856C18.4351 26.3749 17.5489 25.6005 16.612 24.5751L15.1355 25.9242ZM20.9925 29.5947C21.4914 29.5947 21.9854 29.4716 22.4185 29.1903L21.3291 27.513C21.2646 27.5549 21.1611 27.5947 20.9925 27.5947V29.5947ZM22.4175 29.1909C23.4501 28.5219 23.852 27.1986 23.9611 25.8562C24.0756 24.4476 23.8972 22.6954 23.4552 20.7488L21.5048 21.1917C21.9203 23.0215 22.0601 24.5575 21.9677 25.6942C21.8699 26.8972 21.5399 27.3764 21.33 27.5124L22.4175 29.1909ZM22.2372 20.0002C20.9518 20.3219 19.6495 20.5486 18.3385 20.679L18.5365 22.6692C19.9449 22.5291 21.3434 22.2856 22.7228 21.9403L22.2372 20.0002ZM17.5893 21.1444C16.8284 22.3628 15.9969 23.5223 15.1005 24.6156L16.647 25.8837C17.5986 24.7232 18.48 23.4938 19.2857 22.2038L17.5893 21.1444ZM23.6351 9.74517L23.0451 9.57799L22.4999 11.5022L23.0899 11.6694L23.6351 9.74517ZM23.0393 9.57635C21.4265 9.12992 19.7833 8.83237 18.1262 8.68693L17.9513 10.6793C19.4863 10.814 21.0095 11.0897 22.5057 11.5039L23.0393 9.57635ZM18.1344 8.68769L17.8419 8.65959L17.6506 10.6504L17.9431 10.6785L18.1344 8.68769ZM18.5953 9.12663L18.4265 8.85548L16.7285 9.91224L16.8972 10.1834L18.5953 9.12663ZM18.4304 8.86184C17.4975 7.33745 16.4542 5.90028 15.3108 4.56502L13.7917 5.8659C14.8649 7.11917 15.8459 8.47025 16.7246 9.90587L18.4304 8.86184ZM15.3069 4.56048L14.8819 4.07016L13.3706 5.38013L13.7956 5.87044L15.3069 4.56048ZM14.8819 5.38013L15.3069 4.88981L13.7956 3.57985L13.3706 4.07016L14.8819 5.38013ZM15.3069 4.88981C16.8166 3.14806 18.2348 2.00282 19.4308 1.42953C20.6297 0.854857 21.4357 0.921488 21.9567 1.25862L23.0433 -0.420482C21.708 -1.28456 20.0984 -1.10835 18.5664 -0.373984C17.0314 0.361762 15.4034 1.725 13.7956 3.57984L15.3069 4.88981ZM21.9561 1.2582C22.5398 1.6366 23.0321 2.46354 23.1925 3.9641C23.3511 5.44719 23.1615 7.42211 22.5604 9.80521L24.4996 10.2944C25.1335 7.78132 25.3739 5.55342 25.1812 3.75147C24.9904 1.96697 24.3502 0.426626 23.0439 -0.420068L21.9561 1.2582ZM22.5609 9.80292L22.3935 10.4604L24.3316 10.9542L24.499 10.2967L22.5609 9.80292ZM18.3357 9.30671C19.7184 9.44823 21.026 9.67763 22.2334 9.98488L22.7266 8.04666C21.4165 7.71327 20.0116 7.4678 18.5393 7.3171L18.3357 9.30671ZM23.4552 9.2372C23.8972 7.29063 24.0756 5.53872 23.9611 4.13044C23.852 2.78825 23.45 1.46545 22.4175 0.79648L21.33 2.47497C21.54 2.61102 21.8699 3.09003 21.9677 4.2925C22.06 5.42888 21.9203 6.96449 21.5048 8.79434L23.4552 9.2372ZM22.4185 0.797116C21.3296 0.0897921 19.993 0.408806 18.8653 0.995789C17.6839 1.61076 16.4018 2.67714 15.1355 4.06331L16.612 5.41227C17.7894 4.12348 18.8899 3.23771 19.7887 2.76985C20.7414 2.27399 21.1829 2.37945 21.329 2.47434L22.4185 0.797116ZM15.1003 5.37163C15.9964 6.4651 16.828 7.62441 17.5897 8.84218L19.2853 7.78163C18.4792 6.49279 17.598 5.26419 16.6472 4.10395L15.1003 5.37163ZM8.99118 28.9998C8.66532 29.0051 8.33627 28.9135 8.03636 28.7229L6.96364 30.4109C7.58264 30.8043 8.29417 31.0114 9.02382 30.9995L8.99118 28.9998ZM8.04348 28.7275C7.46015 28.3498 6.96792 27.5236 6.80762 26.0232C6.64919 24.5404 6.83911 22.5655 7.44082 20.1824L5.50168 19.6928C4.86714 22.2059 4.62643 24.4338 4.81894 26.2357C5.00958 28.02 5.64985 29.5603 6.95652 30.4063L8.04348 28.7275ZM7.44118 20.181L7.60618 19.5235L5.66632 19.0367L5.50132 19.6942L7.44118 20.181ZM6.36362 20.2422L6.95362 20.4094L7.49888 18.4852L6.90888 18.318L6.36362 20.2422ZM6.95379 20.4095C8.46332 20.8369 10.1165 21.1348 11.8642 21.2985L12.0508 19.3073C10.4085 19.1534 8.87668 18.8753 7.49871 18.4851L6.95379 20.4095ZM11.8623 21.2983L12.156 21.3264L12.3465 19.3355L12.0527 19.3074L11.8623 21.2983ZM11.4005 20.8565L11.568 21.1277L13.2695 20.0766L13.102 19.8054L11.4005 20.8565ZM11.5661 21.1247C12.5001 22.6486 13.5435 24.0858 14.6863 25.422L16.2062 24.1219C15.1329 22.8672 14.1513 21.5154 13.2714 20.0796L11.5661 21.1247ZM14.6906 25.4269L15.1156 25.9172L16.6269 24.6073L16.2019 24.117L14.6906 25.4269ZM15.1156 24.6073L14.6906 25.0976L16.2019 26.4076L16.6269 25.9172L15.1156 24.6073ZM14.6903 25.0979C13.5444 26.4212 12.4466 27.4139 11.4537 28.0686C10.4493 28.731 9.62572 28.9996 9.0075 28.9996V30.9996C10.168 30.9996 11.3776 30.5145 12.5547 29.7383C13.7434 28.9544 14.9756 27.8236 16.2022 26.4072L14.6903 25.0979ZM6.54482 20.7488C6.10281 22.6954 5.92443 24.4476 6.03891 25.8562C6.14801 27.1986 6.54989 28.5219 7.5825 29.1909L8.67 27.5124C8.46011 27.3764 8.13011 26.8972 8.03234 25.6942C7.93995 24.5575 8.07969 23.0215 8.49518 21.1917L6.54482 20.7488ZM7.58653 29.1935C8.67309 29.8901 10.0051 29.5729 11.1325 28.9873C12.3136 28.3738 13.596 27.3105 14.864 25.9247L13.3885 24.5746C12.2103 25.8623 11.1095 26.7455 10.2106 27.2124C9.25801 27.7072 8.81316 27.6042 8.66597 27.5098L7.58653 29.1935ZM14.8999 24.616C14.0036 23.5216 13.1714 22.3616 12.4089 21.1435L10.7136 22.2047C11.5204 23.4935 12.4019 24.7223 13.3526 25.8832L14.8999 24.616ZM11.6602 20.679C10.3497 20.5487 9.04783 20.322 7.76298 20.0002L7.27702 21.9403C8.65607 22.2857 10.0542 22.5292 11.4623 22.6692L11.6602 20.679ZM15 20.8525C14.0036 20.8525 12.977 20.8035 11.9475 20.7079L11.7625 22.6993C12.8505 22.8004 13.9389 22.8525 15 22.8525V20.8525ZM11.9502 20.7081L11.6565 20.68L11.466 22.671L11.7598 22.6991L11.9502 20.7081ZM12.4103 21.1471L12.2415 20.876L10.5435 21.9327L10.7122 22.2039L12.4103 21.1471ZM12.2427 20.8779C11.6577 19.9331 11.1076 18.9613 10.5938 17.9648L8.81619 18.8814C9.35372 19.9239 9.92956 20.9413 10.5423 21.9308L12.2427 20.8779ZM10.5945 17.9662C10.0823 16.969 9.60687 15.948 9.1696 14.906L7.3254 15.6799C7.78244 16.769 8.27955 17.8366 8.81549 18.88L10.5945 17.9662ZM9.1716 14.9108L9.04785 14.6116L7.19965 15.3759L7.3234 15.6751L9.1716 14.9108ZM9.04785 15.3759L9.1716 15.0766L7.3234 14.3123L7.19965 14.6116L9.04785 15.3759ZM9.16963 15.0813C9.60681 14.0393 10.0822 13.0184 10.5945 12.0213L8.81552 11.1073C8.27949 12.1507 7.78236 13.2184 7.32537 14.3076L9.16963 15.0813ZM10.5942 12.0218C11.0993 11.0401 11.655 10.0598 12.243 9.10904L10.542 8.05707C9.92748 9.05074 9.34573 10.0767 8.81577 11.1068L10.5942 12.0218ZM12.2415 9.11143L12.4103 8.84028L10.7122 7.78353L10.5435 8.05468L12.2415 9.11143ZM11.6565 9.30736L11.9502 9.27926L11.7598 7.28835L11.466 7.31645L11.6565 9.30736ZM11.9499 9.2793C13.9801 9.08581 16.0212 9.08581 18.0514 9.2793L18.2411 7.28832C16.0847 7.08281 13.9166 7.08281 11.7601 7.28832L11.9499 9.2793ZM18.0506 9.27922L18.3431 9.30732L18.5344 7.31649L18.2419 7.28839L18.0506 9.27922ZM17.588 8.83745L17.7555 9.1086L19.457 8.0575L19.2895 7.78635L17.588 8.83745ZM17.7562 9.10983C18.9271 10.9991 19.9555 12.9966 20.8304 15.0814L22.6746 14.3075C21.7598 12.1274 20.6833 10.0363 19.4563 8.05628L17.7562 9.10983ZM20.8311 15.0832L20.9574 15.3824L22.8001 14.605L22.6739 14.3057L20.8311 15.0832ZM20.9574 14.605L20.8311 14.9042L22.6739 15.6817L22.8001 15.3824L20.9574 14.605ZM20.83 14.907C19.9575 16.9924 18.9293 18.9894 17.7568 20.8766L19.4557 21.9321C20.6852 19.9529 21.7621 17.8609 22.675 15.6789L20.83 14.907ZM17.7555 20.8788L17.588 21.15L19.2895 22.201L19.457 21.9299L17.7555 20.8788ZM18.3431 20.6801L18.0506 20.7082L18.2419 22.699L18.5344 22.6709L18.3431 20.6801ZM18.0538 20.7079C17.0243 20.8035 15.9964 20.8525 15 20.8525V22.8525C16.0611 22.8525 17.1507 22.8004 18.2387 22.6993L18.0538 20.7079ZM12.1698 21.3261C14.0757 21.4867 15.9243 21.4867 17.8314 21.3261L17.6636 19.3331C15.8682 19.4844 14.1318 19.4844 12.3377 19.3331L12.1698 21.3261ZM18.6017 20.8495C19.6603 19.1102 20.5995 17.2842 21.4118 15.3873L19.5732 14.6001C18.7978 16.4111 17.9018 18.1526 16.8933 19.8097L18.6017 20.8495ZM21.4121 14.6009C20.6011 12.7022 19.661 10.8754 18.5998 9.13685L16.8927 10.1788C17.9029 11.834 18.7991 13.575 19.5729 15.3865L21.4121 14.6009ZM17.8312 8.66144C15.9465 8.50066 14.0535 8.50066 12.1688 8.66144L12.3387 10.6542C14.1104 10.5031 15.8896 10.5031 17.6613 10.6542L17.8312 8.66144ZM11.4003 9.13661C10.3386 10.875 9.39842 12.702 8.58778 14.6011L10.4272 15.3863C11.2005 13.5747 12.0966 11.8338 13.1072 10.179L11.4003 9.13661ZM8.5884 15.3877C9.40144 17.2842 10.341 19.11 11.3995 20.8494L13.108 19.8098C12.0994 18.1522 11.203 16.4106 10.4266 14.5997L8.5884 15.3877Z" fill="#F8F9FF" mask="url(#path-1-inside-1_93_17)"/>
</svg>
