<svg width="30" height="30" viewBox="0 0 30 30" fill="none" xmlns="http://www.w3.org/2000/svg">
<path d="M17.1443 26.205H17.1444C20.6895 26.2046 22.7742 25.2258 24.284 24.2372C24.6552 23.9942 24.9898 23.7518 25.294 23.5315C25.602 23.3084 25.8737 23.1116 26.1366 22.9445C26.659 22.6123 27.0925 22.4333 27.5697 22.4333C28.31 22.4333 28.7808 22.7041 29.0711 23.0272C29.3744 23.3649 29.5 23.7815 29.5 24.0798C29.5 24.1457 29.4671 24.2926 29.3295 24.5261C29.1972 24.7506 28.9904 25.0173 28.7046 25.3116C28.1338 25.8994 27.2812 26.5633 26.1837 27.1876C23.9906 28.4349 20.8613 29.5 17.1451 29.5C6.6944 29.5 0.5 21.8067 0.5 14.9698C0.5 8.2894 6.5092 0.5 17.1451 0.5C20.9365 0.5 24.0647 1.58217 26.2374 2.83674C27.325 3.46468 28.1637 4.13037 28.7233 4.71501C29.0036 5.00777 29.2058 5.27182 29.335 5.49243C29.47 5.72303 29.5 5.86339 29.5 5.92015C29.5 6.49961 28.9481 7.56799 27.4986 7.56799C27.0254 7.56799 26.5924 7.38918 26.0693 7.05641C25.8065 6.88917 25.5345 6.6922 25.2268 6.46903L25.2206 6.46448C24.9184 6.24527 24.5864 6.00447 24.2189 5.76299C22.7145 4.77423 20.6438 3.79367 17.1443 3.79367C9.21871 3.79367 4.50052 9.68551 4.50052 14.9691C4.50052 20.214 9.13472 26.205 17.1443 26.205Z" fill="#F6F8FF" stroke="#F8F9FF"/>
</svg>
