<svg width="30" height="30" viewBox="0 0 30 30" fill="none" xmlns="http://www.w3.org/2000/svg">
<path d="M6.75851 16.6429H6.20581L6.26101 17.1928L6.7837 22.3999L6.81887 22.7503L7.16063 22.8352L14.8794 24.7531L14.9988 24.7828L15.1184 24.7536L22.8129 22.8786L23.1565 22.7949L23.192 22.443L24.8937 5.56803L24.9492 5.01786H24.3963H5.57942H5.02538L5.08204 5.56899L5.42239 8.8797L5.46854 9.32857H5.91977H19.7229L19.4828 11.725H6.26013H5.70811L5.76257 12.2743L6.09077 15.585L6.13545 16.0357H6.58833H19.0655L18.7201 19.4183L14.9992 20.3145L11.267 19.4277L11.0241 17.0912L10.9775 16.6429H10.5267H6.75851ZM0.552959 0.5H29.447L26.8151 26.5982L15 29.4853L3.18487 26.5982L0.552959 0.5Z" fill="#F6F8FF" stroke="#F8F9FF"/>
</svg>
